Benja.ufo
<glyph name="exclam" format="1">
  <advance width="521"/>
  <unicode hex="0021"/>
  <outline>
    <contour>
      <point x="210" y="425" type="line"/>
      <point x="327" y="425" type="line"/>
      <point x="398" y="1048" type="line"/>
      <point x="398" y="1411" type="line"/>
      <point x="132" y="1411" type="line"/>
      <point x="134" y="1048" type="line"/>
    </contour>
    <contour>
      <point x="269" y="-22" type="curve" smooth="yes"/>
      <point x="358" y="-22"/>
      <point x="413" y="54"/>
      <point x="413" y="122" type="curve" smooth="yes"/>
      <point x="413" y="218"/>
      <point x="328" y="267"/>
      <point x="269" y="267" type="curve" smooth="yes"/>
      <point x="210" y="267"/>
      <point x="125" y="218"/>
      <point x="125" y="122" type="curve" smooth="yes"/>
      <point x="125" y="54"/>
      <point x="178" y="-22"/>
    </contour>
  </outline>
</glyph>
<glyph name="quotedbl" format="1">
  <advance width="655"/>
  <unicode hex="0022"/>
  <outline>
    <contour>
      <point x="228" y="1011" type="line"/>
      <point x="451" y="1011" type="line"/>
      <point x="451" y="1522" type="line"/>
      <point x="228" y="1522" type="line"/>
    </contour>
  </outline>
</glyph>
<glyph name="numbersign" format="1">
  <advance width="905"/>
  <unicode hex="0023"/>
  <outline>
    <contour>
      <point x="21" y="450" type="line"/>
      <point x="178" y="450" type="line"/>
      <point x="127" y="0" type="line"/>
      <point x="278" y="0" type="line"/>
      <point x="294" y="143"/>
      <point x="315" y="312"/>
      <point x="331" y="450" type="curve"/>
      <point x="545" y="450" type="line"/>
      <point x="492" y="0" type="line"/>
      <point x="644" y="0" type="line"/>
      <point x="660" y="143"/>
      <point x="681" y="312"/>
      <point x="697" y="450" type="curve"/>
      <point x="857" y="450" type="line"/>
      <point x="863" y="594" type="line"/>
      <point x="716" y="594" type="line"/>
      <point x="752" y="926" type="line"/>
      <point x="912" y="926" type="line"/>
      <point x="912" y="1071" type="line"/>
      <point x="771" y="1071" type="line"/>
      <point x="823" y="1523" type="line"/>
      <point x="672" y="1523" type="line"/>
      <point x="655" y="1379"/>
      <point x="635" y="1212"/>
      <point x="619" y="1071" type="curve"/>
      <point x="404" y="1071" type="line"/>
      <point x="458" y="1523" type="line"/>
      <point x="306" y="1523" type="line"/>
      <point x="289" y="1379"/>
      <point x="269" y="1212"/>
      <point x="253" y="1071" type="curve"/>
      <point x="77" y="1071" type="line"/>
      <point x="77" y="926" type="line"/>
      <point x="237" y="926" type="line"/>
      <point x="197" y="594" type="line"/>
      <point x="21" y="594" type="line"/>
    </contour>
    <contour>
      <point x="603" y="926" type="line"/>
      <point x="563" y="594" type="line"/>
      <point x="349" y="594" type="line"/>
      <point x="388" y="926" type="line"/>
    </contour>
  </outline>
</glyph>
<glyph name="dollar" format="1">
  <advance width="905"/>
  <unicode hex="0024"/>
  <outline>
    <contour>
      <point x="423" y="-212" type="line"/>
      <point x="507" y="-212" type="line"/>
      <point x="507" y="1661" type="line"/>
      <point x="423" y="1661" type="line"/>
    </contour>
    <contour>
      <point x="829" y="1219" type="line"/>
      <point x="765" y="1364"/>
      <point x="625" y="1430"/>
      <point x="482" y="1430" type="curve" smooth="yes"/>
      <point x="277" y="1430"/>
      <point x="67" y="1295"/>
      <point x="67" y="1064" type="curve" smooth="yes"/>
      <point x="67" y="721"/>
      <point x="591" y="589"/>
      <point x="591" y="360" type="curve" smooth="yes"/>
      <point x="591" y="253"/>
      <point x="513" y="201"/>
      <point x="425" y="201" type="curve" smooth="yes"/>
      <point x="339" y="201"/>
      <point x="243" y="251"/>
      <point x="203" y="348" type="curve"/>
      <point x="52" y="200" type="line"/>
      <point x="133" y="49"/>
      <point x="290" y="-22"/>
      <point x="444" y="-22" type="curve" smooth="yes"/>
      <point x="659" y="-22"/>
      <point x="870" y="116"/>
      <point x="870" y="369" type="curve" smooth="yes"/>
      <point x="870" y="745"/>
      <point x="343" y="864"/>
      <point x="343" y="1070" type="curve" smooth="yes"/>
      <point x="343" y="1155"/>
      <point x="408" y="1199"/>
      <point x="478" y="1199" type="curve" smooth="yes"/>
      <point x="537" y="1199"/>
      <point x="600" y="1167"/>
      <point x="627" y="1099" type="curve"/>
    </contour>
  </outline>
</glyph>
<glyph name="percent" format="1">
  <advance width="1535"/>
  <unicode hex="0025"/>
  <outline>
    <contour>
      <point x="1030" y="1433" type="line"/>
      <point x="955" y="1319"/>
      <point x="880" y="1281"/>
      <point x="803" y="1281" type="curve" smooth="yes"/>
      <point x="650" y="1281"/>
      <point x="491" y="1433"/>
      <point x="320" y="1433" type="curve" smooth="yes"/>
      <point x="144" y="1433"/>
      <point x="39" y="1299"/>
      <point x="39" y="1007" type="curve" smooth="yes"/>
      <point x="39" y="716"/>
      <point x="144" y="582"/>
      <point x="320" y="582" type="curve" smooth="yes"/>
      <point x="496" y="582"/>
      <point x="601" y="716"/>
      <point x="601" y="1007" type="curve" smooth="yes"/>
      <point x="601" y="1083"/>
      <point x="588" y="1169"/>
      <point x="565" y="1257" type="curve"/>
      <point x="636" y="1211"/>
      <point x="701" y="1184"/>
      <point x="766" y="1184" type="curve" smooth="yes"/>
      <point x="814" y="1184"/>
      <point x="861" y="1198"/>
      <point x="912" y="1229" type="curve"/>
      <point x="338" y="-22" type="line"/>
      <point x="526" y="-22" type="line"/>
      <point x="1190" y="1433" type="line"/>
    </contour>
    <contour>
      <point x="208" y="1007" type="curve" smooth="yes"/>
      <point x="208" y="1285"/>
      <point x="254" y="1313"/>
      <point x="320" y="1313" type="curve" smooth="yes"/>
      <point x="383" y="1313"/>
      <point x="432" y="1285"/>
      <point x="432" y="1007" type="curve" smooth="yes"/>
      <point x="432" y="729"/>
      <point x="383" y="703"/>
      <point x="320" y="703" type="curve" smooth="yes"/>
      <point x="254" y="703"/>
      <point x="208" y="729"/>
    </contour>
    <contour>
      <point x="1216" y="828" type="curve" smooth="yes"/>
      <point x="1041" y="828"/>
      <point x="936" y="694"/>
      <point x="936" y="404" type="curve" smooth="yes"/>
      <point x="936" y="112"/>
      <point x="1041" y="-22"/>
      <point x="1216" y="-22" type="curve" smooth="yes"/>
      <point x="1392" y="-22"/>
      <point x="1497" y="112"/>
      <point x="1497" y="404" type="curve" smooth="yes"/>
      <point x="1497" y="694"/>
      <point x="1392" y="828"/>
    </contour>
    <contour>
      <point x="1216" y="98" type="curve" smooth="yes"/>
      <point x="1151" y="98"/>
      <point x="1104" y="126"/>
      <point x="1104" y="404" type="curve" smooth="yes"/>
      <point x="1104" y="682"/>
      <point x="1151" y="708"/>
      <point x="1216" y="708" type="curve" smooth="yes"/>
      <point x="1282" y="708"/>
      <point x="1327" y="682"/>
      <point x="1327" y="404" type="curve" smooth="yes"/>
      <point x="1327" y="126"/>
      <point x="1282" y="98"/>
    </contour>
  </outline>
</glyph>
<glyph name="ampersand" format="1">
  <advance width="1004"/>
  <unicode hex="0026"/>
  <outline>
    <contour>
      <point x="1013" y="-25" type="line"/>
      <point x="1004" y="-6"/>
      <point x="995" y="11"/>
      <point x="986" y="28" type="curve" smooth="yes"/>
      <point x="947" y="107"/>
      <point x="900" y="202"/>
      <point x="857" y="279" type="curve"/>
      <point x="953" y="427"/>
      <point x="986" y="548"/>
      <point x="1011" y="686" type="curve"/>
      <point x="940" y="702"/>
      <point x="886" y="716"/>
      <point x="813" y="733" type="curve"/>
      <point x="799" y="665"/>
      <point x="772" y="584"/>
      <point x="741" y="506" type="curve"/>
      <point x="690" y="588"/>
      <point x="604" y="741"/>
      <point x="562" y="816" type="curve"/>
      <point x="678" y="929"/>
      <point x="806" y="1072"/>
      <point x="806" y="1240" type="curve" smooth="yes"/>
      <point x="806" y="1433"/>
      <point x="671" y="1545"/>
      <point x="474" y="1545" type="curve" smooth="yes"/>
      <point x="288" y="1545"/>
      <point x="139" y="1419"/>
      <point x="139" y="1233" type="curve" smooth="yes"/>
      <point x="139" y="1107"/>
      <point x="201" y="982"/>
      <point x="284" y="858" type="curve"/>
      <point x="125" y="726"/>
      <point x="36" y="567"/>
      <point x="36" y="387" type="curve" smooth="yes"/>
      <point x="36" y="163"/>
      <point x="157" y="25"/>
      <point x="314" y="-15" type="curve"/>
      <point x="313" y="-15" type="line"/>
      <point x="337" y="-20"/>
      <point x="364" y="-23"/>
      <point x="394" y="-25" type="curve"/>
      <point x="494" y="-26"/>
      <point x="583" y="0"/>
      <point x="678" y="74" type="curve"/>
      <point x="706" y="38" type="line"/>
      <point x="694" y="11" type="line"/>
      <point x="693" y="10"/>
      <point x="692" y="10"/>
      <point x="692" y="10" type="curve"/>
      <point x="692" y="9" type="line"/>
      <point x="694" y="-1" type="line"/>
    </contour>
    <contour>
      <point x="590" y="276" type="line"/>
      <point x="545" y="241"/>
      <point x="503" y="213"/>
      <point x="445" y="213" type="curve" smooth="yes"/>
      <point x="361" y="213"/>
      <point x="291" y="280"/>
      <point x="291" y="411" type="curve" smooth="yes"/>
      <point x="291" y="484"/>
      <point x="335" y="577"/>
      <point x="408" y="627" type="curve"/>
    </contour>
    <contour>
      <point x="364" y="1225" type="curve" smooth="yes"/>
      <point x="364" y="1311"/>
      <point x="401" y="1374"/>
      <point x="475" y="1374" type="curve" smooth="yes"/>
      <point x="542" y="1374"/>
      <point x="587" y="1320"/>
      <point x="587" y="1251" type="curve" smooth="yes"/>
      <point x="587" y="1154"/>
      <point x="514" y="1077"/>
      <point x="448" y="1024" type="curve"/>
      <point x="409" y="1075"/>
      <point x="364" y="1158"/>
    </contour>
  </outline>
</glyph>
<glyph name="quotesingle" format="1">
  <advance width="445"/>
  <unicode hex="0027"/>
  <outline>
    <contour>
      <point x="128" y="1011" type="line"/>
      <point x="332" y="1011" type="line"/>
      <point x="332" y="1522" type="line"/>
      <point x="128" y="1522" type="line"/>
    </contour>
  </outline>
</glyph>
<glyph name="parenleft" format="1">
  <advance width="539"/>
  <unicode hex="0028"/>
  <outline>
    <contour>
      <point x="488" y="-187" type="line"/>
      <point x="328" y="67"/>
      <point x="250" y="348"/>
      <point x="250" y="627" type="curve" smooth="yes"/>
      <point x="250" y="908"/>
      <point x="329" y="1186"/>
      <point x="484" y="1432" type="curve"/>
      <point x="267" y="1432" type="line"/>
      <point x="115" y="1170"/>
      <point x="40" y="895"/>
      <point x="40" y="623" type="curve" smooth="yes"/>
      <point x="40" y="345"/>
      <point x="118" y="69"/>
      <point x="268" y="-187" type="curve"/>
    </contour>
  </outline>
</glyph>
<glyph name="parenright" format="1">
  <advance width="539"/>
  <unicode hex="0029"/>
  <outline>
    <contour>
      <point x="292" y="-187" type="line"/>
      <point x="442" y="69"/>
      <point x="520" y="345"/>
      <point x="520" y="623" type="curve" smooth="yes"/>
      <point x="520" y="895"/>
      <point x="445" y="1170"/>
      <point x="293" y="1432" type="curve"/>
      <point x="76" y="1432" type="line"/>
      <point x="231" y="1186"/>
      <point x="310" y="908"/>
      <point x="310" y="627" type="curve" smooth="yes"/>
      <point x="310" y="348"/>
      <point x="232" y="67"/>
      <point x="72" y="-187" type="curve"/>
    </contour>
  </outline>
</glyph>
<glyph name="asterisk" format="1">
  <advance width="960"/>
  <unicode hex="002A"/>
  <outline>
    <contour>
      <point x="497" y="1085" type="line"/>
      <point x="647" y="829" type="line"/>
      <point x="777" y="921" type="line"/>
      <point x="574" y="1152" type="line"/>
      <point x="859" y="1214" type="line"/>
      <point x="812" y="1356" type="line"/>
      <point x="549" y="1239" type="line"/>
      <point x="578" y="1522" type="line"/>
      <point x="413" y="1522" type="line"/>
      <point x="442" y="1240" type="line"/>
      <point x="179" y="1356" type="line"/>
      <point x="133" y="1215" type="line"/>
      <point x="419" y="1151" type="line"/>
      <point x="218" y="922" type="line"/>
      <point x="346" y="828" type="line"/>
    </contour>
  </outline>
</glyph>
<glyph name="plus" format="1">
  <advance width="1229"/>
  <unicode hex="002B"/>
  <outline>
    <contour>
      <point x="534" y="0" type="line"/>
      <point x="734" y="0" type="line"/>
      <point x="734" y="404" type="line"/>
      <point x="1139" y="404" type="line"/>
      <point x="1139" y="585" type="line"/>
      <point x="734" y="585" type="line"/>
      <point x="734" y="990" type="line"/>
      <point x="534" y="990" type="line"/>
      <point x="534" y="585" type="line"/>
      <point x="131" y="585" type="line"/>
      <point x="131" y="404" type="line"/>
      <point x="534" y="404" type="line"/>
    </contour>
  </outline>
</glyph>
<glyph name="comma" format="1">
  <advance width="454"/>
  <unicode hex="002C"/>
  <outline>
    <contour>
      <point x="92" y="0" type="line"/>
      <point x="168" y="0" type="line"/>
      <point x="43" y="-301" type="line"/>
      <point x="185" y="-301" type="line"/>
      <point x="326" y="-21" type="line"/>
      <point x="387" y="310" type="line"/>
      <point x="133" y="310" type="line"/>
    </contour>
  </outline>
</glyph>
<glyph name="hyphen" format="1">
  <advance width="602"/>
  <unicode hex="002D"/>
  <outline>
    <contour>
      <point x="72" y="382" type="line"/>
      <point x="551" y="382" type="line"/>
      <point x="551" y="604" type="line"/>
      <point x="72" y="604" type="line"/>
    </contour>
  </outline>
</glyph>
<glyph name="period" format="1">
  <advance width="454"/>
  <unicode hex="002E"/>
  <outline>
    <contour>
      <point x="234" y="-22" type="curve" smooth="yes"/>
      <point x="323" y="-22"/>
      <point x="378" y="54"/>
      <point x="378" y="122" type="curve" smooth="yes"/>
      <point x="378" y="218"/>
      <point x="293" y="267"/>
      <point x="234" y="267" type="curve" smooth="yes"/>
      <point x="175" y="267"/>
      <point x="90" y="218"/>
      <point x="90" y="122" type="curve" smooth="yes"/>
      <point x="90" y="54"/>
      <point x="143" y="-22"/>
    </contour>
  </outline>
</glyph>
<glyph name="slash" format="1">
  <advance width="569"/>
  <unicode hex="002F"/>
  <outline>
    <contour>
      <point x="-28" y="-25" type="line"/>
      <point x="175" y="-25" type="line"/>
      <point x="326" y="510"/>
      <point x="464" y="1009"/>
      <point x="615" y="1545" type="curve"/>
      <point x="412" y="1545" type="line"/>
    </contour>
  </outline>
</glyph>
<glyph name="colon" format="1">
  <advance width="454"/>
  <unicode hex="003A"/>
  <outline>
    <contour>
      <point x="226" y="-22" type="curve" smooth="yes"/>
      <point x="315" y="-22"/>
      <point x="370" y="54"/>
      <point x="370" y="122" type="curve" smooth="yes"/>
      <point x="370" y="218"/>
      <point x="285" y="267"/>
      <point x="226" y="267" type="curve" smooth="yes"/>
      <point x="167" y="267"/>
      <point x="82" y="218"/>
      <point x="82" y="122" type="curve" smooth="yes"/>
      <point x="82" y="54"/>
      <point x="135" y="-22"/>
    </contour>
    <contour>
      <point x="226" y="647" type="curve" smooth="yes"/>
      <point x="315" y="647"/>
      <point x="370" y="723"/>
      <point x="370" y="791" type="curve" smooth="yes"/>
      <point x="370" y="887"/>
      <point x="285" y="936"/>
      <point x="226" y="936" type="curve" smooth="yes"/>
      <point x="167" y="936"/>
      <point x="82" y="887"/>
      <point x="82" y="791" type="curve" smooth="yes"/>
      <point x="82" y="723"/>
      <point x="135" y="647"/>
    </contour>
  </outline>
</glyph>
<glyph name="semicolon" format="1">
  <advance width="454"/>
  <unicode hex="003B"/>
  <outline>
    <contour>
      <point x="92" y="0" type="line"/>
      <point x="168" y="0" type="line"/>
      <point x="43" y="-301" type="line"/>
      <point x="185" y="-301" type="line"/>
      <point x="326" y="-21" type="line"/>
      <point x="387" y="310" type="line"/>
      <point x="133" y="310" type="line"/>
    </contour>
    <contour>
      <point x="246" y="647" type="curve" smooth="yes"/>
      <point x="335" y="647"/>
      <point x="390" y="723"/>
      <point x="390" y="791" type="curve" smooth="yes"/>
      <point x="390" y="887"/>
      <point x="305" y="936"/>
      <point x="246" y="936" type="curve" smooth="yes"/>
      <point x="187" y="936"/>
      <point x="102" y="887"/>
      <point x="102" y="791" type="curve" smooth="yes"/>
      <point x="102" y="723"/>
      <point x="155" y="647"/>
    </contour>
  </outline>
</glyph>
<glyph name="less" format="1">
  <advance width="1229"/>
  <unicode hex="003C"/>
  <outline>
    <contour>
      <point x="131" y="425" type="line"/>
      <point x="1139" y="-6" type="line"/>
      <point x="1139" y="158" type="line"/>
      <point x="895" y="260"/>
      <point x="582" y="394"/>
      <point x="340" y="495" type="curve"/>
      <point x="1139" y="833" type="line"/>
      <point x="1139" y="999" type="line"/>
      <point x="799" y="854"/>
      <point x="471" y="712"/>
      <point x="131" y="567" type="curve"/>
    </contour>
  </outline>
</glyph>
<glyph name="equal" format="1">
  <advance width="1229"/>
  <unicode hex="003D"/>
  <outline>
    <contour>
      <point x="131" y="139" type="line"/>
      <point x="1139" y="139" type="line"/>
      <point x="1139" y="317" type="line"/>
      <point x="131" y="317" type="line"/>
    </contour>
    <contour>
      <point x="131" y="672" type="line"/>
      <point x="1139" y="672" type="line"/>
      <point x="1139" y="853" type="line"/>
      <point x="131" y="853" type="line"/>
    </contour>
  </outline>
</glyph>
<glyph name="greater" format="1">
  <advance width="1229"/>
  <unicode hex="003E"/>
  <outline>
    <contour>
      <point x="1139" y="567" type="line"/>
      <point x="131" y="998" type="line"/>
      <point x="131" y="833" type="line"/>
      <point x="930" y="495" type="line"/>
      <point x="131" y="158" type="line"/>
      <point x="131" y="-7" type="line"/>
      <point x="471" y="138"/>
      <point x="799" y="280"/>
      <point x="1139" y="425" type="curve"/>
    </contour>
  </outline>
</glyph>
<glyph name="question" format="1">
  <advance width="710"/>
  <unicode hex="003F"/>
  <outline>
    <contour>
      <point x="205" y="1197" type="line"/>
      <point x="219" y="1281"/>
      <point x="255" y="1309"/>
      <point x="309" y="1309" type="curve" smooth="yes"/>
      <point x="362" y="1309"/>
      <point x="399" y="1277"/>
      <point x="421" y="1213" type="curve"/>
      <point x="421" y="1214" type="line"/>
      <point x="433" y="1188"/>
      <point x="438" y="1149"/>
      <point x="438" y="1104" type="curve"/>
      <point x="441" y="1086"/>
      <point x="442" y="1065"/>
      <point x="442" y="1047" type="curve" smooth="yes"/>
      <point x="442" y="976"/>
      <point x="429" y="924"/>
      <point x="387" y="910" type="curve"/>
      <point x="373" y="888"/>
      <point x="361" y="871"/>
      <point x="349" y="855" type="curve" smooth="yes"/>
      <point x="301" y="789"/>
      <point x="242" y="707"/>
      <point x="236" y="544" type="curve"/>
      <point x="481" y="544" type="line"/>
      <point x="481" y="597" type="line"/>
      <point x="478" y="590"/>
      <point x="478" y="591"/>
      <point x="477" y="593" type="curve"/>
      <point x="475" y="620" type="line"/>
      <point x="612" y="776"/>
      <point x="687" y="941"/>
      <point x="687" y="1123" type="curve" smooth="yes"/>
      <point x="687" y="1342"/>
      <point x="574" y="1515"/>
      <point x="370" y="1539" type="curve"/>
      <point x="349" y="1542"/>
      <point x="330" y="1543"/>
      <point x="313" y="1543" type="curve" smooth="yes"/>
      <point x="166" y="1543"/>
      <point x="80" y="1460"/>
      <point x="43" y="1291" type="curve"/>
    </contour>
    <contour>
      <point x="508" y="78" type="curve"/>
      <point x="505" y="173"/>
      <point x="474" y="271"/>
      <point x="429" y="332" type="curve"/>
      <point x="334" y="331"/>
      <point x="257" y="290"/>
      <point x="212" y="249" type="curve"/>
      <point x="214" y="147"/>
      <point x="243" y="59"/>
      <point x="291" y="0" type="curve"/>
      <point x="382" y="1"/>
      <point x="462" y="36"/>
    </contour>
    <contour>
      <point x="285" y="0" type="line"/>
      <point x="291" y="0" type="line"/>
      <point x="301" y="-11" type="line"/>
    </contour>
  </outline>
</glyph>
<glyph name="at" format="1">
  <advance width="1638"/>
  <unicode hex="0040"/>
  <outline>
    <contour>
      <point x="1060" y="769" type="curve" smooth="yes"/>
      <point x="1060" y="622"/>
      <point x="962" y="488"/>
      <point x="811" y="488" type="curve" smooth="yes"/>
      <point x="690" y="488"/>
      <point x="622" y="583"/>
      <point x="622" y="703" type="curve" smooth="yes"/>
      <point x="622" y="838"/>
      <point x="728" y="980"/>
      <point x="869" y="980" type="curve" smooth="yes"/>
      <point x="983" y="980"/>
      <point x="1060" y="894"/>
    </contour>
    <contour>
      <point x="1115" y="990" type="line"/>
      <point x="1038" y="1099"/>
      <point x="943" y="1147"/>
      <point x="839" y="1147" type="curve" smooth="yes"/>
      <point x="582" y="1147"/>
      <point x="415" y="915"/>
      <point x="415" y="669" type="curve" smooth="yes"/>
      <point x="415" y="476"/>
      <point x="574" y="312"/>
      <point x="728" y="312" type="curve" smooth="yes"/>
      <point x="822" y="312"/>
      <point x="904" y="364"/>
      <point x="957" y="425" type="curve"/>
      <point x="988" y="423" type="line"/>
      <point x="991" y="349"/>
      <point x="1034" y="312"/>
      <point x="1084" y="312" type="curve" smooth="yes"/>
      <point x="1205" y="312"/>
      <point x="1618" y="442"/>
      <point x="1618" y="912" type="curve" smooth="yes"/>
      <point x="1618" y="1299"/>
      <point x="1257" y="1545"/>
      <point x="883" y="1545" type="curve" smooth="yes"/>
      <point x="438" y="1545"/>
      <point x="74" y="1206"/>
      <point x="74" y="759" type="curve" smooth="yes"/>
      <point x="74" y="302"/>
      <point x="444" y="-25"/>
      <point x="896" y="-25" type="curve" smooth="yes"/>
      <point x="1137" y="-25"/>
      <point x="1340" y="70"/>
      <point x="1486" y="245" type="curve"/>
      <point x="1338" y="245" type="line"/>
      <point x="1225" y="161"/>
      <point x="1077" y="106"/>
      <point x="914" y="106" type="curve" smooth="yes"/>
      <point x="531" y="106"/>
      <point x="261" y="352"/>
      <point x="261" y="759" type="curve" smooth="yes"/>
      <point x="261" y="1139"/>
      <point x="501" y="1415"/>
      <point x="876" y="1415" type="curve" smooth="yes"/>
      <point x="1220" y="1415"/>
      <point x="1472" y="1222"/>
      <point x="1472" y="846" type="curve" smooth="yes"/>
      <point x="1472" y="588"/>
      <point x="1346" y="470"/>
      <point x="1239" y="470" type="curve" smooth="yes"/>
      <point x="1199" y="470"/>
      <point x="1189" y="505"/>
      <point x="1189" y="550" type="curve" smooth="yes"/>
      <point x="1189" y="578"/>
      <point x="1195" y="601"/>
      <point x="1200" y="620" type="curve"/>
      <point x="1204" y="634" type="line"/>
      <point x="1203" y="633" type="line"/>
      <point x="1298" y="1123" type="line"/>
      <point x="1142" y="1123" type="line"/>
    </contour>
  </outline>
</glyph>
<glyph name="A" format="1">
  <advance width="834"/>
  <unicode hex="0041"/>
  <outline>
    <contour>
      <point x="420" y="1082" type="line"/>
      <point x="429" y="1082" type="line"/>
      <point x="545" y="377" type="line"/>
      <point x="313" y="377" type="line"/>
    </contour>
    <contour>
      <point x="-15" y="0" type="line"/>
      <point x="253" y="0" type="line"/>
      <point x="264" y="70"/>
      <point x="280" y="157"/>
      <point x="293" y="222" type="curve"/>
      <point x="564" y="222" type="line"/>
      <point x="606" y="0" type="line"/>
      <point x="865" y="0" type="line"/>
      <point x="586" y="1411" type="line"/>
      <point x="260" y="1411" type="line"/>
    </contour>
  </outline>
</glyph>
<glyph name="B" format="1">
  <advance width="912"/>
  <unicode hex="0042"/>
  <outline>
    <contour>
      <point x="97" y="0" type="line"/>
      <point x="507" y="0" type="line" smooth="yes"/>
      <point x="766" y="0"/>
      <point x="880" y="176"/>
      <point x="880" y="386" type="curve" smooth="yes"/>
      <point x="880" y="585"/>
      <point x="760" y="705"/>
      <point x="626" y="720" type="curve"/>
      <point x="626" y="727" type="line"/>
      <point x="757" y="761"/>
      <point x="847" y="862"/>
      <point x="847" y="1067" type="curve" smooth="yes"/>
      <point x="847" y="1279"/>
      <point x="729" y="1411"/>
      <point x="418" y="1411" type="curve" smooth="yes"/>
      <point x="97" y="1411" type="line"/>
    </contour>
    <contour>
      <point x="365" y="617" type="line"/>
      <point x="533" y="617"/>
      <point x="588" y="580"/>
      <point x="588" y="423" type="curve" smooth="yes"/>
      <point x="588" y="250"/>
      <point x="529" y="215"/>
      <point x="365" y="215" type="curve"/>
    </contour>
    <contour>
      <point x="365" y="1210" type="line"/>
      <point x="516" y="1210"/>
      <point x="575" y="1168"/>
      <point x="575" y="1005" type="curve" smooth="yes"/>
      <point x="575" y="835"/>
      <point x="502" y="798"/>
      <point x="365" y="798" type="curve"/>
    </contour>
  </outline>
</glyph>
<glyph name="C" format="1">
  <advance width="845"/>
  <unicode hex="0043"/>
  <outline>
    <contour>
      <point x="353" y="704" type="curve" smooth="yes"/>
      <point x="353" y="954"/>
      <point x="402" y="1212"/>
      <point x="494" y="1212" type="curve" smooth="yes"/>
      <point x="531" y="1212"/>
      <point x="574" y="1196"/>
      <point x="595" y="1055" type="curve"/>
      <point x="806" y="1055" type="line"/>
      <point x="807" y="1082" type="line"/>
      <point x="807" y="1368"/>
      <point x="612" y="1431"/>
      <point x="494" y="1431" type="curve" smooth="yes"/>
      <point x="216" y="1431"/>
      <point x="62" y="1166"/>
      <point x="62" y="705" type="curve" smooth="yes"/>
      <point x="62" y="243"/>
      <point x="216" y="-22"/>
      <point x="494" y="-22" type="curve" smooth="yes"/>
      <point x="612" y="-22"/>
      <point x="807" y="41"/>
      <point x="807" y="327" type="curve"/>
      <point x="806" y="354" type="line"/>
      <point x="595" y="354" type="line"/>
      <point x="574" y="213"/>
      <point x="531" y="197"/>
      <point x="494" y="197" type="curve" smooth="yes"/>
      <point x="402" y="197"/>
      <point x="353" y="459"/>
    </contour>
  </outline>
</glyph>
<glyph name="D" format="1">
  <advance width="952"/>
  <unicode hex="0044"/>
  <outline>
    <contour>
      <point x="380" y="1195" type="line"/>
      <point x="583" y="1195"/>
      <point x="608" y="1094"/>
      <point x="608" y="707" type="curve" smooth="yes"/>
      <point x="608" y="359"/>
      <point x="592" y="219"/>
      <point x="386" y="219" type="curve"/>
      <point x="380" y="318" type="line"/>
    </contour>
    <contour>
      <point x="98" y="0" type="line"/>
      <point x="380" y="0" type="line" smooth="yes"/>
      <point x="776" y="0"/>
      <point x="896" y="215"/>
      <point x="896" y="703" type="curve" smooth="yes"/>
      <point x="896" y="1226"/>
      <point x="767" y="1411"/>
      <point x="389" y="1411" type="curve" smooth="yes"/>
      <point x="98" y="1411" type="line"/>
    </contour>
  </outline>
</glyph>
<glyph name="E" format="1">
  <advance width="775"/>
  <unicode hex="0045"/>
  <outline>
    <contour>
      <point x="100" y="0" type="line"/>
      <point x="732" y="0" type="line"/>
      <point x="732" y="234" type="line"/>
      <point x="381" y="234" type="line"/>
      <point x="381" y="606" type="line"/>
      <point x="672" y="606" type="line"/>
      <point x="672" y="841" type="line"/>
      <point x="381" y="841" type="line"/>
      <point x="381" y="1182" type="line"/>
      <point x="715" y="1182" type="line"/>
      <point x="715" y="1411" type="line"/>
      <point x="100" y="1411" type="line"/>
    </contour>
  </outline>
</glyph>
<glyph name="F" format="1">
  <advance width="755"/>
  <unicode hex="0046"/>
  <outline>
    <contour>
      <point x="100" y="0" type="line"/>
      <point x="382" y="0" type="line"/>
      <point x="382" y="573" type="line"/>
      <point x="661" y="573" type="line"/>
      <point x="661" y="808" type="line"/>
      <point x="382" y="808" type="line"/>
      <point x="382" y="1188" type="line"/>
      <point x="725" y="1188" type="line"/>
      <point x="725" y="1411" type="line"/>
      <point x="100" y="1411" type="line"/>
    </contour>
  </outline>
</glyph>
<glyph name="G" format="1">
  <advance width="894"/>
  <unicode hex="0047"/>
  <outline>
    <contour>
      <point x="500" y="558" type="line"/>
      <point x="574" y="558" type="line"/>
      <point x="574" y="512"/>
      <point x="577" y="481"/>
      <point x="577" y="455" type="curve" smooth="yes"/>
      <point x="577" y="336"/>
      <point x="566" y="210"/>
      <point x="483" y="210" type="curve" smooth="yes"/>
      <point x="395" y="210"/>
      <point x="353" y="441"/>
      <point x="353" y="681" type="curve" smooth="yes"/>
      <point x="353" y="941"/>
      <point x="402" y="1212"/>
      <point x="494" y="1212" type="curve" smooth="yes"/>
      <point x="531" y="1212"/>
      <point x="574" y="1196"/>
      <point x="595" y="1055" type="curve"/>
      <point x="806" y="1055" type="line"/>
      <point x="807" y="1082" type="line"/>
      <point x="807" y="1368"/>
      <point x="612" y="1431"/>
      <point x="494" y="1431" type="curve" smooth="yes"/>
      <point x="216" y="1431"/>
      <point x="62" y="1166"/>
      <point x="62" y="705" type="curve" smooth="yes"/>
      <point x="62" y="149"/>
      <point x="246" y="-23"/>
      <point x="405" y="-23" type="curve" smooth="yes"/>
      <point x="525" y="-23"/>
      <point x="631" y="74"/>
      <point x="636" y="183" type="curve"/>
      <point x="655" y="0" type="line"/>
      <point x="831" y="0" type="line"/>
      <point x="831" y="745" type="line"/>
      <point x="500" y="745" type="line"/>
    </contour>
  </outline>
</glyph>
<glyph name="H" format="1">
  <advance width="970"/>
  <unicode hex="0048"/>
  <outline>
    <contour>
      <point x="93" y="0" type="line"/>
      <point x="373" y="0" type="line"/>
      <point x="373" y="582" type="line"/>
      <point x="617" y="582" type="line"/>
      <point x="617" y="0" type="line"/>
      <point x="897" y="0" type="line"/>
      <point x="897" y="1411" type="line"/>
      <point x="617" y="1411" type="line"/>
      <point x="617" y="845" type="line"/>
      <point x="373" y="845" type="line"/>
      <point x="373" y="1411" type="line"/>
      <point x="93" y="1411" type="line"/>
    </contour>
  </outline>
</glyph>
<glyph name="I" format="1">
  <advance width="505"/>
  <unicode hex="0049"/>
  <outline>
    <contour>
      <point x="118" y="0" type="line"/>
      <point x="398" y="0" type="line"/>
      <point x="398" y="1411" type="line"/>
      <point x="118" y="1411" type="line"/>
    </contour>
  </outline>
</glyph>
<glyph name="J" format="1">
  <advance width="731"/>
  <unicode hex="004A"/>
  <outline>
    <contour>
      <point x="648" y="1411" type="line"/>
      <point x="367" y="1411" type="line"/>
      <point x="367" y="411" type="line" smooth="yes"/>
      <point x="367" y="247"/>
      <point x="352" y="189"/>
      <point x="292" y="189" type="curve" smooth="yes"/>
      <point x="241" y="189"/>
      <point x="220" y="249"/>
      <point x="220" y="406" type="curve"/>
      <point x="13" y="406" type="line"/>
      <point x="11" y="379"/>
      <point x="10" y="354"/>
      <point x="10" y="330" type="curve" smooth="yes"/>
      <point x="10" y="77"/>
      <point x="128" y="-23"/>
      <point x="304" y="-23" type="curve" smooth="yes"/>
      <point x="482" y="-23"/>
      <point x="648" y="65"/>
      <point x="648" y="336" type="curve" smooth="yes"/>
    </contour>
  </outline>
</glyph>
<glyph name="K" format="1">
  <advance width="912"/>
  <unicode hex="004B"/>
  <outline>
    <contour>
      <point x="96" y="0" type="line"/>
      <point x="377" y="0" type="line"/>
      <point x="377" y="603" type="line"/>
      <point x="415" y="591" type="line"/>
      <point x="410" y="582" type="line"/>
      <point x="656" y="0" type="line"/>
      <point x="951" y="0" type="line"/>
      <point x="842" y="237"/>
      <point x="728" y="482"/>
      <point x="618" y="716" type="curve"/>
      <point x="907" y="1411" type="line"/>
      <point x="622" y="1411" type="line"/>
      <point x="555" y="1225"/>
      <point x="480" y="1023"/>
      <point x="413" y="838" type="curve"/>
      <point x="377" y="838" type="line"/>
      <point x="377" y="1411" type="line"/>
      <point x="96" y="1411" type="line"/>
    </contour>
  </outline>
</glyph>
<glyph name="L" format="1">
  <advance width="745"/>
  <unicode hex="004C"/>
  <outline>
    <contour>
      <point x="102" y="0" type="line"/>
      <point x="740" y="0" type="line"/>
      <point x="740" y="234" type="line"/>
      <point x="383" y="234" type="line"/>
      <point x="383" y="1411" type="line"/>
      <point x="102" y="1411" type="line"/>
    </contour>
  </outline>
</glyph>
<glyph name="M" format="1">
  <advance width="1206"/>
  <unicode hex="004D"/>
  <outline>
    <contour>
      <point x="42" y="0" type="line"/>
      <point x="300" y="0" type="line"/>
      <point x="313" y="300"/>
      <point x="329" y="632"/>
      <point x="342" y="929" type="curve"/>
      <point x="358" y="929" type="line"/>
      <point x="536" y="0" type="line"/>
      <point x="704" y="0" type="line"/>
      <point x="761" y="302"/>
      <point x="827" y="629"/>
      <point x="884" y="929" type="curve"/>
      <point x="901" y="929" type="line"/>
      <point x="901" y="0" type="line"/>
      <point x="1190" y="0" type="line"/>
      <point x="1161" y="479"/>
      <point x="1131" y="931"/>
      <point x="1101" y="1411" type="curve"/>
      <point x="782" y="1411" type="line"/>
      <point x="621" y="500" type="line"/>
      <point x="612" y="500" type="line"/>
      <point x="450" y="1411" type="line"/>
      <point x="132" y="1411" type="line"/>
    </contour>
  </outline>
</glyph>
<glyph name="N" format="1">
  <advance width="989"/>
  <unicode hex="004E"/>
  <outline>
    <contour>
      <point x="96" y="0" type="line"/>
      <point x="327" y="0" type="line"/>
      <point x="327" y="827" type="line"/>
      <point x="340" y="827" type="line"/>
      <point x="651" y="0" type="line"/>
      <point x="912" y="0" type="line"/>
      <point x="912" y="1411" type="line"/>
      <point x="681" y="1411" type="line"/>
      <point x="681" y="578" type="line"/>
      <point x="669" y="578" type="line"/>
      <point x="359" y="1411" type="line"/>
      <point x="96" y="1411" type="line"/>
    </contour>
  </outline>
</glyph>
<glyph name="O" format="1">
  <advance width="970"/>
  <unicode hex="004F"/>
  <outline>
    <contour>
      <point x="496" y="-23" type="curve" smooth="yes"/>
      <point x="789" y="-23"/>
      <point x="930" y="158"/>
      <point x="930" y="705" type="curve" smooth="yes"/>
      <point x="930" y="1254"/>
      <point x="789" y="1433"/>
      <point x="496" y="1433" type="curve" smooth="yes"/>
      <point x="203" y="1433"/>
      <point x="62" y="1254"/>
      <point x="62" y="705" type="curve" smooth="yes"/>
      <point x="62" y="158"/>
      <point x="203" y="-23"/>
    </contour>
    <contour>
      <point x="496" y="197" type="curve" smooth="yes"/>
      <point x="369" y="197"/>
      <point x="361" y="442"/>
      <point x="361" y="731" type="curve" smooth="yes"/>
      <point x="361" y="1015"/>
      <point x="375" y="1215"/>
      <point x="496" y="1215" type="curve" smooth="yes"/>
      <point x="617" y="1215"/>
      <point x="631" y="1015"/>
      <point x="631" y="731" type="curve" smooth="yes"/>
      <point x="631" y="442"/>
      <point x="623" y="197"/>
    </contour>
  </outline>
</glyph>
<glyph name="P" format="1">
  <advance width="880"/>
  <unicode hex="0050"/>
  <outline>
    <contour>
      <point x="373" y="1199" type="line"/>
      <point x="428" y="1199"/>
      <point x="473" y="1194"/>
      <point x="504" y="1177" type="curve"/>
      <point x="504" y="1178" type="line"/>
      <point x="565" y="1148"/>
      <point x="589" y="1082"/>
      <point x="589" y="966" type="curve" smooth="yes"/>
      <point x="589" y="767"/>
      <point x="520" y="725"/>
      <point x="373" y="725" type="curve"/>
    </contour>
    <contour>
      <point x="98" y="0" type="line"/>
      <point x="373" y="0" type="line"/>
      <point x="373" y="510" type="line"/>
      <point x="431" y="510" type="line" smooth="yes"/>
      <point x="715" y="510"/>
      <point x="858" y="633"/>
      <point x="858" y="960" type="curve" smooth="yes"/>
      <point x="858" y="1217"/>
      <point x="767" y="1342"/>
      <point x="602" y="1392" type="curve"/>
      <point x="603" y="1392" type="line"/>
      <point x="560" y="1404"/>
      <point x="504" y="1411"/>
      <point x="445" y="1411" type="curve" smooth="yes"/>
      <point x="98" y="1411" type="line"/>
    </contour>
  </outline>
</glyph>
<glyph name="Q" format="1">
  <advance width="970"/>
  <unicode hex="0051"/>
  <outline>
    <contour>
      <point x="717" y="-271" type="curve"/>
      <point x="834" y="-126" type="line"/>
      <point x="764" y="-91"/>
      <point x="705" y="-61"/>
      <point x="650" y="-1" type="curve"/>
      <point x="838" y="61"/>
      <point x="930" y="265"/>
      <point x="930" y="705" type="curve" smooth="yes"/>
      <point x="930" y="1254"/>
      <point x="789" y="1433"/>
      <point x="496" y="1433" type="curve" smooth="yes"/>
      <point x="203" y="1433"/>
      <point x="62" y="1254"/>
      <point x="62" y="705" type="curve" smooth="yes"/>
      <point x="62" y="218"/>
      <point x="173" y="21"/>
      <point x="404" y="-16" type="curve"/>
      <point x="489" y="-171"/>
      <point x="588" y="-251"/>
    </contour>
    <contour>
      <point x="496" y="197" type="curve" smooth="yes"/>
      <point x="369" y="197"/>
      <point x="361" y="442"/>
      <point x="361" y="731" type="curve" smooth="yes"/>
      <point x="361" y="1015"/>
      <point x="375" y="1215"/>
      <point x="496" y="1215" type="curve" smooth="yes"/>
      <point x="617" y="1215"/>
      <point x="631" y="1015"/>
      <point x="631" y="731" type="curve" smooth="yes"/>
      <point x="631" y="442"/>
      <point x="623" y="197"/>
    </contour>
  </outline>
</glyph>
<glyph name="R" format="1">
  <advance width="912"/>
  <unicode hex="0052"/>
  <outline>
    <contour>
      <point x="97" y="0" type="line"/>
      <point x="371" y="0" type="line"/>
      <point x="371" y="633" type="line"/>
      <point x="418" y="633" type="line" smooth="yes"/>
      <point x="549" y="633"/>
      <point x="607" y="521"/>
      <point x="607" y="358" type="curve" smooth="yes"/>
      <point x="607" y="0" type="line"/>
      <point x="876" y="0" type="line"/>
      <point x="876" y="370" type="line"/>
      <point x="873" y="597"/>
      <point x="800" y="682"/>
      <point x="643" y="719" type="curve"/>
      <point x="758" y="751"/>
      <point x="867" y="827"/>
      <point x="867" y="1018" type="curve" smooth="yes"/>
      <point x="867" y="1296"/>
      <point x="726" y="1411"/>
      <point x="447" y="1411" type="curve" smooth="yes"/>
      <point x="97" y="1411" type="line"/>
    </contour>
    <contour>
      <point x="371" y="1229" type="line"/>
      <point x="524" y="1229"/>
      <point x="593" y="1179"/>
      <point x="593" y="1002" type="curve" smooth="yes"/>
      <point x="593" y="823"/>
      <point x="521" y="774"/>
      <point x="371" y="774" type="curve"/>
    </contour>
  </outline>
</glyph>
<glyph name="S" format="1">
  <advance width="845"/>
  <unicode hex="0053"/>
  <outline>
    <contour>
      <point x="759" y="1219" type="line"/>
      <point x="725" y="1345"/>
      <point x="599" y="1433"/>
      <point x="440" y="1433" type="curve" smooth="yes"/>
      <point x="220" y="1433"/>
      <point x="57" y="1289"/>
      <point x="57" y="1064" type="curve" smooth="yes"/>
      <point x="57" y="721"/>
      <point x="521" y="589"/>
      <point x="521" y="360" type="curve" smooth="yes"/>
      <point x="521" y="262"/>
      <point x="458" y="201"/>
      <point x="382" y="201" type="curve" smooth="yes"/>
      <point x="318" y="201"/>
      <point x="245" y="244"/>
      <point x="193" y="348" type="curve"/>
      <point x="42" y="200" type="line"/>
      <point x="123" y="48"/>
      <point x="267" y="-22"/>
      <point x="408" y="-22" type="curve" smooth="yes"/>
      <point x="607" y="-22"/>
      <point x="800" y="119"/>
      <point x="800" y="369" type="curve" smooth="yes"/>
      <point x="800" y="745"/>
      <point x="333" y="864"/>
      <point x="333" y="1070" type="curve" smooth="yes"/>
      <point x="333" y="1145"/>
      <point x="370" y="1199"/>
      <point x="441" y="1199" type="curve" smooth="yes"/>
      <point x="491" y="1199"/>
      <point x="533" y="1176"/>
      <point x="557" y="1099" type="curve"/>
    </contour>
  </outline>
</glyph>
<glyph name="T" format="1">
  <advance width="775"/>
  <unicode hex="0054"/>
  <outline>
    <contour>
      <point x="256" y="0" type="line"/>
      <point x="536" y="0" type="line"/>
      <point x="536" y="1181" type="line"/>
      <point x="759" y="1181" type="line"/>
      <point x="759" y="1411" type="line"/>
      <point x="32" y="1411" type="line"/>
      <point x="32" y="1181" type="line"/>
      <point x="256" y="1181" type="line"/>
    </contour>
  </outline>
</glyph>
<glyph name="U" format="1">
  <advance width="952"/>
  <unicode hex="0055"/>
  <outline>
    <contour>
      <point x="876" y="1411" type="line"/>
      <point x="588" y="1411" type="line"/>
      <point x="588" y="363" type="line" smooth="yes"/>
      <point x="588" y="265"/>
      <point x="547" y="218"/>
      <point x="482" y="218" type="curve" smooth="yes"/>
      <point x="411" y="218"/>
      <point x="377" y="268"/>
      <point x="377" y="367" type="curve" smooth="yes"/>
      <point x="377" y="1411" type="line"/>
      <point x="96" y="1411" type="line"/>
      <point x="96" y="334" type="line" smooth="yes"/>
      <point x="96" y="115"/>
      <point x="229" y="-23"/>
      <point x="486" y="-23" type="curve" smooth="yes"/>
      <point x="744" y="-23"/>
      <point x="876" y="115"/>
      <point x="876" y="333" type="curve" smooth="yes"/>
    </contour>
  </outline>
</glyph>
<glyph name="V" format="1">
  <advance width="834"/>
  <unicode hex="0056"/>
  <outline>
    <contour>
      <point x="437" y="416" type="line"/>
      <point x="424" y="416" type="line"/>
      <point x="253" y="1411" type="line"/>
      <point x="-21" y="1411" type="line"/>
      <point x="294" y="0" type="line"/>
      <point x="570" y="0" type="line"/>
      <point x="872" y="1411" type="line"/>
      <point x="599" y="1411" type="line"/>
    </contour>
  </outline>
</glyph>
<glyph name="W" format="1">
  <advance width="1384"/>
  <unicode hex="0057"/>
  <outline>
    <contour>
      <point x="736" y="767" type="line"/>
      <point x="871" y="0" type="line"/>
      <point x="1147" y="0" type="line"/>
      <point x="1399" y="1411" type="line"/>
      <point x="1126" y="1411" type="line"/>
      <point x="1018" y="456" type="line"/>
      <point x="1008" y="456" type="line"/>
      <point x="870" y="1411" type="line"/>
      <point x="596" y="1411" type="line"/>
      <point x="459" y="456" type="line"/>
      <point x="448" y="456" type="line"/>
      <point x="340" y="1411" type="line"/>
      <point x="67" y="1411" type="line"/>
      <point x="319" y="0" type="line"/>
      <point x="595" y="0" type="line"/>
      <point x="726" y="767" type="line"/>
    </contour>
  </outline>
</glyph>
<glyph name="X" format="1">
  <advance width="834"/>
  <unicode hex="0058"/>
  <outline>
    <contour>
      <point x="-17" y="0" type="line"/>
      <point x="269" y="0" type="line"/>
      <point x="428" y="453" type="line"/>
      <point x="591" y="0" type="line"/>
      <point x="868" y="0" type="line"/>
      <point x="574" y="740" type="line"/>
      <point x="850" y="1411" type="line"/>
      <point x="566" y="1411" type="line"/>
      <point x="420" y="1020" type="line"/>
      <point x="283" y="1411" type="line"/>
      <point x="9" y="1411" type="line"/>
      <point x="97" y="1192"/>
      <point x="191" y="965"/>
      <point x="280" y="748" type="curve"/>
    </contour>
  </outline>
</glyph>
<glyph name="Y" format="1">
  <advance width="777"/>
  <unicode hex="0059"/>
  <outline>
    <contour>
      <point x="248" y="0" type="line"/>
      <point x="528" y="0" type="line"/>
      <point x="528" y="551" type="line"/>
      <point x="817" y="1411" type="line"/>
      <point x="535" y="1411" type="line"/>
      <point x="407" y="913" type="line"/>
      <point x="376" y="913" type="line"/>
      <point x="248" y="1411" type="line"/>
      <point x="-25" y="1411" type="line"/>
      <point x="248" y="552" type="line"/>
    </contour>
  </outline>
</glyph>
<glyph name="Z" format="1">
  <advance width="717"/>
  <unicode hex="005A"/>
  <outline>
    <contour>
      <point x="28" y="0" type="line"/>
      <point x="698" y="0" type="line"/>
      <point x="698" y="236" type="line"/>
      <point x="338" y="236" type="line"/>
      <point x="679" y="1220" type="line"/>
      <point x="702" y="1411" type="line"/>
      <point x="59" y="1411" type="line"/>
      <point x="59" y="1180" type="line"/>
      <point x="386" y="1180" type="line"/>
      <point x="48" y="199" type="line"/>
    </contour>
    <contour>
      <point x="680" y="1221" type="line"/>
      <point x="679" y="1214" type="line"/>
      <point x="679" y="1220" type="line"/>
    </contour>
  </outline>
</glyph>
<glyph name="bracketleft" format="1">
  <advance width="539"/>
  <unicode hex="005B"/>
  <outline>
    <contour>
      <point x="67" y="-283" type="line"/>
      <point x="471" y="-283" type="line"/>
      <point x="471" y="-193" type="line"/>
      <point x="280" y="-193" type="line"/>
      <point x="280" y="1432" type="line"/>
      <point x="468" y="1432" type="line"/>
      <point x="468" y="1522" type="line"/>
      <point x="67" y="1522" type="line"/>
    </contour>
  </outline>
</glyph>
<glyph name="backslash" format="1">
  <advance width="569"/>
  <unicode hex="005C"/>
  <outline>
    <contour>
      <point x="519" y="-25" type="line"/>
      <point x="717" y="-25" type="line"/>
      <point x="69" y="1545" type="line"/>
      <point x="-130" y="1545" type="line"/>
    </contour>
  </outline>
</glyph>
<glyph name="bracketright" format="1">
  <advance width="539"/>
  <unicode hex="005D"/>
  <outline>
    <contour>
      <point x="490" y="1522" type="line"/>
      <point x="90" y="1522" type="line"/>
      <point x="90" y="1432" type="line"/>
      <point x="278" y="1432" type="line"/>
      <point x="278" y="-193" type="line"/>
      <point x="86" y="-193" type="line"/>
      <point x="86" y="-283" type="line"/>
      <point x="490" y="-283" type="line"/>
    </contour>
  </outline>
</glyph>
<glyph name="asciicircum" format="1">
  <advance width="1229"/>
  <unicode hex="005E"/>
  <outline>
    <contour>
      <point x="635" y="1374" type="line"/>
      <point x="886" y="816" type="line"/>
      <point x="1070" y="816" type="line"/>
      <point x="730" y="1523" type="line"/>
      <point x="538" y="1523" type="line"/>
      <point x="198" y="816" type="line"/>
      <point x="382" y="816" type="line"/>
    </contour>
  </outline>
</glyph>
<glyph name="underscore" format="1">
  <advance width="1024"/>
  <unicode hex="005F"/>
  <outline>
    <contour>
      <point x="1054" y="-273" type="line"/>
      <point x="1054" y="-228" type="line"/>
      <point x="4" y="-228" type="line"/>
      <point x="4" y="-273" type="line"/>
    </contour>
  </outline>
</glyph>
<glyph name="grave" format="1">
  <advance width="445"/>
  <unicode hex="0060"/>
  <outline>
    <contour>
      <point x="176" y="1186" type="line"/>
      <point x="367" y="1186" type="line"/>
      <point x="318" y="1272"/>
      <point x="273" y="1353"/>
      <point x="221" y="1443" type="curve"/>
      <point x="-72" y="1443" type="line"/>
    </contour>
  </outline>
</glyph>
<glyph name="a" format="1">
  <advance width="853"/>
  <unicode hex="0061"/>
  <outline>
    <contour>
      <point x="177" y="732" type="line"/>
      <point x="246" y="777"/>
      <point x="327" y="806"/>
      <point x="395" y="806" type="curve" smooth="yes"/>
      <point x="470" y="806"/>
      <point x="529" y="764"/>
      <point x="529" y="655" type="curve" smooth="yes"/>
      <point x="529" y="530" type="line"/>
      <point x="465" y="579"/>
      <point x="401" y="600"/>
      <point x="341" y="600" type="curve" smooth="yes"/>
      <point x="142" y="600"/>
      <point x="54" y="453"/>
      <point x="54" y="302" type="curve" smooth="yes"/>
      <point x="54" y="142"/>
      <point x="153" y="-23"/>
      <point x="322" y="-23" type="curve" smooth="yes"/>
      <point x="404" y="-23"/>
      <point x="484" y="28"/>
      <point x="529" y="150" type="curve"/>
      <point x="529" y="149"/>
      <point x="529" y="25"/>
      <point x="529" y="0" type="curve"/>
      <point x="789" y="0" type="line"/>
      <point x="789" y="56"/>
      <point x="789" y="145"/>
      <point x="789" y="217" type="curve" smooth="yes"/>
      <point x="789" y="651" type="line" smooth="yes"/>
      <point x="789" y="875"/>
      <point x="623" y="1008"/>
      <point x="439" y="1008" type="curve" smooth="yes"/>
      <point x="322" y="1008"/>
      <point x="197" y="977"/>
      <point x="98" y="913" type="curve"/>
    </contour>
    <contour>
      <point x="529" y="222" type="curve"/>
      <point x="499" y="184"/>
      <point x="457" y="165"/>
      <point x="418" y="165" type="curve" smooth="yes"/>
      <point x="359" y="165"/>
      <point x="306" y="220"/>
      <point x="306" y="326" type="curve" smooth="yes"/>
      <point x="306" y="406"/>
      <point x="359" y="475"/>
      <point x="447" y="475" type="curve" smooth="yes"/>
      <point x="470" y="475"/>
      <point x="500" y="470"/>
      <point x="529" y="459" type="curve"/>
      <point x="529" y="459"/>
      <point x="529" y="301"/>
    </contour>
  </outline>
</glyph>
<glyph name="b" format="1">
  <advance width="844"/>
  <unicode hex="0062"/>
  <outline>
    <contour>
      <point x="426" y="207" type="curve" smooth="yes"/>
      <point x="347" y="207"/>
      <point x="325" y="299"/>
      <point x="325" y="494" type="curve" smooth="yes"/>
      <point x="325" y="683"/>
      <point x="347" y="780"/>
      <point x="426" y="780" type="curve" smooth="yes"/>
      <point x="506" y="780"/>
      <point x="526" y="713"/>
      <point x="526" y="494" type="curve" smooth="yes"/>
      <point x="526" y="280"/>
      <point x="503" y="207"/>
    </contour>
    <contour>
      <point x="75" y="0" type="line"/>
      <point x="326" y="0" type="line"/>
      <point x="326" y="181" type="line"/>
      <point x="363" y="43"/>
      <point x="423" y="-22"/>
      <point x="542" y="-22" type="curve" smooth="yes"/>
      <point x="689" y="-22"/>
      <point x="786" y="118"/>
      <point x="786" y="494" type="curve" smooth="yes"/>
      <point x="786" y="870"/>
      <point x="688" y="1008"/>
      <point x="543" y="1008" type="curve" smooth="yes"/>
      <point x="451" y="1008"/>
      <point x="373" y="946"/>
      <point x="324" y="803" type="curve"/>
      <point x="325" y="1411" type="line"/>
      <point x="75" y="1411" type="line"/>
    </contour>
  </outline>
</glyph>
<glyph name="c" format="1">
  <advance width="733"/>
  <unicode hex="0063"/>
  <outline>
    <contour>
      <point x="68" y="492" type="curve" smooth="yes"/>
      <point x="68" y="202"/>
      <point x="167" y="-18"/>
      <point x="425" y="-18" type="curve" smooth="yes"/>
      <point x="570" y="-18"/>
      <point x="650" y="79"/>
      <point x="678" y="192" type="curve"/>
      <point x="549" y="294" type="line"/>
      <point x="521" y="206"/>
      <point x="480" y="182"/>
      <point x="449" y="182" type="curve" smooth="yes"/>
      <point x="381" y="182"/>
      <point x="328" y="255"/>
      <point x="328" y="492" type="curve" smooth="yes"/>
      <point x="328" y="729"/>
      <point x="381" y="808"/>
      <point x="449" y="808" type="curve" smooth="yes"/>
      <point x="480" y="808"/>
      <point x="521" y="784"/>
      <point x="549" y="696" type="curve"/>
      <point x="678" y="788" type="line"/>
      <point x="660" y="896"/>
      <point x="570" y="1008"/>
      <point x="425" y="1008" type="curve" smooth="yes"/>
      <point x="167" y="1008"/>
      <point x="68" y="782"/>
    </contour>
  </outline>
</glyph>
<glyph name="d" format="1">
  <advance width="844"/>
  <unicode hex="0064"/>
  <outline>
    <contour>
      <point x="769" y="1411" type="line"/>
      <point x="519" y="1411" type="line"/>
      <point x="520" y="803" type="line"/>
      <point x="471" y="946"/>
      <point x="393" y="1008"/>
      <point x="301" y="1008" type="curve" smooth="yes"/>
      <point x="156" y="1008"/>
      <point x="58" y="870"/>
      <point x="58" y="494" type="curve" smooth="yes"/>
      <point x="58" y="118"/>
      <point x="155" y="-22"/>
      <point x="302" y="-22" type="curve" smooth="yes"/>
      <point x="421" y="-22"/>
      <point x="481" y="43"/>
      <point x="518" y="181" type="curve"/>
      <point x="518" y="0" type="line"/>
      <point x="769" y="0" type="line"/>
    </contour>
    <contour>
      <point x="418" y="207" type="curve" smooth="yes"/>
      <point x="341" y="207"/>
      <point x="318" y="280"/>
      <point x="318" y="494" type="curve" smooth="yes"/>
      <point x="318" y="713"/>
      <point x="338" y="780"/>
      <point x="418" y="780" type="curve" smooth="yes"/>
      <point x="497" y="780"/>
      <point x="519" y="683"/>
      <point x="519" y="494" type="curve" smooth="yes"/>
      <point x="519" y="299"/>
      <point x="497" y="207"/>
    </contour>
  </outline>
</glyph>
<glyph name="e" format="1">
  <advance width="824"/>
  <unicode hex="0065"/>
  <outline>
    <contour>
      <point x="779" y="438" type="line"/>
      <point x="779" y="541" type="line" smooth="yes"/>
      <point x="779" y="790"/>
      <point x="690" y="1008"/>
      <point x="426" y="1008" type="curve" smooth="yes"/>
      <point x="158" y="1008"/>
      <point x="57" y="766"/>
      <point x="57" y="492" type="curve" smooth="yes"/>
      <point x="57" y="221"/>
      <point x="135" y="-22"/>
      <point x="426" y="-22" type="curve" smooth="yes"/>
      <point x="612" y="-22"/>
      <point x="761" y="78"/>
      <point x="768" y="283" type="curve"/>
      <point x="692" y="281"/>
      <point x="610" y="276"/>
      <point x="530" y="274" type="curve"/>
      <point x="521" y="196"/>
      <point x="490" y="163"/>
      <point x="428" y="163" type="curve" smooth="yes"/>
      <point x="331" y="163"/>
      <point x="319" y="233"/>
      <point x="317" y="438" type="curve"/>
    </contour>
    <contour>
      <point x="314" y="576" type="line"/>
      <point x="314" y="584"/>
      <point x="314" y="592"/>
      <point x="314" y="600" type="curve" smooth="yes"/>
      <point x="314" y="768"/>
      <point x="335" y="824"/>
      <point x="423" y="824" type="curve" smooth="yes"/>
      <point x="518" y="824"/>
      <point x="536" y="763"/>
      <point x="536" y="576" type="curve"/>
    </contour>
  </outline>
</glyph>
<glyph name="f" format="1">
  <advance width="531"/>
  <unicode hex="0066"/>
  <outline>
    <contour>
      <point x="137" y="0" type="line"/>
      <point x="390" y="0" type="line"/>
      <point x="390" y="804" type="line"/>
      <point x="509" y="804" type="line"/>
      <point x="509" y="986" type="line"/>
      <point x="390" y="986" type="line"/>
      <point x="390" y="1083" type="line" smooth="yes"/>
      <point x="390" y="1165"/>
      <point x="428" y="1187"/>
      <point x="476" y="1187" type="curve" smooth="yes"/>
      <point x="486" y="1187"/>
      <point x="497" y="1186"/>
      <point x="509" y="1184" type="curve"/>
      <point x="509" y="1403" type="line"/>
      <point x="509" y="1403"/>
      <point x="447" y="1411"/>
      <point x="402" y="1411" type="curve" smooth="yes"/>
      <point x="220" y="1411"/>
      <point x="137" y="1288"/>
      <point x="137" y="1149" type="curve" smooth="yes"/>
      <point x="137" y="986" type="line"/>
      <point x="23" y="986" type="line"/>
      <point x="23" y="804" type="line"/>
      <point x="137" y="804" type="line"/>
    </contour>
  </outline>
</glyph>
<glyph name="g" format="1">
  <advance width="844"/>
  <unicode hex="0067"/>
  <outline>
    <contour>
      <point x="525" y="954" type="line"/>
      <point x="525" y="804" type="line"/>
      <point x="475" y="937"/>
      <point x="397" y="972"/>
      <point x="312" y="972" type="curve" smooth="yes"/>
      <point x="177" y="972"/>
      <point x="62" y="832"/>
      <point x="62" y="495" type="curve" smooth="yes"/>
      <point x="62" y="140"/>
      <point x="177" y="0"/>
      <point x="312" y="0" type="curve" smooth="yes"/>
      <point x="419" y="0"/>
      <point x="492" y="52"/>
      <point x="525" y="201" type="curve"/>
      <point x="525" y="-23" type="line" smooth="yes"/>
      <point x="525" y="-121"/>
      <point x="506" y="-161"/>
      <point x="435" y="-161" type="curve" smooth="yes"/>
      <point x="373" y="-161"/>
      <point x="349" y="-126"/>
      <point x="344" y="-74" type="curve"/>
      <point x="116" y="-74" type="line"/>
      <point x="144" y="-229"/>
      <point x="248" y="-311"/>
      <point x="445" y="-311" type="curve" smooth="yes"/>
      <point x="626" y="-311"/>
      <point x="772" y="-221"/>
      <point x="772" y="47" type="curve" smooth="yes"/>
      <point x="772" y="954" type="line"/>
    </contour>
    <contour>
      <point x="422" y="778" type="curve" smooth="yes"/>
      <point x="501" y="778"/>
      <point x="523" y="686"/>
      <point x="523" y="491" type="curve" smooth="yes"/>
      <point x="523" y="302"/>
      <point x="501" y="205"/>
      <point x="422" y="205" type="curve" smooth="yes"/>
      <point x="342" y="205"/>
      <point x="322" y="272"/>
      <point x="322" y="491" type="curve" smooth="yes"/>
      <point x="322" y="705"/>
      <point x="345" y="778"/>
    </contour>
  </outline>
</glyph>
<glyph name="h" format="1">
  <advance width="844"/>
  <unicode hex="0068"/>
  <outline>
    <contour>
      <point x="95" y="0" type="line"/>
      <point x="349" y="0" type="line"/>
      <point x="349" y="637" type="line" smooth="yes"/>
      <point x="349" y="695"/>
      <point x="368" y="764"/>
      <point x="434" y="764" type="curve" smooth="yes"/>
      <point x="491" y="764"/>
      <point x="527" y="737"/>
      <point x="527" y="627" type="curve" smooth="yes"/>
      <point x="527" y="0" type="line"/>
      <point x="778" y="0" type="line"/>
      <point x="778" y="729" type="line" smooth="yes"/>
      <point x="778" y="920"/>
      <point x="695" y="1008"/>
      <point x="568" y="1008" type="curve" smooth="yes"/>
      <point x="495" y="1008"/>
      <point x="413" y="982"/>
      <point x="342" y="803" type="curve"/>
      <point x="342" y="1411" type="line"/>
      <point x="95" y="1411" type="line"/>
    </contour>
  </outline>
</glyph>
<glyph name="i" format="1">
  <advance width="445"/>
  <unicode hex="0069"/>
  <outline>
    <contour>
      <point x="104" y="0" type="line"/>
      <point x="357" y="0" type="line"/>
      <point x="357" y="986" type="line"/>
      <point x="104" y="986" type="line"/>
    </contour>
    <contour>
      <point x="233" y="1194" type="curve" smooth="yes"/>
      <point x="322" y="1194"/>
      <point x="377" y="1270"/>
      <point x="377" y="1338" type="curve" smooth="yes"/>
      <point x="377" y="1434"/>
      <point x="292" y="1483"/>
      <point x="233" y="1483" type="curve" smooth="yes"/>
      <point x="174" y="1483"/>
      <point x="89" y="1434"/>
      <point x="89" y="1338" type="curve" smooth="yes"/>
      <point x="89" y="1270"/>
      <point x="142" y="1194"/>
    </contour>
  </outline>
</glyph>
<glyph name="j" format="1">
  <advance width="438"/>
  <unicode hex="006A"/>
  <outline>
    <contour>
      <point x="350" y="985" type="line"/>
      <point x="97" y="985" type="line"/>
      <point x="97" y="-25" type="line" smooth="yes"/>
      <point x="97" y="-128"/>
      <point x="71" y="-168"/>
      <point x="17" y="-175" type="curve"/>
      <point x="18" y="-213"/>
      <point x="19" y="-253"/>
      <point x="19" y="-381" type="curve"/>
      <point x="28" y="-382"/>
      <point x="37" y="-382"/>
      <point x="46" y="-382" type="curve" smooth="yes"/>
      <point x="249" y="-382"/>
      <point x="350" y="-283"/>
      <point x="350" y="-33" type="curve" smooth="yes"/>
    </contour>
    <contour>
      <point x="233" y="1194" type="curve" smooth="yes"/>
      <point x="322" y="1194"/>
      <point x="377" y="1270"/>
      <point x="377" y="1338" type="curve" smooth="yes"/>
      <point x="377" y="1434"/>
      <point x="292" y="1483"/>
      <point x="233" y="1483" type="curve" smooth="yes"/>
      <point x="174" y="1483"/>
      <point x="89" y="1434"/>
      <point x="89" y="1338" type="curve" smooth="yes"/>
      <point x="89" y="1270"/>
      <point x="142" y="1194"/>
    </contour>
  </outline>
</glyph>
<glyph name="k" format="1">
  <advance width="824"/>
  <unicode hex="006B"/>
  <outline>
    <contour>
      <point x="92" y="0" type="line"/>
      <point x="345" y="0" type="line"/>
      <point x="345" y="388" type="line"/>
      <point x="374" y="455" type="line"/>
      <point x="569" y="0" type="line"/>
      <point x="835" y="0" type="line"/>
      <point x="573" y="531" type="line"/>
      <point x="802" y="984" type="line"/>
      <point x="544" y="984" type="line"/>
      <point x="496" y="878"/>
      <point x="389" y="640"/>
      <point x="389" y="640" type="curve"/>
      <point x="345" y="539" type="line"/>
      <point x="345" y="1411" type="line"/>
      <point x="92" y="1411" type="line"/>
    </contour>
  </outline>
</glyph>
<glyph name="l" format="1">
  <advance width="445"/>
  <unicode hex="006C"/>
  <outline>
    <contour>
      <point x="104" y="0" type="line"/>
      <point x="356" y="0" type="line"/>
      <point x="356" y="1411" type="line"/>
      <point x="104" y="1411" type="line"/>
    </contour>
  </outline>
</glyph>
<glyph name="m" format="1">
  <advance width="1263"/>
  <unicode hex="006D"/>
  <outline>
    <contour>
      <point x="87" y="0" type="line"/>
      <point x="346" y="0" type="line"/>
      <point x="346" y="665" type="line" smooth="yes"/>
      <point x="346" y="738"/>
      <point x="395" y="774"/>
      <point x="433" y="774" type="curve" smooth="yes"/>
      <point x="488" y="774"/>
      <point x="524" y="733"/>
      <point x="524" y="635" type="curve" smooth="yes"/>
      <point x="524" y="0" type="line"/>
      <point x="780" y="0" type="line"/>
      <point x="780" y="665" type="line" smooth="yes"/>
      <point x="780" y="743"/>
      <point x="834" y="774"/>
      <point x="868" y="774" type="curve" smooth="yes"/>
      <point x="923" y="774"/>
      <point x="960" y="733"/>
      <point x="960" y="635" type="curve" smooth="yes"/>
      <point x="960" y="0" type="line"/>
      <point x="1217" y="0" type="line"/>
      <point x="1217" y="726" type="line" smooth="yes"/>
      <point x="1217" y="926"/>
      <point x="1141" y="1008"/>
      <point x="1017" y="1008" type="curve" smooth="yes"/>
      <point x="914" y="1008"/>
      <point x="828" y="926"/>
      <point x="789" y="825" type="curve"/>
      <point x="730" y="964"/>
      <point x="660" y="1008"/>
      <point x="576" y="1008" type="curve" smooth="yes"/>
      <point x="491" y="1008"/>
      <point x="413" y="975"/>
      <point x="335" y="803" type="curve"/>
      <point x="335" y="986" type="line"/>
      <point x="87" y="986" type="line"/>
    </contour>
  </outline>
</glyph>
<glyph name="o" format="1">
  <advance width="824"/>
  <unicode hex="006F"/>
  <outline>
    <contour>
      <point x="426" y="161" type="curve" smooth="yes"/>
      <point x="348" y="161"/>
      <point x="319" y="213"/>
      <point x="319" y="492" type="curve" smooth="yes"/>
      <point x="319" y="776"/>
      <point x="348" y="824"/>
      <point x="426" y="824" type="curve" smooth="yes"/>
      <point x="505" y="824"/>
      <point x="533" y="776"/>
      <point x="533" y="492" type="curve" smooth="yes"/>
      <point x="533" y="213"/>
      <point x="505" y="161"/>
    </contour>
    <contour>
      <point x="785" y="492" type="curve" smooth="yes"/>
      <point x="785" y="793"/>
      <point x="686" y="1008"/>
      <point x="426" y="1008" type="curve" smooth="yes"/>
      <point x="167" y="1008"/>
      <point x="66" y="793"/>
      <point x="66" y="492" type="curve" smooth="yes"/>
      <point x="66" y="194"/>
      <point x="167" y="-22"/>
      <point x="426" y="-22" type="curve" smooth="yes"/>
      <point x="685" y="-22"/>
      <point x="785" y="192"/>
    </contour>
  </outline>
</glyph>
<glyph name="p" format="1">
  <advance width="844"/>
  <unicode hex="0070"/>
  <outline>
    <contour>
      <point x="75" y="-376" type="line"/>
      <point x="325" y="-376" type="line"/>
      <point x="324" y="182" type="line"/>
      <point x="373" y="39"/>
      <point x="451" y="-23"/>
      <point x="543" y="-23" type="curve" smooth="yes"/>
      <point x="688" y="-23"/>
      <point x="786" y="115"/>
      <point x="786" y="491" type="curve" smooth="yes"/>
      <point x="786" y="867"/>
      <point x="689" y="1007"/>
      <point x="542" y="1007" type="curve" smooth="yes"/>
      <point x="423" y="1007"/>
      <point x="363" y="942"/>
      <point x="326" y="804" type="curve"/>
      <point x="326" y="985" type="line"/>
      <point x="75" y="985" type="line"/>
    </contour>
    <contour>
      <point x="426" y="778" type="curve" smooth="yes"/>
      <point x="503" y="778"/>
      <point x="526" y="705"/>
      <point x="526" y="491" type="curve" smooth="yes"/>
      <point x="526" y="272"/>
      <point x="506" y="205"/>
      <point x="426" y="205" type="curve" smooth="yes"/>
      <point x="347" y="205"/>
      <point x="325" y="302"/>
      <point x="325" y="491" type="curve" smooth="yes"/>
      <point x="325" y="686"/>
      <point x="347" y="778"/>
    </contour>
  </outline>
</glyph>
<glyph name="q" format="1">
  <advance width="844"/>
  <unicode hex="0071"/>
  <outline>
    <contour>
      <point x="418" y="778" type="curve" smooth="yes"/>
      <point x="497" y="778"/>
      <point x="519" y="686"/>
      <point x="519" y="491" type="curve" smooth="yes"/>
      <point x="519" y="302"/>
      <point x="497" y="205"/>
      <point x="418" y="205" type="curve" smooth="yes"/>
      <point x="338" y="205"/>
      <point x="318" y="272"/>
      <point x="318" y="491" type="curve" smooth="yes"/>
      <point x="318" y="705"/>
      <point x="341" y="778"/>
    </contour>
    <contour>
      <point x="769" y="985" type="line"/>
      <point x="518" y="985" type="line"/>
      <point x="518" y="804" type="line"/>
      <point x="481" y="942"/>
      <point x="421" y="1007"/>
      <point x="302" y="1007" type="curve" smooth="yes"/>
      <point x="155" y="1007"/>
      <point x="58" y="867"/>
      <point x="58" y="491" type="curve" smooth="yes"/>
      <point x="58" y="115"/>
      <point x="156" y="-23"/>
      <point x="301" y="-23" type="curve" smooth="yes"/>
      <point x="393" y="-23"/>
      <point x="471" y="39"/>
      <point x="520" y="182" type="curve"/>
      <point x="519" y="-376" type="line"/>
      <point x="769" y="-376" type="line"/>
    </contour>
  </outline>
</glyph>
<glyph name="r" format="1">
  <advance width="593"/>
  <unicode hex="0072"/>
  <outline>
    <contour>
      <point x="95" y="0" type="line"/>
      <point x="350" y="0" type="line"/>
      <point x="350" y="514" type="line" smooth="yes"/>
      <point x="350" y="662"/>
      <point x="399" y="755"/>
      <point x="523" y="755" type="curve" smooth="yes"/>
      <point x="544" y="755"/>
      <point x="578" y="750"/>
      <point x="578" y="750" type="curve"/>
      <point x="578" y="1008" type="line"/>
      <point x="476" y="1001"/>
      <point x="396" y="943"/>
      <point x="344" y="782" type="curve"/>
      <point x="344" y="986" type="line"/>
      <point x="95" y="986" type="line"/>
    </contour>
  </outline>
</glyph>
<glyph name="s" format="1">
  <advance width="711"/>
  <unicode hex="0073"/>
  <outline>
    <contour>
      <point x="63" y="165" type="line"/>
      <point x="102" y="55"/>
      <point x="206" y="-22"/>
      <point x="360" y="-22" type="curve" smooth="yes"/>
      <point x="543" y="-22"/>
      <point x="680" y="115"/>
      <point x="680" y="271" type="curve" smooth="yes"/>
      <point x="680" y="587"/>
      <point x="308" y="573"/>
      <point x="308" y="733" type="curve" smooth="yes"/>
      <point x="308" y="787"/>
      <point x="346" y="812"/>
      <point x="390" y="812" type="curve" smooth="yes"/>
      <point x="430" y="812"/>
      <point x="474" y="791"/>
      <point x="497" y="753" type="curve"/>
      <point x="549" y="783"/>
      <point x="589" y="807"/>
      <point x="644" y="838" type="curve"/>
      <point x="602" y="928"/>
      <point x="503" y="1008"/>
      <point x="377" y="1008" type="curve" smooth="yes"/>
      <point x="204" y="1008"/>
      <point x="65" y="890"/>
      <point x="65" y="704" type="curve" smooth="yes"/>
      <point x="65" y="430"/>
      <point x="437" y="416"/>
      <point x="437" y="263" type="curve" smooth="yes"/>
      <point x="437" y="207"/>
      <point x="395" y="167"/>
      <point x="345" y="167" type="curve" smooth="yes"/>
      <point x="304" y="167"/>
      <point x="256" y="194"/>
      <point x="221" y="261" type="curve"/>
    </contour>
  </outline>
</glyph>
<glyph name="t" format="1">
  <advance width="552"/>
  <unicode hex="0074"/>
  <outline>
    <contour>
      <point x="31" y="804" type="line"/>
      <point x="135" y="804" type="line"/>
      <point x="135" y="321" type="line" smooth="yes"/>
      <point x="135" y="46"/>
      <point x="158" y="-6"/>
      <point x="412" y="-6" type="curve" smooth="yes"/>
      <point x="458" y="-6"/>
      <point x="531" y="-3"/>
      <point x="531" y="-3" type="curve"/>
      <point x="531" y="181" type="line"/>
      <point x="442" y="181" type="line" smooth="yes"/>
      <point x="393" y="181"/>
      <point x="387" y="229"/>
      <point x="387" y="261" type="curve" smooth="yes"/>
      <point x="387" y="270"/>
      <point x="388" y="279"/>
      <point x="388" y="284" type="curve" smooth="yes"/>
      <point x="388" y="804" type="line"/>
      <point x="522" y="804" type="line"/>
      <point x="522" y="986" type="line"/>
      <point x="388" y="986" type="line"/>
      <point x="388" y="1314" type="line"/>
      <point x="182" y="1314" type="line"/>
      <point x="134" y="986" type="line"/>
      <point x="31" y="986" type="line"/>
    </contour>
  </outline>
</glyph>
<glyph name="u" format="1">
  <advance width="844"/>
  <unicode hex="0075"/>
  <outline>
    <contour>
      <point x="777" y="986" type="line"/>
      <point x="523" y="986" type="line"/>
      <point x="523" y="349" type="line" smooth="yes"/>
      <point x="523" y="292"/>
      <point x="503" y="222"/>
      <point x="438" y="222" type="curve" smooth="yes"/>
      <point x="382" y="222"/>
      <point x="344" y="249"/>
      <point x="344" y="357" type="curve" smooth="yes"/>
      <point x="344" y="986" type="line"/>
      <point x="95" y="986" type="line"/>
      <point x="95" y="257" type="line" smooth="yes"/>
      <point x="95" y="67"/>
      <point x="176" y="-22"/>
      <point x="303" y="-22" type="curve" smooth="yes"/>
      <point x="378" y="-22"/>
      <point x="478" y="28"/>
      <point x="534" y="192" type="curve"/>
      <point x="534" y="0" type="line"/>
      <point x="777" y="0" type="line"/>
    </contour>
  </outline>
</glyph>
<glyph name="v" format="1">
  <advance width="711"/>
  <unicode hex="0076"/>
  <outline>
    <contour>
      <point x="247" y="0" type="line"/>
      <point x="489" y="0" type="line"/>
      <point x="732" y="986" type="line"/>
      <point x="485" y="986" type="line"/>
      <point x="453" y="806"/>
      <point x="416" y="607"/>
      <point x="384" y="429" type="curve"/>
      <point x="347" y="429" type="line"/>
      <point x="241" y="986" type="line"/>
      <point x="3" y="986" type="line"/>
    </contour>
  </outline>
</glyph>
<glyph name="w" format="1">
  <advance width="1036"/>
  <unicode hex="0077"/>
  <outline>
    <contour>
      <point x="192" y="0" type="line"/>
      <point x="416" y="0" type="line"/>
      <point x="448" y="158"/>
      <point x="487" y="334"/>
      <point x="518" y="490" type="curve"/>
      <point x="555" y="490" type="line"/>
      <point x="658" y="0" type="line"/>
      <point x="883" y="0" type="line"/>
      <point x="948" y="345"/>
      <point x="1006" y="640"/>
      <point x="1071" y="986" type="curve"/>
      <point x="829" y="986" type="line"/>
      <point x="749" y="456" type="line"/>
      <point x="710" y="456" type="line"/>
      <point x="620" y="986" type="line"/>
      <point x="441" y="986" type="line"/>
      <point x="413" y="816"/>
      <point x="379" y="623"/>
      <point x="350" y="456" type="curve"/>
      <point x="311" y="456" type="line"/>
      <point x="233" y="986" type="line"/>
      <point x="1" y="986" type="line"/>
    </contour>
  </outline>
</glyph>
<glyph name="x" format="1">
  <advance width="763"/>
  <unicode hex="0078"/>
  <outline>
    <contour>
      <point x="17" y="0" type="line"/>
      <point x="280" y="0" type="line"/>
      <point x="399" y="318" type="line"/>
      <point x="520" y="0" type="line"/>
      <point x="770" y="0" type="line"/>
      <point x="694" y="165"/>
      <point x="614" y="339"/>
      <point x="537" y="503" type="curve"/>
      <point x="759" y="986" type="line"/>
      <point x="495" y="986" type="line"/>
      <point x="465" y="899"/>
      <point x="418" y="767"/>
      <point x="391" y="688" type="curve"/>
      <point x="291" y="986" type="line"/>
      <point x="34" y="986" type="line"/>
      <point x="252" y="506" type="line"/>
    </contour>
  </outline>
</glyph>
<glyph name="y" format="1">
  <advance width="668"/>
  <unicode hex="0079"/>
  <outline>
    <contour>
      <point x="156" y="243" type="line"/>
      <point x="155" y="243" type="line"/>
      <point x="180" y="134"/>
      <point x="200" y="51"/>
      <point x="209" y="-5" type="curve"/>
      <point x="198" y="-44"/>
      <point x="201" y="-57"/>
      <point x="191" y="-105" type="curve"/>
      <point x="162" y="-176"/>
      <point x="121" y="-224"/>
      <point x="68" y="-272" type="curve"/>
      <point x="188" y="-382" type="line"/>
      <point x="260" y="-325" type="line"/>
      <point x="359" y="-270"/>
      <point x="418" y="-194"/>
      <point x="487" y="74" type="curve"/>
      <point x="739" y="986" type="line"/>
      <point x="484" y="986" type="line"/>
      <point x="444" y="800"/>
      <point x="398" y="593"/>
      <point x="359" y="410" type="curve"/>
      <point x="321" y="410" type="line"/>
      <point x="234" y="986" type="line"/>
      <point x="-14" y="986" type="line"/>
    </contour>
  </outline>
</glyph>
<glyph name="z" format="1">
  <advance width="628"/>
  <unicode hex="007A"/>
  <outline>
    <contour>
      <point x="23" y="0" type="line"/>
      <point x="628" y="0" type="line"/>
      <point x="628" y="200" type="line"/>
      <point x="329" y="200" type="line"/>
      <point x="584" y="841" type="line"/>
      <point x="606" y="1017" type="line"/>
      <point x="614" y="1069" type="line"/>
      <point x="417" y="1042"/>
      <point x="250" y="1016"/>
      <point x="52" y="988" type="curve"/>
      <point x="52" y="792" type="line"/>
      <point x="307" y="792" type="line"/>
      <point x="51" y="144" type="line"/>
    </contour>
  </outline>
</glyph>
<glyph name="braceleft" format="1">
  <advance width="539"/>
  <unicode hex="007B"/>
  <outline>
    <contour>
      <point x="8" y="588" type="line"/>
      <point x="44" y="578"/>
      <point x="83" y="539"/>
      <point x="83" y="409" type="curve"/>
      <point x="83" y="-104" type="line"/>
      <point x="83" y="-238"/>
      <point x="126" y="-283"/>
      <point x="252" y="-283" type="curve"/>
      <point x="488" y="-283" type="line"/>
      <point x="488" y="-200" type="line"/>
      <point x="400" y="-200" type="line"/>
      <point x="327" y="-200"/>
      <point x="295" y="-172"/>
      <point x="295" y="-53" type="curve"/>
      <point x="295" y="412" type="line"/>
      <point x="295" y="575"/>
      <point x="216" y="588"/>
      <point x="149" y="593" type="curve"/>
      <point x="149" y="662" type="line"/>
      <point x="217" y="666"/>
      <point x="293" y="696"/>
      <point x="295" y="828" type="curve"/>
      <point x="295" y="1293" type="line"/>
      <point x="295" y="1411"/>
      <point x="327" y="1440"/>
      <point x="400" y="1440" type="curve"/>
      <point x="488" y="1440" type="line"/>
      <point x="488" y="1522" type="line"/>
      <point x="252" y="1522" type="line"/>
      <point x="124" y="1522"/>
      <point x="83" y="1477"/>
      <point x="83" y="1343" type="curve"/>
      <point x="83" y="834" type="line"/>
      <point x="83" y="716"/>
      <point x="44" y="681"/>
      <point x="8" y="672" type="curve"/>
    </contour>
  </outline>
</glyph>
<glyph name="bar" format="1">
  <advance width="455"/>
  <unicode hex="007C"/>
  <outline>
    <contour>
      <point x="134" y="1575" type="line"/>
      <point x="134" y="-546" type="line"/>
      <point x="334" y="-546" type="line"/>
      <point x="334" y="1575" type="line"/>
    </contour>
  </outline>
</glyph>
<glyph name="braceright" format="1">
  <advance width="539"/>
  <unicode hex="007D"/>
  <outline>
    <contour>
      <point x="551" y="672" type="line"/>
      <point x="515" y="683"/>
      <point x="475" y="721"/>
      <point x="475" y="834" type="curve"/>
      <point x="475" y="1343" type="line"/>
      <point x="475" y="1477"/>
      <point x="433" y="1522"/>
      <point x="306" y="1522" type="curve"/>
      <point x="69" y="1522" type="line"/>
      <point x="69" y="1440" type="line"/>
      <point x="159" y="1440" type="line"/>
      <point x="230" y="1440"/>
      <point x="263" y="1411"/>
      <point x="263" y="1293" type="curve"/>
      <point x="263" y="828" type="line"/>
      <point x="264" y="696"/>
      <point x="340" y="666"/>
      <point x="409" y="662" type="curve"/>
      <point x="409" y="593" type="line"/>
      <point x="341" y="588"/>
      <point x="263" y="575"/>
      <point x="263" y="412" type="curve"/>
      <point x="263" y="-53" type="line"/>
      <point x="263" y="-172"/>
      <point x="231" y="-200"/>
      <point x="159" y="-200" type="curve"/>
      <point x="69" y="-200" type="line"/>
      <point x="69" y="-283" type="line"/>
      <point x="306" y="-283" type="line"/>
      <point x="433" y="-283"/>
      <point x="475" y="-238"/>
      <point x="475" y="-104" type="curve"/>
      <point x="475" y="409" type="line"/>
      <point x="475" y="536"/>
      <point x="515" y="577"/>
      <point x="551" y="588" type="curve"/>
    </contour>
  </outline>
</glyph>
<glyph name="asciitilde" format="1">
  <advance width="1229"/>
  <unicode hex="007E"/>
  <outline>
    <contour>
      <point x="231" y="363" type="line"/>
      <point x="268" y="429"/>
      <point x="320" y="488"/>
      <point x="403" y="488" type="curve" smooth="yes"/>
      <point x="504" y="488"/>
      <point x="583" y="447"/>
      <point x="658" y="410" type="curve" smooth="yes"/>
      <point x="721" y="378"/>
      <point x="781" y="347"/>
      <point x="853" y="347" type="curve" smooth="yes"/>
      <point x="969" y="347"/>
      <point x="1033" y="422"/>
      <point x="1090" y="498" type="curve"/>
      <point x="1071" y="548"/>
      <point x="1059" y="575"/>
      <point x="1037" y="632" type="curve"/>
      <point x="989" y="561"/>
      <point x="940" y="504"/>
      <point x="858" y="504" type="curve" smooth="yes"/>
      <point x="801" y="504"/>
      <point x="727" y="538"/>
      <point x="651" y="572" type="curve" smooth="yes"/>
      <point x="572" y="608"/>
      <point x="487" y="646"/>
      <point x="414" y="646" type="curve" smooth="yes"/>
      <point x="290" y="646"/>
      <point x="221" y="569"/>
      <point x="179" y="494" type="curve"/>
    </contour>
  </outline>
</glyph>
<glyph name="exclamdown" format="1">
  <advance width="521"/>
  <unicode hex="00A1"/>
  <outline>
    <contour>
      <point x="143" y="-360" type="line"/>
      <point x="406" y="-360" type="line"/>
      <point x="406" y="-249"/>
      <point x="404" y="-123"/>
      <point x="404" y="-12" type="curve"/>
      <point x="341" y="591" type="line"/>
      <point x="338" y="626" type="line"/>
      <point x="200" y="626" type="line"/>
      <point x="140" y="38" type="line"/>
    </contour>
    <contour>
      <point x="355" y="834" type="curve"/>
      <point x="391" y="901"/>
      <point x="420" y="993"/>
      <point x="420" y="1095" type="curve" smooth="yes"/>
      <point x="420" y="1106"/>
      <point x="421" y="1097"/>
      <point x="420" y="1108" type="curve"/>
      <point x="372" y="1139"/>
      <point x="295" y="1164"/>
      <point x="208" y="1164" type="curve" smooth="yes"/>
      <point x="195" y="1164"/>
      <point x="181" y="1164"/>
      <point x="170" y="1163" type="curve"/>
      <point x="139" y="1132"/>
      <point x="115" y="1079"/>
      <point x="115" y="1017" type="curve" smooth="yes"/>
      <point x="115" y="1009"/>
      <point x="116" y="998"/>
      <point x="117" y="986" type="curve"/>
      <point x="117" y="941"/>
      <point x="125" y="899"/>
      <point x="139" y="860" type="curve"/>
      <point x="206" y="845"/>
      <point x="279" y="836"/>
    </contour>
    <contour>
      <point x="130" y="862" type="line"/>
      <point x="132" y="861"/>
      <point x="135" y="860"/>
      <point x="139" y="860" type="curve"/>
      <point x="145" y="843" type="line"/>
    </contour>
  </outline>
</glyph>
<glyph name="cent" format="1">
  <advance width="905"/>
  <unicode hex="00A2"/>
  <outline>
    <contour>
      <point x="610" y="1254" type="line"/>
      <point x="595" y="1182"/>
      <point x="575" y="1096"/>
      <point x="561" y="1029" type="curve"/>
      <point x="524" y="1031"/>
      <point x="495" y="1029"/>
      <point x="469" y="1027" type="curve"/>
      <point x="236" y="995"/>
      <point x="150" y="798"/>
      <point x="150" y="521" type="curve" smooth="yes"/>
      <point x="150" y="296"/>
      <point x="214" y="111"/>
      <point x="374" y="41" type="curve"/>
      <point x="309" y="-251" type="line"/>
      <point x="416" y="-251" type="line"/>
      <point x="470" y="16" type="line"/>
      <point x="500" y="12"/>
      <point x="521" y="10"/>
      <point x="533" y="10" type="curve" smooth="yes"/>
      <point x="552" y="10"/>
      <point x="574" y="12"/>
      <point x="599" y="16" type="curve"/>
      <point x="598" y="15" type="line"/>
      <point x="750" y="49"/>
      <point x="800" y="190"/>
      <point x="806" y="351" type="curve"/>
      <point x="753" y="343"/>
      <point x="689" y="335"/>
      <point x="628" y="334" type="curve"/>
      <point x="613" y="239"/>
      <point x="574" y="217"/>
      <point x="532" y="220" type="curve"/>
      <point x="453" y="234"/>
      <point x="419" y="298"/>
      <point x="419" y="519" type="curve" smooth="yes"/>
      <point x="419" y="761"/>
      <point x="467" y="823"/>
      <point x="559" y="823" type="curve" smooth="yes"/>
      <point x="618" y="823"/>
      <point x="643" y="785"/>
      <point x="669" y="703" type="curve"/>
      <point x="713" y="736"/>
      <point x="754" y="767"/>
      <point x="802" y="801" type="curve"/>
      <point x="784" y="884"/>
      <point x="738" y="958"/>
      <point x="659" y="1005" type="curve"/>
      <point x="718" y="1254" type="line"/>
    </contour>
  </outline>
</glyph>
<glyph name="sterling" format="1">
  <advance width="905"/>
  <unicode hex="00A3"/>
  <outline>
    <contour>
      <point x="45" y="691" type="line"/>
      <point x="195" y="691" type="line"/>
      <point x="197" y="637" type="line"/>
      <point x="201" y="601"/>
      <point x="206" y="556"/>
      <point x="204" y="503" type="curve" smooth="yes"/>
      <point x="197" y="365"/>
      <point x="137" y="239"/>
      <point x="29" y="185" type="curve"/>
      <point x="41" y="116"/>
      <point x="53" y="64"/>
      <point x="66" y="-10" type="curve"/>
      <point x="152" y="4"/>
      <point x="229" y="29"/>
      <point x="305" y="69" type="curve"/>
      <point x="404" y="27"/>
      <point x="499" y="-14"/>
      <point x="615" y="-22" type="curve"/>
      <point x="629" y="-22" type="line"/>
      <point x="649" y="-22"/>
      <point x="671" y="-22"/>
      <point x="691" y="-20" type="curve"/>
      <point x="780" y="-7"/>
      <point x="885" y="51"/>
      <point x="905" y="198" type="curve"/>
      <point x="908" y="218"/>
      <point x="907" y="233"/>
      <point x="905" y="249" type="curve"/>
      <point x="905" y="250" type="line"/>
      <point x="903" y="265"/>
      <point x="901" y="281"/>
      <point x="903" y="297" type="curve"/>
      <point x="880" y="295"/>
      <point x="858" y="293"/>
      <point x="833" y="292" type="curve"/>
      <point x="791" y="281"/>
      <point x="750" y="276"/>
      <point x="709" y="275" type="curve"/>
      <point x="688" y="187"/>
      <point x="636" y="175"/>
      <point x="593" y="177" type="curve"/>
      <point x="567" y="180"/>
      <point x="535" y="189"/>
      <point x="505" y="195" type="curve" smooth="yes"/>
      <point x="486" y="200"/>
      <point x="468" y="204"/>
      <point x="439" y="208" type="curve" smooth="yes"/>
      <point x="416" y="212"/>
      <point x="391" y="214"/>
      <point x="372" y="207" type="curve"/>
      <point x="358" y="221"/>
      <point x="353" y="226"/>
      <point x="349" y="232" type="curve"/>
      <point x="323" y="259" type="line"/>
      <point x="416" y="364"/>
      <point x="460" y="504"/>
      <point x="460" y="620" type="curve" smooth="yes"/>
      <point x="460" y="634"/>
      <point x="458" y="680"/>
      <point x="456" y="694" type="curve"/>
      <point x="665" y="694" type="line"/>
      <point x="665" y="794" type="line"/>
      <point x="445" y="794" type="line"/>
      <point x="439" y="857"/>
      <point x="419" y="920"/>
      <point x="400" y="982" type="curve" smooth="yes"/>
      <point x="378" y="1052"/>
      <point x="356" y="1124"/>
      <point x="356" y="1165" type="curve" smooth="yes"/>
      <point x="356" y="1252"/>
      <point x="400" y="1299"/>
      <point x="461" y="1307" type="curve"/>
      <point x="460" y="1306" type="line"/>
      <point x="484" y="1310"/>
      <point x="512" y="1306"/>
      <point x="537" y="1298" type="curve"/>
      <point x="535" y="1299" type="line"/>
      <point x="604" y="1277"/>
      <point x="633" y="1211"/>
      <point x="659" y="1143" type="curve"/>
      <point x="879" y="1218" type="line"/>
      <point x="874" y="1233" type="line"/>
      <point x="869" y="1249" type="line"/>
      <point x="824" y="1442"/>
      <point x="682" y="1546"/>
      <point x="496" y="1546" type="curve" smooth="yes"/>
      <point x="235" y="1546"/>
      <point x="88" y="1409"/>
      <point x="96" y="1114" type="curve"/>
      <point x="99" y="1031"/>
      <point x="142" y="896"/>
      <point x="178" y="790" type="curve"/>
      <point x="45" y="790" type="line"/>
    </contour>
    <contour>
      <point x="665" y="1130" type="curve"/>
      <point x="669" y="1117" type="line"/>
      <point x="642" y="1138" type="line"/>
      <point x="659" y="1143" type="line"/>
      <point x="660" y="1139"/>
      <point x="662" y="1134"/>
    </contour>
  </outline>
</glyph>
<glyph name="currency" format="1">
  <advance width="985"/>
  <unicode hex="00A4"/>
  <outline>
    <contour>
      <point x="796" y="775" type="curve" smooth="yes"/>
      <point x="796" y="606"/>
      <point x="678" y="458"/>
      <point x="509" y="458" type="curve" smooth="yes"/>
      <point x="338" y="458"/>
      <point x="220" y="606"/>
      <point x="220" y="775" type="curve" smooth="yes"/>
      <point x="220" y="942"/>
      <point x="338" y="1091"/>
      <point x="509" y="1091" type="curve" smooth="yes"/>
      <point x="678" y="1091"/>
      <point x="796" y="942"/>
    </contour>
    <contour>
      <point x="891" y="1246" type="line"/>
      <point x="780" y="1135" type="line"/>
      <point x="703" y="1191"/>
      <point x="608" y="1223"/>
      <point x="509" y="1223" type="curve" smooth="yes"/>
      <point x="408" y="1223"/>
      <point x="313" y="1191"/>
      <point x="236" y="1135" type="curve"/>
      <point x="125" y="1246" type="line"/>
      <point x="38" y="1155" type="line"/>
      <point x="144" y="1050" type="line"/>
      <point x="84" y="960"/>
      <point x="49" y="866"/>
      <point x="49" y="775" type="curve" smooth="yes"/>
      <point x="49" y="684"/>
      <point x="84" y="589"/>
      <point x="144" y="499" type="curve"/>
      <point x="38" y="394" type="line"/>
      <point x="69" y="363"/>
      <point x="91" y="338"/>
      <point x="125" y="303" type="curve"/>
      <point x="147" y="324"/>
      <point x="216" y="395"/>
      <point x="235" y="413" type="curve"/>
      <point x="312" y="359"/>
      <point x="407" y="325"/>
      <point x="509" y="325" type="curve" smooth="yes"/>
      <point x="609" y="325"/>
      <point x="704" y="359"/>
      <point x="781" y="413" type="curve"/>
      <point x="891" y="304" type="line"/>
      <point x="978" y="393" type="line"/>
      <point x="872" y="499" type="line"/>
      <point x="932" y="589"/>
      <point x="967" y="684"/>
      <point x="967" y="775" type="curve" smooth="yes"/>
      <point x="967" y="866"/>
      <point x="932" y="960"/>
      <point x="872" y="1050" type="curve"/>
      <point x="978" y="1155" type="line"/>
    </contour>
  </outline>
</glyph>
<glyph name="yen" format="1">
  <advance width="905"/>
  <unicode hex="00A5"/>
  <outline>
    <contour>
      <point x="328" y="0" type="line"/>
      <point x="605" y="0" type="line"/>
      <point x="605" y="193" type="line"/>
      <point x="605" y="311"/>
      <point x="606" y="459"/>
      <point x="610" y="575" type="curve"/>
      <point x="879" y="575" type="line"/>
      <point x="879" y="672" type="line"/>
      <point x="624" y="672" type="line"/>
      <point x="662" y="777" type="line"/>
      <point x="692" y="860" type="line"/>
      <point x="879" y="860" type="line"/>
      <point x="879" y="957" type="line"/>
      <point x="722" y="957" type="line"/>
      <point x="893" y="1523" type="line"/>
      <point x="604" y="1523" type="line"/>
      <point x="564" y="1351"/>
      <point x="522" y="1156"/>
      <point x="483" y="986" type="curve"/>
      <point x="448" y="986" type="line"/>
      <point x="324" y="1523" type="line"/>
      <point x="42" y="1523" type="line"/>
      <point x="214" y="957" type="line"/>
      <point x="55" y="957" type="line"/>
      <point x="55" y="860" type="line"/>
      <point x="243" y="860" type="line"/>
      <point x="249" y="840"/>
      <point x="264" y="797"/>
      <point x="272" y="777" type="curve"/>
      <point x="310" y="672" type="line"/>
      <point x="55" y="672" type="line"/>
      <point x="55" y="575" type="line"/>
      <point x="326" y="575" type="line"/>
      <point x="326" y="559"/>
      <point x="326" y="513"/>
      <point x="327" y="498" type="curve" smooth="yes"/>
      <point x="327" y="483"/>
      <point x="328" y="466"/>
      <point x="328" y="451" type="curve"/>
    </contour>
  </outline>
</glyph>
<glyph name="brokenbar" format="1">
  <advance width="455"/>
  <unicode hex="00A6"/>
  <outline>
    <contour>
      <point x="143" y="1411" type="line"/>
      <point x="143" y="711" type="line"/>
      <point x="327" y="711" type="line"/>
      <point x="327" y="1411" type="line"/>
    </contour>
    <contour>
      <point x="143" y="318" type="line"/>
      <point x="143" y="-382" type="line"/>
      <point x="327" y="-382" type="line"/>
      <point x="327" y="318" type="line"/>
    </contour>
  </outline>
</glyph>
<glyph name="section" format="1">
  <advance width="926"/>
  <unicode hex="00A7"/>
  <outline>
    <contour>
      <point x="829" y="1315" type="line"/>
      <point x="778" y="1440"/>
      <point x="642" y="1530"/>
      <point x="487" y="1530" type="curve" smooth="yes"/>
      <point x="316" y="1530"/>
      <point x="156" y="1437"/>
      <point x="153" y="1279" type="curve"/>
      <point x="154" y="1258"/>
      <point x="157" y="1239"/>
      <point x="163" y="1222" type="curve"/>
      <point x="176" y="1166"/>
      <point x="216" y="1072"/>
      <point x="266" y="998" type="curve"/>
      <point x="189" y="973"/>
      <point x="137" y="950"/>
      <point x="104" y="931" type="curve"/>
      <point x="61" y="863"/>
      <point x="45" y="805"/>
      <point x="45" y="726" type="curve" smooth="yes"/>
      <point x="45" y="546"/>
      <point x="222" y="400"/>
      <point x="376" y="273" type="curve" smooth="yes"/>
      <point x="500" y="171"/>
      <point x="609" y="81"/>
      <point x="609" y="-25" type="curve" smooth="yes"/>
      <point x="609" y="-118"/>
      <point x="562" y="-164"/>
      <point x="469" y="-164" type="curve" smooth="yes"/>
      <point x="370" y="-164"/>
      <point x="323" y="-113"/>
      <point x="300" y="-20" type="curve"/>
      <point x="237" y="-34"/>
      <point x="193" y="-45"/>
      <point x="124" y="-59" type="curve"/>
      <point x="150" y="-104"/>
      <point x="183" y="-153"/>
      <point x="217" y="-188" type="curve"/>
      <point x="259" y="-261"/>
      <point x="355" y="-303"/>
      <point x="458" y="-303" type="curve" smooth="yes"/>
      <point x="613" y="-303"/>
      <point x="766" y="-250"/>
      <point x="812" y="-107" type="curve" smooth="yes"/>
      <point x="812" y="-109" type="line" smooth="yes"/>
      <point x="816" y="-89"/>
      <point x="818" y="-65"/>
      <point x="818" y="-42" type="curve" smooth="yes"/>
      <point x="818" y="26"/>
      <point x="805" y="111"/>
      <point x="781" y="162" type="curve"/>
      <point x="764" y="186"/>
      <point x="746" y="206"/>
      <point x="681" y="263" type="curve"/>
      <point x="823" y="334"/>
      <point x="911" y="422"/>
      <point x="911" y="537" type="curve" smooth="yes"/>
      <point x="911" y="714"/>
      <point x="728" y="869"/>
      <point x="575" y="998" type="curve"/>
      <point x="458" y="1095"/>
      <point x="359" y="1179"/>
      <point x="359" y="1269" type="curve" smooth="yes"/>
      <point x="359" y="1324"/>
      <point x="393" y="1368"/>
      <point x="458" y="1382" type="curve"/>
      <point x="510" y="1387"/>
      <point x="540" y="1371"/>
      <point x="561" y="1333" type="curve"/>
      <point x="588" y="1326"/>
      <point x="610" y="1307"/>
      <point x="634" y="1274" type="curve"/>
    </contour>
    <contour>
      <point x="711" y="510" type="curve" smooth="yes"/>
      <point x="711" y="433"/>
      <point x="663" y="382"/>
      <point x="588" y="377" type="curve"/>
      <point x="581" y="381"/>
      <point x="581" y="379"/>
      <point x="560" y="396" type="curve"/>
      <point x="560" y="395" type="line"/>
      <point x="546" y="404" type="line"/>
      <point x="498" y="443"/>
      <point x="467" y="473"/>
      <point x="418" y="523" type="curve"/>
      <point x="394" y="550" type="line"/>
      <point x="395" y="546" type="line"/>
      <point x="284" y="650"/>
      <point x="248" y="684"/>
      <point x="251" y="759" type="curve"/>
      <point x="251" y="824"/>
      <point x="284" y="863"/>
      <point x="342" y="877" type="curve"/>
      <point x="367" y="869" type="line"/>
      <point x="383" y="863" type="line"/>
      <point x="612" y="713"/>
      <point x="711" y="565"/>
    </contour>
    <contour>
      <point x="782" y="162" type="line"/>
      <point x="781" y="162" type="line"/>
      <point x="781" y="164" type="line"/>
    </contour>
  </outline>
</glyph>
<glyph name="copyright" format="1">
  <advance width="1638"/>
  <unicode hex="00A9"/>
  <outline>
    <contour>
      <point x="1086" y="608" type="line"/>
      <point x="1066" y="505"/>
      <point x="983" y="462"/>
      <point x="880" y="462" type="curve" smooth="yes"/>
      <point x="738" y="462"/>
      <point x="641" y="594"/>
      <point x="641" y="773" type="curve" smooth="yes"/>
      <point x="641" y="957"/>
      <point x="724" y="1075"/>
      <point x="875" y="1075" type="curve" smooth="yes"/>
      <point x="969" y="1075"/>
      <point x="1056" y="1040"/>
      <point x="1084" y="938" type="curve"/>
      <point x="1235" y="938" type="line"/>
      <point x="1190" y="1114"/>
      <point x="1048" y="1209"/>
      <point x="875" y="1209" type="curve" smooth="yes"/>
      <point x="610" y="1209"/>
      <point x="448" y="1021"/>
      <point x="448" y="768" type="curve" smooth="yes"/>
      <point x="448" y="521"/>
      <point x="618" y="328"/>
      <point x="880" y="328" type="curve" smooth="yes"/>
      <point x="1049" y="328"/>
      <point x="1201" y="423"/>
      <point x="1245" y="608" type="curve"/>
    </contour>
    <contour>
      <point x="22" y="761" type="curve" smooth="yes"/>
      <point x="22" y="259"/>
      <point x="418" y="-25"/>
      <point x="847" y="-25" type="curve" smooth="yes"/>
      <point x="1273" y="-25"/>
      <point x="1670" y="259"/>
      <point x="1670" y="761" type="curve" smooth="yes"/>
      <point x="1670" y="1261"/>
      <point x="1273" y="1545"/>
      <point x="847" y="1545" type="curve" smooth="yes"/>
      <point x="418" y="1545"/>
      <point x="22" y="1261"/>
    </contour>
    <contour>
      <point x="847" y="107" type="curve" smooth="yes"/>
      <point x="509" y="107"/>
      <point x="239" y="376"/>
      <point x="239" y="761" type="curve" smooth="yes"/>
      <point x="239" y="1148"/>
      <point x="509" y="1414"/>
      <point x="847" y="1414" type="curve" smooth="yes"/>
      <point x="1175" y="1414"/>
      <point x="1453" y="1148"/>
      <point x="1453" y="761" type="curve" smooth="yes"/>
      <point x="1453" y="376"/>
      <point x="1175" y="107"/>
    </contour>
  </outline>
</glyph>
<glyph name="ordfeminine" format="1">
  <advance width="506"/>
  <unicode hex="00AA"/>
  <outline>
    <contour>
      <point x="121" y="1429" type="curve" smooth="yes"/>
      <point x="143" y="1430"/>
      <point x="169" y="1432"/>
      <point x="190" y="1432" type="curve"/>
      <point x="211" y="1447"/>
      <point x="241" y="1457"/>
      <point x="270" y="1451" type="curve"/>
      <point x="315" y="1438"/>
      <point x="341" y="1399"/>
      <point x="341" y="1350" type="curve"/>
      <point x="341" y="1267" type="line"/>
      <point x="288" y="1294"/>
      <point x="243" y="1305"/>
      <point x="201" y="1301" type="curve" smooth="yes"/>
      <point x="180" y="1299"/>
      <point x="163" y="1295"/>
      <point x="149" y="1288" type="curve"/>
      <point x="72" y="1257"/>
      <point x="30" y="1189"/>
      <point x="30" y="1106" type="curve" smooth="yes"/>
      <point x="30" y="1008"/>
      <point x="88" y="948"/>
      <point x="170" y="948" type="curve" smooth="yes"/>
      <point x="238" y="948"/>
      <point x="277" y="982"/>
      <point x="311" y="1034" type="curve"/>
      <point x="343" y="1027"/>
      <point x="344" y="999"/>
      <point x="346" y="967" type="curve"/>
      <point x="346" y="964" type="line"/>
      <point x="346" y="964"/>
      <point x="346" y="963"/>
      <point x="347" y="961" type="curve"/>
      <point x="495" y="961" type="line"/>
      <point x="494" y="1001"/>
      <point x="494" y="1039"/>
      <point x="494" y="1081" type="curve"/>
      <point x="494" y="1301" type="line"/>
      <point x="494" y="1443"/>
      <point x="426" y="1520"/>
      <point x="315" y="1542" type="curve"/>
      <point x="299" y="1546"/>
      <point x="290" y="1544"/>
      <point x="276" y="1545" type="curve" smooth="yes"/>
      <point x="267" y="1545"/>
      <point x="256" y="1546"/>
      <point x="249" y="1547" type="curve"/>
      <point x="179" y="1546"/>
      <point x="124" y="1535"/>
      <point x="78" y="1502" type="curve"/>
      <point x="74" y="1479"/>
      <point x="72" y="1452"/>
      <point x="72" y="1427" type="curve"/>
      <point x="88" y="1427"/>
      <point x="104" y="1428"/>
    </contour>
    <contour>
      <point x="50" y="1427" type="line"/>
      <point x="72" y="1427" type="line"/>
      <point x="72" y="1416"/>
      <point x="70" y="1405"/>
      <point x="72" y="1396" type="curve"/>
    </contour>
    <contour>
      <point x="341" y="1128" type="line"/>
      <point x="331" y="1079"/>
      <point x="298" y="1038"/>
      <point x="252" y="1038" type="curve" smooth="yes"/>
      <point x="212" y="1038"/>
      <point x="189" y="1069"/>
      <point x="182" y="1111" type="curve" smooth="yes"/>
      <point x="180" y="1123"/>
      <point x="180" y="1139"/>
      <point x="182" y="1154" type="curve" smooth="yes"/>
      <point x="191" y="1217"/>
      <point x="234" y="1250"/>
      <point x="280" y="1250" type="curve" smooth="yes"/>
      <point x="291" y="1250"/>
      <point x="307" y="1245"/>
      <point x="328" y="1238" type="curve"/>
      <point x="337" y="1198"/>
      <point x="341" y="1164"/>
      <point x="341" y="1134" type="curve"/>
    </contour>
  </outline>
</glyph>
<glyph name="guillemotleft" format="1">
  <advance width="1000"/>
  <unicode hex="00AB"/>
  <outline>
    <contour>
      <point x="519" y="196" type="line"/>
      <point x="713" y="196" type="line"/>
      <point x="509" y="495" type="line"/>
      <point x="712" y="796" type="line"/>
      <point x="517" y="796" type="line"/>
      <point x="305" y="496" type="line"/>
    </contour>
  </outline>
</glyph>
<glyph name="logicalnot" format="1">
  <advance width="1229"/>
  <unicode hex="00AC"/>
  <outline>
    <contour>
      <point x="131" y="636" type="line"/>
      <point x="938" y="636" type="line"/>
      <point x="938" y="172" type="line"/>
      <point x="1139" y="172" type="line"/>
      <point x="1139" y="816" type="line"/>
      <point x="131" y="816" type="line"/>
    </contour>
  </outline>
</glyph>
<glyph name="uni00AD" format="1">
  <advance width="530"/>
  <unicode hex="00AD"/>
  <outline>
    <contour>
      <point x="483" y="589" type="line"/>
      <point x="65" y="589" type="line"/>
      <point x="65" y="365" type="line"/>
      <point x="483" y="365" type="line"/>
    </contour>
  </outline>
</glyph>
<glyph name="registered" format="1">
  <advance width="1638"/>
  <unicode hex="00AE"/>
  <outline>
    <contour>
      <point x="847" y="107" type="curve" smooth="yes"/>
      <point x="509" y="107"/>
      <point x="239" y="376"/>
      <point x="239" y="761" type="curve" smooth="yes"/>
      <point x="239" y="1148"/>
      <point x="509" y="1414"/>
      <point x="847" y="1414" type="curve" smooth="yes"/>
      <point x="1175" y="1414"/>
      <point x="1453" y="1148"/>
      <point x="1453" y="761" type="curve" smooth="yes"/>
      <point x="1453" y="376"/>
      <point x="1175" y="107"/>
    </contour>
    <contour>
      <point x="22" y="761" type="curve" smooth="yes"/>
      <point x="22" y="259"/>
      <point x="418" y="-25"/>
      <point x="847" y="-25" type="curve" smooth="yes"/>
      <point x="1273" y="-25"/>
      <point x="1670" y="259"/>
      <point x="1670" y="761" type="curve" smooth="yes"/>
      <point x="1670" y="1260"/>
      <point x="1273" y="1545"/>
      <point x="847" y="1545" type="curve" smooth="yes"/>
      <point x="418" y="1545"/>
      <point x="22" y="1260"/>
    </contour>
    <contour>
      <point x="538" y="349" type="line"/>
      <point x="693" y="349" type="line"/>
      <point x="693" y="721" type="line"/>
      <point x="807" y="721" type="line"/>
      <point x="1012" y="349" type="line"/>
      <point x="1155" y="349" type="line"/>
      <point x="1083" y="471"/>
      <point x="993" y="620"/>
      <point x="927" y="732" type="curve"/>
      <point x="1095" y="740"/>
      <point x="1199" y="795"/>
      <point x="1199" y="937" type="curve" smooth="yes"/>
      <point x="1199" y="1120"/>
      <point x="1070" y="1177"/>
      <point x="851" y="1177" type="curve"/>
      <point x="538" y="1177" type="line"/>
    </contour>
    <contour>
      <point x="693" y="1068" type="line"/>
      <point x="838" y="1068" type="line"/>
      <point x="915" y="1068"/>
      <point x="1029" y="1061"/>
      <point x="1029" y="944" type="curve" smooth="yes"/>
      <point x="1029" y="824"/>
      <point x="976" y="800"/>
      <point x="880" y="800" type="curve"/>
      <point x="693" y="800" type="line"/>
    </contour>
  </outline>
</glyph>
<glyph name="macron" format="1">
  <advance width="445"/>
  <unicode hex="00AF"/>
  <outline>
    <contour>
      <point x="-111" y="1252" type="line"/>
      <point x="572" y="1252" type="line"/>
      <point x="572" y="1360" type="line"/>
      <point x="-111" y="1360" type="line"/>
    </contour>
  </outline>
</glyph>
<glyph name="degree" format="1">
  <advance width="819"/>
  <unicode hex="00B0"/>
  <outline>
    <contour>
      <point x="232" y="1267" type="curve" smooth="yes"/>
      <point x="232" y="1381"/>
      <point x="307" y="1480"/>
      <point x="424" y="1480" type="curve" smooth="yes"/>
      <point x="539" y="1480"/>
      <point x="615" y="1381"/>
      <point x="615" y="1267" type="curve" smooth="yes"/>
      <point x="615" y="1151"/>
      <point x="539" y="1052"/>
      <point x="424" y="1052" type="curve" smooth="yes"/>
      <point x="307" y="1052"/>
      <point x="232" y="1151"/>
    </contour>
    <contour>
      <point x="134" y="1267" type="curve" smooth="yes"/>
      <point x="134" y="1111"/>
      <point x="261" y="986"/>
      <point x="424" y="986" type="curve" smooth="yes"/>
      <point x="585" y="986"/>
      <point x="712" y="1111"/>
      <point x="712" y="1267" type="curve" smooth="yes"/>
      <point x="712" y="1422"/>
      <point x="585" y="1546"/>
      <point x="424" y="1546" type="curve" smooth="yes"/>
      <point x="261" y="1546"/>
      <point x="134" y="1422"/>
    </contour>
  </outline>
</glyph>
<glyph name="plusminus" format="1">
  <advance width="1229"/>
  <unicode hex="00B1"/>
  <outline>
    <contour>
      <point x="534" y="306" type="line"/>
      <point x="734" y="306" type="line"/>
      <point x="734" y="560" type="line"/>
      <point x="1139" y="560" type="line"/>
      <point x="1139" y="741" type="line"/>
      <point x="734" y="741" type="line"/>
      <point x="734" y="990" type="line"/>
      <point x="534" y="990" type="line"/>
      <point x="534" y="741" type="line"/>
      <point x="131" y="741" type="line"/>
      <point x="131" y="560" type="line"/>
      <point x="534" y="560" type="line"/>
    </contour>
    <contour>
      <point x="131" y="0" type="line"/>
      <point x="1139" y="0" type="line"/>
      <point x="1139" y="180" type="line"/>
      <point x="131" y="180" type="line"/>
    </contour>
  </outline>
</glyph>
<glyph name="twosuperior" format="1">
  <advance width="590"/>
  <unicode hex="00B2"/>
  <outline>
    <contour>
      <point x="84" y="1368" type="line"/>
      <point x="129" y="1404"/>
      <point x="185" y="1438"/>
      <point x="247" y="1438" type="curve" smooth="yes"/>
      <point x="333" y="1438"/>
      <point x="372" y="1402"/>
      <point x="372" y="1313" type="curve" smooth="yes"/>
      <point x="372" y="1182"/>
      <point x="181" y="922"/>
      <point x="18" y="697" type="curve"/>
      <point x="18" y="653" type="line"/>
      <point x="576" y="653" type="line"/>
      <point x="576" y="773" type="line"/>
      <point x="290" y="773" type="line"/>
      <point x="372" y="907" type="line"/>
      <point x="458" y="1043"/>
      <point x="557" y="1201"/>
      <point x="557" y="1330" type="curve" smooth="yes"/>
      <point x="557" y="1484"/>
      <point x="427" y="1571"/>
      <point x="268" y="1571" type="curve" smooth="yes"/>
      <point x="170" y="1571"/>
      <point x="86" y="1538"/>
      <point x="14" y="1488" type="curve"/>
    </contour>
  </outline>
</glyph>
<glyph name="threesuperior" format="1">
  <advance width="590"/>
  <unicode hex="00B3"/>
  <outline>
    <contour>
      <point x="31" y="716" type="line"/>
      <point x="97" y="668"/>
      <point x="195" y="640"/>
      <point x="281" y="640" type="curve" smooth="yes"/>
      <point x="466" y="640"/>
      <point x="570" y="748"/>
      <point x="570" y="908" type="curve" smooth="yes"/>
      <point x="570" y="995"/>
      <point x="528" y="1067"/>
      <point x="419" y="1099" type="curve"/>
      <point x="419" y="1157" type="line"/>
      <point x="517" y="1189"/>
      <point x="557" y="1259"/>
      <point x="557" y="1336" type="curve" smooth="yes"/>
      <point x="557" y="1486"/>
      <point x="431" y="1571"/>
      <point x="278" y="1571" type="curve" smooth="yes"/>
      <point x="203" y="1571"/>
      <point x="120" y="1552"/>
      <point x="63" y="1517" type="curve"/>
      <point x="128" y="1411" type="line"/>
      <point x="164" y="1437"/>
      <point x="210" y="1456"/>
      <point x="253" y="1456" type="curve" smooth="yes"/>
      <point x="323" y="1456"/>
      <point x="385" y="1418"/>
      <point x="385" y="1315" type="curve" smooth="yes"/>
      <point x="385" y="1209"/>
      <point x="313" y="1177"/>
      <point x="235" y="1173" type="curve"/>
      <point x="235" y="1080" type="line"/>
      <point x="339" y="1076"/>
      <point x="385" y="1030"/>
      <point x="385" y="932" type="curve" smooth="yes"/>
      <point x="385" y="845"/>
      <point x="352" y="768"/>
      <point x="246" y="768" type="curve" smooth="yes"/>
      <point x="194" y="768"/>
      <point x="142" y="793"/>
      <point x="106" y="831" type="curve"/>
    </contour>
  </outline>
</glyph>
<glyph name="mu" format="1">
  <advance width="844"/>
  <unicode hex="00B5"/>
  <outline>
    <contour>
      <point x="93" y="-376" type="line"/>
      <point x="346" y="-376" type="line"/>
      <point x="346" y="-22" type="line"/>
      <point x="412" y="5"/>
      <point x="467" y="50"/>
      <point x="503" y="124" type="curve"/>
      <point x="523" y="78" type="line"/>
      <point x="534" y="78"/>
      <point x="530" y="79"/>
      <point x="530" y="81" type="curve"/>
      <point x="528" y="79" type="line"/>
      <point x="534" y="101" type="line"/>
      <point x="534" y="0" type="line"/>
      <point x="776" y="0" type="line"/>
      <point x="776" y="986" type="line"/>
      <point x="522" y="986" type="line"/>
      <point x="522" y="361" type="line"/>
      <point x="522" y="255"/>
      <point x="493" y="222"/>
      <point x="437" y="222" type="curve" smooth="yes"/>
      <point x="379" y="222"/>
      <point x="344" y="249"/>
      <point x="344" y="357" type="curve"/>
      <point x="344" y="986" type="line"/>
      <point x="93" y="986" type="line"/>
    </contour>
  </outline>
</glyph>
<glyph name="paragraph" format="1">
  <advance width="1270"/>
  <unicode hex="00B6"/>
  <outline>
    <contour>
      <point x="945" y="-305" type="line"/>
      <point x="1155" y="-305" type="line"/>
      <point x="1155" y="1522" type="line"/>
      <point x="573" y="1522" type="line"/>
      <point x="284" y="1522"/>
      <point x="110" y="1436"/>
      <point x="110" y="1166" type="curve" smooth="yes"/>
      <point x="110" y="967"/>
      <point x="227" y="821"/>
      <point x="546" y="821" type="curve"/>
      <point x="546" y="-305" type="line"/>
      <point x="757" y="-305" type="line"/>
      <point x="757" y="1396" type="line"/>
      <point x="945" y="1396" type="line"/>
    </contour>
  </outline>
</glyph>
<glyph name="periodcentered" format="1">
  <advance width="454"/>
  <unicode hex="00B7"/>
  <outline>
    <contour>
      <point x="87" y="488" type="curve" smooth="yes"/>
      <point x="87" y="412"/>
      <point x="152" y="352"/>
      <point x="235" y="352" type="curve" smooth="yes"/>
      <point x="317" y="352"/>
      <point x="383" y="412"/>
      <point x="383" y="488" type="curve" smooth="yes"/>
      <point x="383" y="563"/>
      <point x="317" y="625"/>
      <point x="235" y="625" type="curve" smooth="yes"/>
      <point x="152" y="625"/>
      <point x="87" y="563"/>
    </contour>
  </outline>
</glyph>
<glyph name="cedilla" format="1">
  <advance width="445"/>
  <unicode hex="00B8"/>
  <outline>
    <contour>
      <point x="-44" y="-456" type="line"/>
      <point x="31" y="-486"/>
      <point x="100" y="-500"/>
      <point x="180" y="-500" type="curve" smooth="yes"/>
      <point x="300" y="-500"/>
      <point x="430" y="-447"/>
      <point x="430" y="-319" type="curve" smooth="yes"/>
      <point x="430" y="-234"/>
      <point x="334" y="-189"/>
      <point x="247" y="-189" type="curve" smooth="yes"/>
      <point x="224" y="-189"/>
      <point x="203" y="-194"/>
      <point x="185" y="-200" type="curve"/>
      <point x="187" y="-159" type="line"/>
      <point x="177" y="-164" type="line"/>
      <point x="224" y="-64" type="line"/>
      <point x="156" y="-64" type="line"/>
      <point x="119" y="-123"/>
      <point x="92" y="-162"/>
      <point x="53" y="-224" type="curve"/>
      <point x="72" y="-240" type="line"/>
      <point x="87" y="-236" type="line"/>
      <point x="84" y="-237" type="line"/>
      <point x="108" y="-232"/>
      <point x="132" y="-225"/>
      <point x="157" y="-225" type="curve" smooth="yes"/>
      <point x="222" y="-225"/>
      <point x="272" y="-268"/>
      <point x="272" y="-343" type="curve" smooth="yes"/>
      <point x="272" y="-430"/>
      <point x="194" y="-451"/>
      <point x="136" y="-451" type="curve" smooth="yes"/>
      <point x="82" y="-451"/>
      <point x="27" y="-433"/>
      <point x="-25" y="-416" type="curve"/>
    </contour>
    <contour>
      <point x="-28" y="-416" type="line"/>
      <point x="-40" y="-412" type="line"/>
      <point x="-16" y="-394" type="line"/>
      <point x="-25" y="-416" type="line"/>
      <point x="-27" y="-415"/>
      <point x="-28" y="-415"/>
      <point x="-29" y="-415" type="curve"/>
    </contour>
    <contour>
      <point x="189" y="-141" type="line"/>
      <point x="207" y="-150" type="line"/>
      <point x="187" y="-159" type="line"/>
    </contour>
  </outline>
</glyph>
<glyph name="onesuperior" format="1">
  <advance width="590"/>
  <unicode hex="00B9"/>
  <outline>
    <contour>
      <point x="152" y="1356" type="line"/>
      <point x="235" y="1416" type="line"/>
      <point x="235" y="653" type="line"/>
      <point x="398" y="653" type="line"/>
      <point x="398" y="1558" type="line"/>
      <point x="279" y="1558" type="line"/>
      <point x="235" y="1525"/>
      <point x="197" y="1494"/>
      <point x="152" y="1461" type="curve"/>
    </contour>
  </outline>
</glyph>
<glyph name="ordmasculine" format="1">
  <advance width="489"/>
  <unicode hex="00BA"/>
  <outline>
    <contour>
      <point x="330" y="1250" type="curve" smooth="yes"/>
      <point x="330" y="1069"/>
      <point x="303" y="1044"/>
      <point x="252" y="1044" type="curve" smooth="yes"/>
      <point x="206" y="1044"/>
      <point x="174" y="1060"/>
      <point x="174" y="1245" type="curve" smooth="yes"/>
      <point x="174" y="1424"/>
      <point x="201" y="1451"/>
      <point x="252" y="1451" type="curve" smooth="yes"/>
      <point x="303" y="1451"/>
      <point x="330" y="1429"/>
    </contour>
    <contour>
      <point x="478" y="1249" type="curve" smooth="yes"/>
      <point x="478" y="1424"/>
      <point x="417" y="1546"/>
      <point x="253" y="1546" type="curve" smooth="yes"/>
      <point x="91" y="1546"/>
      <point x="27" y="1425"/>
      <point x="27" y="1249" type="curve" smooth="yes"/>
      <point x="27" y="1070"/>
      <point x="92" y="948"/>
      <point x="252" y="948" type="curve" smooth="yes"/>
      <point x="413" y="948"/>
      <point x="478" y="1069"/>
    </contour>
  </outline>
</glyph>
<glyph name="guillemotright" format="1">
  <advance width="1000"/>
  <unicode hex="00BB"/>
  <outline>
    <contour>
      <point x="111" y="196" type="line"/>
      <point x="294" y="196" type="line"/>
      <point x="369" y="301"/>
      <point x="432" y="391"/>
      <point x="508" y="496" type="curve"/>
      <point x="437" y="598"/>
      <point x="368" y="693"/>
      <point x="296" y="796" type="curve"/>
      <point x="113" y="796" type="line"/>
      <point x="318" y="496" type="line"/>
    </contour>
    <contour>
      <point x="540" y="196" type="line"/>
      <point x="722" y="196" type="line"/>
      <point x="798" y="301"/>
      <point x="861" y="391"/>
      <point x="937" y="496" type="curve"/>
      <point x="865" y="598"/>
      <point x="797" y="693"/>
      <point x="725" y="796" type="curve"/>
      <point x="542" y="796" type="line"/>
      <point x="747" y="496" type="line"/>
    </contour>
  </outline>
</glyph>
<glyph name="onequarter" format="1">
  <advance width="1477"/>
  <unicode hex="00BC"/>
  <outline>
    <contour>
      <point x="1134" y="640" type="line"/>
      <point x="1170" y="640" type="line"/>
      <point x="1170" y="255" type="line"/>
      <point x="956" y="255" type="line"/>
    </contour>
    <contour>
      <point x="1428" y="144" type="line"/>
      <point x="1428" y="255" type="line"/>
      <point x="1328" y="255" type="line"/>
      <point x="1328" y="904" type="line"/>
      <point x="1147" y="904" type="line"/>
      <point x="849" y="297" type="line"/>
      <point x="849" y="144" type="line"/>
      <point x="1170" y="144" type="line"/>
      <point x="1170" y="0" type="line"/>
      <point x="1328" y="0" type="line"/>
      <point x="1328" y="144" type="line"/>
    </contour>
    <contour>
      <point x="348" y="-21" type="line"/>
      <point x="675" y="523"/>
      <point x="975" y="1025"/>
      <point x="1302" y="1571" type="curve"/>
      <point x="1138" y="1571" type="line"/>
      <point x="240" y="-21" type="line"/>
    </contour>
    <contour>
      <point x="136" y="1357" type="line"/>
      <point x="217" y="1417" type="line"/>
      <point x="217" y="653" type="line"/>
      <point x="381" y="653" type="line"/>
      <point x="381" y="1558" type="line"/>
      <point x="263" y="1558" type="line"/>
      <point x="219" y="1525"/>
      <point x="181" y="1494"/>
      <point x="136" y="1461" type="curve"/>
    </contour>
  </outline>
</glyph>
<glyph name="onehalf" format="1">
  <advance width="1477"/>
  <unicode hex="00BD"/>
  <outline>
    <contour>
      <point x="247" y="-21" type="line"/>
      <point x="553" y="523"/>
      <point x="838" y="1025"/>
      <point x="1145" y="1571" type="curve"/>
      <point x="1038" y="1571" type="line"/>
      <point x="140" y="-21" type="line"/>
    </contour>
    <contour>
      <point x="136" y="1356" type="line"/>
      <point x="219" y="1416" type="line"/>
      <point x="219" y="653" type="line"/>
      <point x="381" y="653" type="line"/>
      <point x="381" y="1558" type="line"/>
      <point x="263" y="1558" type="line"/>
      <point x="219" y="1525"/>
      <point x="181" y="1494"/>
      <point x="136" y="1461" type="curve"/>
    </contour>
    <contour>
      <point x="934" y="714" type="line"/>
      <point x="978" y="748"/>
      <point x="1036" y="784"/>
      <point x="1096" y="784" type="curve" smooth="yes"/>
      <point x="1183" y="784"/>
      <point x="1222" y="750"/>
      <point x="1222" y="658" type="curve" smooth="yes"/>
      <point x="1222" y="529"/>
      <point x="1031" y="269"/>
      <point x="868" y="44" type="curve"/>
      <point x="868" y="0" type="line"/>
      <point x="1426" y="0" type="line"/>
      <point x="1426" y="120" type="line"/>
      <point x="1138" y="120" type="line"/>
      <point x="1220" y="250" type="line"/>
      <point x="1305" y="383"/>
      <point x="1407" y="548"/>
      <point x="1407" y="677" type="curve" smooth="yes"/>
      <point x="1407" y="830"/>
      <point x="1277" y="918"/>
      <point x="1118" y="918" type="curve" smooth="yes"/>
      <point x="1015" y="918"/>
      <point x="938" y="889"/>
      <point x="863" y="834" type="curve"/>
    </contour>
  </outline>
</glyph>
<glyph name="threequarters" format="1">
  <advance width="1477"/>
  <unicode hex="00BE"/>
  <outline>
    <contour>
      <point x="1135" y="640" type="line"/>
      <point x="1171" y="640" type="line"/>
      <point x="1171" y="255" type="line"/>
      <point x="958" y="255" type="line"/>
    </contour>
    <contour>
      <point x="32" y="716" type="line"/>
      <point x="98" y="668"/>
      <point x="197" y="640"/>
      <point x="283" y="640" type="curve" smooth="yes"/>
      <point x="467" y="640"/>
      <point x="572" y="748"/>
      <point x="572" y="908" type="curve" smooth="yes"/>
      <point x="572" y="995"/>
      <point x="530" y="1067"/>
      <point x="420" y="1099" type="curve"/>
      <point x="420" y="1157" type="line"/>
      <point x="518" y="1189"/>
      <point x="558" y="1259"/>
      <point x="558" y="1336" type="curve" smooth="yes"/>
      <point x="558" y="1486"/>
      <point x="432" y="1571"/>
      <point x="280" y="1571" type="curve" smooth="yes"/>
      <point x="201" y="1571"/>
      <point x="124" y="1556"/>
      <point x="64" y="1517" type="curve"/>
      <point x="129" y="1411" type="line"/>
      <point x="165" y="1437"/>
      <point x="211" y="1456"/>
      <point x="254" y="1456" type="curve" smooth="yes"/>
      <point x="323" y="1456"/>
      <point x="387" y="1418"/>
      <point x="387" y="1315" type="curve" smooth="yes"/>
      <point x="387" y="1209"/>
      <point x="313" y="1177"/>
      <point x="236" y="1173" type="curve"/>
      <point x="236" y="1080" type="line"/>
      <point x="340" y="1076"/>
      <point x="387" y="1030"/>
      <point x="387" y="932" type="curve" smooth="yes"/>
      <point x="387" y="845"/>
      <point x="353" y="768"/>
      <point x="247" y="768" type="curve" smooth="yes"/>
      <point x="196" y="768"/>
      <point x="144" y="793"/>
      <point x="108" y="831" type="curve"/>
    </contour>
    <contour>
      <point x="1430" y="144" type="line"/>
      <point x="1430" y="255" type="line"/>
      <point x="1329" y="255" type="line"/>
      <point x="1329" y="904" type="line"/>
      <point x="1149" y="904" type="line"/>
      <point x="850" y="297" type="line"/>
      <point x="850" y="144" type="line"/>
      <point x="1171" y="144" type="line"/>
      <point x="1171" y="0" type="line"/>
      <point x="1329" y="0" type="line"/>
      <point x="1329" y="144" type="line"/>
    </contour>
    <contour>
      <point x="411" y="-21" type="line"/>
      <point x="716" y="523"/>
      <point x="1000" y="1025"/>
      <point x="1306" y="1571" type="curve"/>
      <point x="1201" y="1571" type="line"/>
      <point x="895" y="1027"/>
      <point x="610" y="524"/>
      <point x="303" y="-21" type="curve"/>
    </contour>
  </outline>
</glyph>
<glyph name="questiondown" format="1">
  <advance width="710"/>
  <unicode hex="00BF"/>
  <outline>
    <contour>
      <point x="529" y="-34" type="line"/>
      <point x="515" y="-123"/>
      <point x="479" y="-147"/>
      <point x="425" y="-147" type="curve" smooth="yes"/>
      <point x="371" y="-147"/>
      <point x="334" y="-115"/>
      <point x="310" y="-53" type="curve"/>
      <point x="302" y="-26"/>
      <point x="295" y="14"/>
      <point x="295" y="58" type="curve"/>
      <point x="293" y="76"/>
      <point x="292" y="97"/>
      <point x="292" y="115" type="curve" smooth="yes"/>
      <point x="292" y="184"/>
      <point x="308" y="236"/>
      <point x="346" y="251" type="curve"/>
      <point x="358" y="272"/>
      <point x="370" y="286"/>
      <point x="384" y="305" type="curve" smooth="yes"/>
      <point x="433" y="372"/>
      <point x="492" y="448"/>
      <point x="498" y="618" type="curve"/>
      <point x="251" y="618" type="line"/>
      <point x="251" y="574" type="line"/>
      <point x="252" y="575"/>
      <point x="257" y="569"/>
      <point x="269" y="554" type="curve"/>
      <point x="123" y="389"/>
      <point x="47" y="220"/>
      <point x="47" y="38" type="curve" smooth="yes"/>
      <point x="47" y="-180"/>
      <point x="160" y="-354"/>
      <point x="363" y="-378" type="curve"/>
      <point x="383" y="-381"/>
      <point x="401" y="-382"/>
      <point x="419" y="-382" type="curve" smooth="yes"/>
      <point x="562" y="-382"/>
      <point x="649" y="-291"/>
      <point x="690" y="-127" type="curve"/>
    </contour>
    <contour>
      <point x="226" y="1084" type="curve"/>
      <point x="229" y="988"/>
      <point x="260" y="889"/>
      <point x="305" y="830" type="curve"/>
      <point x="397" y="831"/>
      <point x="475" y="870"/>
      <point x="521" y="912" type="curve"/>
      <point x="518" y="1015"/>
      <point x="489" y="1102"/>
      <point x="441" y="1162" type="curve"/>
      <point x="352" y="1160"/>
      <point x="272" y="1126"/>
    </contour>
    <contour>
      <point x="448" y="1162" type="line"/>
      <point x="441" y="1162" type="line"/>
      <point x="432" y="1173" type="line"/>
    </contour>
  </outline>
</glyph>
<glyph name="Aacute" format="1">
  <advance width="878"/>
  <unicode hex="00C1"/>
  <outline>
    <contour>
      <point x="432" y="1102" type="line"/>
      <point x="471" y="1102" type="line"/>
      <point x="583" y="450" type="line"/>
      <point x="333" y="450" type="line"/>
    </contour>
    <contour>
      <point x="-22" y="0" type="line"/>
      <point x="267" y="0" type="line"/>
      <point x="280" y="76"/>
      <point x="297" y="169"/>
      <point x="310" y="240" type="curve"/>
      <point x="603" y="240" type="line"/>
      <point x="648" y="0" type="line"/>
      <point x="929" y="0" type="line"/>
      <point x="627" y="1522" type="line"/>
      <point x="276" y="1522" type="line"/>
    </contour>
    <contour>
      <point x="320" y="1679" type="line"/>
      <point x="510" y="1679" type="line"/>
      <point x="759" y="1937" type="line"/>
      <point x="466" y="1937" type="line"/>
    </contour>
  </outline>
</glyph>
<glyph name="Acircumflex" format="1">
  <advance width="878"/>
  <unicode hex="00C2"/>
  <outline>
    <contour>
      <point x="432" y="1102" type="line"/>
      <point x="471" y="1102" type="line"/>
      <point x="583" y="450" type="line"/>
      <point x="333" y="450" type="line"/>
    </contour>
    <contour>
      <point x="-22" y="0" type="line"/>
      <point x="267" y="0" type="line"/>
      <point x="280" y="76"/>
      <point x="297" y="169"/>
      <point x="310" y="240" type="curve"/>
      <point x="603" y="240" type="line"/>
      <point x="648" y="0" type="line"/>
      <point x="929" y="0" type="line"/>
      <point x="627" y="1522" type="line"/>
      <point x="276" y="1522" type="line"/>
    </contour>
    <contour>
      <point x="134" y="1679" type="line"/>
      <point x="344" y="1679" type="line"/>
      <point x="377" y="1737"/>
      <point x="423" y="1816"/>
      <point x="453" y="1871" type="curve"/>
      <point x="570" y="1679" type="line"/>
      <point x="774" y="1679" type="line"/>
      <point x="599" y="1937" type="line"/>
      <point x="309" y="1937" type="line"/>
    </contour>
  </outline>
</glyph>
<glyph name="Atilde" format="1">
  <advance width="878"/>
  <unicode hex="00C3"/>
  <outline>
    <contour>
      <point x="432" y="1102" type="line"/>
      <point x="471" y="1102" type="line"/>
      <point x="583" y="450" type="line"/>
      <point x="333" y="450" type="line"/>
    </contour>
    <contour>
      <point x="-22" y="0" type="line"/>
      <point x="267" y="0" type="line"/>
      <point x="280" y="76"/>
      <point x="297" y="169"/>
      <point x="310" y="240" type="curve"/>
      <point x="603" y="240" type="line"/>
      <point x="648" y="0" type="line"/>
      <point x="929" y="0" type="line"/>
      <point x="627" y="1522" type="line"/>
      <point x="276" y="1522" type="line"/>
    </contour>
    <contour>
      <point x="697" y="1911" type="line"/>
      <point x="689" y="1866"/>
      <point x="661" y="1820"/>
      <point x="607" y="1820" type="curve" smooth="yes"/>
      <point x="563" y="1820"/>
      <point x="521" y="1840"/>
      <point x="476" y="1861" type="curve" smooth="yes"/>
      <point x="430" y="1883"/>
      <point x="381" y="1907"/>
      <point x="315" y="1907" type="curve" smooth="yes"/>
      <point x="199" y="1907"/>
      <point x="127" y="1793"/>
      <point x="107" y="1690" type="curve"/>
      <point x="209" y="1690" type="line"/>
      <point x="219" y="1743"/>
      <point x="255" y="1782"/>
      <point x="312" y="1782" type="curve" smooth="yes"/>
      <point x="353" y="1782"/>
      <point x="398" y="1764"/>
      <point x="439" y="1745" type="curve"/>
      <point x="482" y="1727"/>
      <point x="528" y="1705"/>
      <point x="590" y="1705" type="curve" smooth="yes"/>
      <point x="715" y="1705"/>
      <point x="784" y="1802"/>
      <point x="802" y="1911" type="curve"/>
    </contour>
  </outline>
</glyph>
<glyph name="Adieresis" format="1">
  <advance width="878"/>
  <unicode hex="00C4"/>
  <outline>
    <contour>
      <point x="432" y="1102" type="line"/>
      <point x="471" y="1102" type="line"/>
      <point x="583" y="450" type="line"/>
      <point x="333" y="450" type="line"/>
    </contour>
    <contour>
      <point x="-22" y="0" type="line"/>
      <point x="267" y="0" type="line"/>
      <point x="280" y="76"/>
      <point x="297" y="169"/>
      <point x="310" y="240" type="curve"/>
      <point x="603" y="240" type="line"/>
      <point x="648" y="0" type="line"/>
      <point x="929" y="0" type="line"/>
      <point x="627" y="1522" type="line"/>
      <point x="276" y="1522" type="line"/>
    </contour>
    <contour>
      <point x="377" y="1754" type="curve"/>
      <point x="373" y="1819"/>
      <point x="347" y="1879"/>
      <point x="312" y="1915" type="curve"/>
      <point x="231" y="1913"/>
      <point x="153" y="1883"/>
      <point x="106" y="1849" type="curve"/>
      <point x="110" y="1786"/>
      <point x="137" y="1727"/>
      <point x="170" y="1688" type="curve"/>
      <point x="258" y="1689"/>
      <point x="332" y="1717"/>
    </contour>
    <contour>
      <point x="165" y="1688" type="line"/>
      <point x="170" y="1688" type="line"/>
      <point x="180" y="1679" type="line"/>
    </contour>
    <contour>
      <point x="740" y="1688" type="curve"/>
      <point x="776" y="1728"/>
      <point x="800" y="1782"/>
      <point x="802" y="1850" type="curve"/>
      <point x="757" y="1888"/>
      <point x="682" y="1913"/>
      <point x="596" y="1915" type="curve"/>
      <point x="563" y="1877"/>
      <point x="537" y="1817"/>
      <point x="533" y="1753" type="curve"/>
      <point x="579" y="1717"/>
      <point x="654" y="1690"/>
    </contour>
    <contour>
      <point x="525" y="1761" type="line"/>
      <point x="533" y="1753" type="line"/>
      <point x="533" y="1737" type="line"/>
    </contour>
  </outline>
</glyph>
<glyph name="Aring" format="1">
  <advance width="878"/>
  <unicode hex="00C5"/>
  <outline>
    <contour>
      <point x="432" y="1102" type="line"/>
      <point x="471" y="1102" type="line"/>
      <point x="583" y="450" type="line"/>
      <point x="333" y="450" type="line"/>
    </contour>
    <contour>
      <point x="-22" y="0" type="line"/>
      <point x="267" y="0" type="line"/>
      <point x="280" y="76"/>
      <point x="297" y="169"/>
      <point x="310" y="240" type="curve"/>
      <point x="603" y="240" type="line"/>
      <point x="648" y="0" type="line"/>
      <point x="929" y="0" type="line"/>
      <point x="627" y="1522" type="line"/>
      <point x="276" y="1522" type="line"/>
    </contour>
    <contour>
      <point x="325" y="1881" type="curve" smooth="yes"/>
      <point x="325" y="1957"/>
      <point x="383" y="2022"/>
      <point x="454" y="2022" type="curve" smooth="yes"/>
      <point x="525" y="2022"/>
      <point x="585" y="1957"/>
      <point x="585" y="1881" type="curve" smooth="yes"/>
      <point x="585" y="1801"/>
      <point x="525" y="1740"/>
      <point x="454" y="1740" type="curve" smooth="yes"/>
      <point x="382" y="1740"/>
      <point x="325" y="1801"/>
    </contour>
    <contour>
      <point x="240" y="1881" type="curve" smooth="yes"/>
      <point x="240" y="1769"/>
      <point x="335" y="1678"/>
      <point x="454" y="1678" type="curve" smooth="yes"/>
      <point x="571" y="1678"/>
      <point x="667" y="1769"/>
      <point x="667" y="1881" type="curve" smooth="yes"/>
      <point x="667" y="1992"/>
      <point x="571" y="2085"/>
      <point x="454" y="2085" type="curve" smooth="yes"/>
      <point x="336" y="2085"/>
      <point x="240" y="1993"/>
    </contour>
  </outline>
</glyph>
<glyph name="AE" format="1">
  <advance width="1337"/>
  <unicode hex="00C6"/>
  <outline>
    <contour>
      <point x="-45" y="0" type="line"/>
      <point x="238" y="0" type="line"/>
      <point x="316" y="267" type="line"/>
      <point x="658" y="267" type="line"/>
      <point x="658" y="0" type="line"/>
      <point x="1333" y="0" type="line"/>
      <point x="1333" y="252" type="line"/>
      <point x="944" y="252" type="line"/>
      <point x="944" y="654" type="line"/>
      <point x="1268" y="654" type="line"/>
      <point x="1268" y="907" type="line"/>
      <point x="944" y="907" type="line"/>
      <point x="944" y="1275" type="line"/>
      <point x="1316" y="1275" type="line"/>
      <point x="1316" y="1522" type="line"/>
      <point x="423" y="1522" type="line"/>
    </contour>
    <contour>
      <point x="656" y="473" type="line"/>
      <point x="370" y="473" type="line"/>
      <point x="602" y="1251" type="line"/>
      <point x="656" y="1251" type="line"/>
    </contour>
  </outline>
</glyph>
<glyph name="Ccedilla" format="1">
  <advance width="890"/>
  <unicode hex="00C7"/>
  <outline>
    <contour>
      <point x="681" y="1514" type="curve"/>
      <point x="638" y="1525"/>
      <point x="588" y="1532"/>
      <point x="540" y="1531" type="curve" smooth="yes"/>
      <point x="516" y="1531"/>
      <point x="488" y="1527"/>
      <point x="461" y="1523" type="curve" smooth="yes"/>
      <point x="172" y="1474"/>
      <point x="57" y="1227"/>
      <point x="57" y="762" type="curve" smooth="yes"/>
      <point x="57" y="303"/>
      <point x="183" y="43"/>
      <point x="492" y="-15" type="curve"/>
      <point x="357" y="-223" type="line"/>
      <point x="375" y="-240" type="line"/>
      <point x="383" y="-238"/>
      <point x="388" y="-237"/>
      <point x="393" y="-235" type="curve"/>
      <point x="414" y="-230"/>
      <point x="434" y="-225"/>
      <point x="461" y="-225" type="curve" smooth="yes"/>
      <point x="526" y="-225"/>
      <point x="576" y="-268"/>
      <point x="576" y="-343" type="curve" smooth="yes"/>
      <point x="576" y="-430"/>
      <point x="498" y="-451"/>
      <point x="438" y="-451" type="curve" smooth="yes"/>
      <point x="386" y="-451"/>
      <point x="332" y="-433"/>
      <point x="278" y="-416" type="curve"/>
      <point x="273" y="-428"/>
      <point x="269" y="-435"/>
      <point x="260" y="-457" type="curve"/>
      <point x="321" y="-481"/>
      <point x="380" y="-492"/>
      <point x="443" y="-496" type="curve" smooth="yes"/>
      <point x="456" y="-497"/>
      <point x="470" y="-498"/>
      <point x="484" y="-498" type="curve" smooth="yes"/>
      <point x="496" y="-498"/>
      <point x="509" y="-497"/>
      <point x="524" y="-495" type="curve" smooth="yes"/>
      <point x="628" y="-484"/>
      <point x="733" y="-430"/>
      <point x="733" y="-319" type="curve" smooth="yes"/>
      <point x="733" y="-252"/>
      <point x="670" y="-210"/>
      <point x="598" y="-198" type="curve"/>
      <point x="572" y="-193"/>
      <point x="545" y="-193"/>
      <point x="524" y="-195" type="curve"/>
      <point x="509" y="-195"/>
      <point x="476" y="-200"/>
      <point x="424" y="-208" type="curve"/>
      <point x="546" y="-18" type="line"/>
      <point x="587" y="-19"/>
      <point x="622" y="-16"/>
      <point x="653" y="-7" type="curve"/>
      <point x="739" y="12"/>
      <point x="794" y="48"/>
      <point x="836" y="108" type="curve"/>
      <point x="852" y="206"/>
      <point x="863" y="320"/>
      <point x="874" y="466" type="curve"/>
      <point x="803" y="452"/>
      <point x="732" y="447"/>
      <point x="663" y="447" type="curve" smooth="yes"/>
      <point x="649" y="447"/>
      <point x="644" y="448"/>
      <point x="629" y="448" type="curve"/>
      <point x="624" y="434"/>
      <point x="619" y="415"/>
      <point x="614" y="401" type="curve"/>
      <point x="614" y="402" type="line"/>
      <point x="597" y="343"/>
      <point x="580" y="288"/>
      <point x="542" y="284" type="curve"/>
      <point x="526" y="276"/>
      <point x="508" y="276"/>
      <point x="488" y="281" type="curve"/>
      <point x="439" y="302"/>
      <point x="405" y="352"/>
      <point x="398" y="445" type="curve"/>
      <point x="389" y="610"/>
      <point x="384" y="784"/>
      <point x="384" y="955" type="curve" smooth="yes"/>
      <point x="384" y="1075"/>
      <point x="420" y="1163"/>
      <point x="481" y="1213" type="curve"/>
      <point x="520" y="1226"/>
      <point x="557" y="1208"/>
      <point x="566" y="1157" type="curve"/>
      <point x="581" y="1145"/>
      <point x="606" y="1124"/>
      <point x="630" y="1096" type="curve"/>
      <point x="649" y="1097"/>
      <point x="669" y="1097"/>
      <point x="686" y="1097" type="curve" smooth="yes"/>
      <point x="751" y="1097"/>
      <point x="816" y="1091"/>
      <point x="881" y="1077" type="curve"/>
      <point x="868" y="1213"/>
      <point x="854" y="1322"/>
      <point x="836" y="1416" type="curve"/>
      <point x="794" y="1464"/>
      <point x="747" y="1495"/>
    </contour>
    <contour>
      <point x="276" y="-416" type="line"/>
      <point x="263" y="-412" type="line"/>
      <point x="288" y="-393" type="line"/>
      <point x="278" y="-416" type="line"/>
      <point x="277" y="-415"/>
      <point x="276" y="-415"/>
      <point x="275" y="-415" type="curve"/>
    </contour>
    <contour>
      <point x="840" y="1413" type="line"/>
      <point x="836" y="1416" type="line"/>
      <point x="835" y="1420"/>
      <point x="834" y="1424"/>
      <point x="834" y="1428" type="curve"/>
    </contour>
    <contour>
      <point x="551" y="289" type="line"/>
      <point x="548" y="287"/>
      <point x="545" y="285"/>
      <point x="542" y="284" type="curve"/>
    </contour>
  </outline>
</glyph>
<glyph name="Egrave" format="1">
  <advance width="816"/>
  <unicode hex="00C8"/>
  <outline>
    <contour>
      <point x="102" y="0" type="line"/>
      <point x="785" y="0" type="line"/>
      <point x="785" y="252" type="line"/>
      <point x="406" y="252" type="line"/>
      <point x="406" y="654" type="line"/>
      <point x="719" y="654" type="line"/>
      <point x="719" y="907" type="line"/>
      <point x="406" y="907" type="line"/>
      <point x="406" y="1275" type="line"/>
      <point x="767" y="1275" type="line"/>
      <point x="767" y="1522" type="line"/>
      <point x="102" y="1522" type="line"/>
    </contour>
    <contour>
      <point x="377" y="1679" type="line"/>
      <point x="569" y="1679" type="line"/>
      <point x="521" y="1763"/>
      <point x="472" y="1848"/>
      <point x="423" y="1937" type="curve"/>
      <point x="130" y="1937" type="line"/>
    </contour>
  </outline>
</glyph>
<glyph name="Eacute" format="1">
  <advance width="816"/>
  <unicode hex="00C9"/>
  <outline>
    <contour>
      <point x="102" y="0" type="line"/>
      <point x="785" y="0" type="line"/>
      <point x="785" y="252" type="line"/>
      <point x="406" y="252" type="line"/>
      <point x="406" y="654" type="line"/>
      <point x="719" y="654" type="line"/>
      <point x="719" y="907" type="line"/>
      <point x="406" y="907" type="line"/>
      <point x="406" y="1275" type="line"/>
      <point x="767" y="1275" type="line"/>
      <point x="767" y="1522" type="line"/>
      <point x="102" y="1522" type="line"/>
    </contour>
    <contour>
      <point x="301" y="1679" type="line"/>
      <point x="490" y="1679" type="line"/>
      <point x="739" y="1937" type="line"/>
      <point x="447" y="1937" type="line"/>
    </contour>
  </outline>
</glyph>
<glyph name="Ecircumflex" format="1">
  <advance width="816"/>
  <unicode hex="00CA"/>
  <outline>
    <contour>
      <point x="102" y="0" type="line"/>
      <point x="785" y="0" type="line"/>
      <point x="785" y="252" type="line"/>
      <point x="406" y="252" type="line"/>
      <point x="406" y="654" type="line"/>
      <point x="719" y="654" type="line"/>
      <point x="719" y="907" type="line"/>
      <point x="406" y="907" type="line"/>
      <point x="406" y="1275" type="line"/>
      <point x="767" y="1275" type="line"/>
      <point x="767" y="1522" type="line"/>
      <point x="102" y="1522" type="line"/>
    </contour>
    <contour>
      <point x="114" y="1679" type="line"/>
      <point x="316" y="1679" type="line"/>
      <point x="353" y="1737"/>
      <point x="400" y="1815"/>
      <point x="434" y="1870" type="curve"/>
      <point x="551" y="1679" type="line"/>
      <point x="756" y="1679" type="line"/>
      <point x="579" y="1937" type="line"/>
      <point x="291" y="1937" type="line"/>
    </contour>
  </outline>
</glyph>
<glyph name="Edieresis" format="1">
  <advance width="816"/>
  <unicode hex="00CB"/>
  <outline>
    <contour>
      <point x="102" y="0" type="line"/>
      <point x="785" y="0" type="line"/>
      <point x="785" y="252" type="line"/>
      <point x="406" y="252" type="line"/>
      <point x="406" y="654" type="line"/>
      <point x="719" y="654" type="line"/>
      <point x="719" y="907" type="line"/>
      <point x="406" y="907" type="line"/>
      <point x="406" y="1275" type="line"/>
      <point x="767" y="1275" type="line"/>
      <point x="767" y="1522" type="line"/>
      <point x="102" y="1522" type="line"/>
    </contour>
    <contour>
      <point x="293" y="1688" type="curve"/>
      <point x="330" y="1728"/>
      <point x="355" y="1782"/>
      <point x="357" y="1850" type="curve"/>
      <point x="313" y="1888"/>
      <point x="237" y="1913"/>
      <point x="151" y="1915" type="curve"/>
      <point x="118" y="1877"/>
      <point x="91" y="1818"/>
      <point x="86" y="1754" type="curve"/>
      <point x="133" y="1718"/>
      <point x="208" y="1689"/>
    </contour>
    <contour>
      <point x="79" y="1762" type="line"/>
      <point x="86" y="1754" type="line"/>
      <point x="86" y="1737" type="line"/>
    </contour>
    <contour>
      <point x="558" y="1688" type="curve"/>
      <point x="654" y="1683"/>
      <point x="732" y="1704"/>
      <point x="784" y="1737" type="curve"/>
      <point x="784" y="1750" type="line"/>
      <point x="784" y="1817"/>
      <point x="765" y="1876"/>
      <point x="738" y="1917" type="curve"/>
      <point x="730" y="1918"/>
      <point x="725" y="1917"/>
      <point x="717" y="1917" type="curve" smooth="yes"/>
      <point x="633" y="1917"/>
      <point x="559" y="1896"/>
      <point x="511" y="1867" type="curve"/>
      <point x="510" y="1796"/>
      <point x="531" y="1732"/>
    </contour>
    <contour>
      <point x="512" y="1887" type="line"/>
      <point x="511" y="1880"/>
      <point x="511" y="1874"/>
      <point x="511" y="1867" type="curve"/>
      <point x="508" y="1866"/>
      <point x="505" y="1864"/>
      <point x="502" y="1862" type="curve"/>
    </contour>
  </outline>
</glyph>
<glyph name="Igrave" format="1">
  <advance width="532"/>
  <unicode hex="00CC"/>
  <outline>
    <contour>
      <point x="126" y="0" type="line"/>
      <point x="429" y="0" type="line"/>
      <point x="429" y="1522" type="line"/>
      <point x="126" y="1522" type="line"/>
    </contour>
    <contour>
      <point x="221" y="1679" type="line"/>
      <point x="412" y="1679" type="line"/>
      <point x="364" y="1763"/>
      <point x="315" y="1848"/>
      <point x="266" y="1937" type="curve"/>
      <point x="-28" y="1937" type="line"/>
    </contour>
  </outline>
</glyph>
<glyph name="Iacute" format="1">
  <advance width="532"/>
  <unicode hex="00CD"/>
  <outline>
    <contour>
      <point x="121" y="0" type="line"/>
      <point x="424" y="0" type="line"/>
      <point x="424" y="1522" type="line"/>
      <point x="121" y="1522" type="line"/>
    </contour>
    <contour>
      <point x="139" y="1679" type="line"/>
      <point x="329" y="1679" type="line"/>
      <point x="578" y="1937" type="line"/>
      <point x="284" y="1937" type="line"/>
    </contour>
  </outline>
</glyph>
<glyph name="Icircumflex" format="1">
  <advance width="532"/>
  <unicode hex="00CE"/>
  <outline>
    <contour>
      <point x="123" y="0" type="line"/>
      <point x="426" y="0" type="line"/>
      <point x="426" y="1522" type="line"/>
      <point x="123" y="1522" type="line"/>
    </contour>
    <contour>
      <point x="-45" y="1679" type="line"/>
      <point x="118" y="1679" type="line"/>
      <point x="276" y="1865" type="line"/>
      <point x="391" y="1679" type="line"/>
      <point x="595" y="1679" type="line"/>
      <point x="420" y="1937" type="line"/>
      <point x="130" y="1937" type="line"/>
    </contour>
  </outline>
</glyph>
<glyph name="Idieresis" format="1">
  <advance width="532"/>
  <unicode hex="00CF"/>
  <outline>
    <contour>
      <point x="123" y="0" type="line"/>
      <point x="426" y="0" type="line"/>
      <point x="426" y="1522" type="line"/>
      <point x="123" y="1522" type="line"/>
    </contour>
    <contour>
      <point x="625" y="1867" type="curve"/>
      <point x="576" y="1895"/>
      <point x="503" y="1917"/>
      <point x="420" y="1917" type="curve" smooth="yes"/>
      <point x="399" y="1917" type="line"/>
      <point x="371" y="1876"/>
      <point x="353" y="1816"/>
      <point x="353" y="1750" type="curve" smooth="yes"/>
      <point x="353" y="1738"/>
      <point x="352" y="1749"/>
      <point x="353" y="1737" type="curve"/>
      <point x="405" y="1708"/>
      <point x="489" y="1684"/>
      <point x="579" y="1687" type="curve"/>
      <point x="605" y="1731"/>
      <point x="626" y="1797"/>
    </contour>
    <contour>
      <point x="198" y="1755" type="curve"/>
      <point x="194" y="1820"/>
      <point x="168" y="1879"/>
      <point x="133" y="1915" type="curve"/>
      <point x="52" y="1913"/>
      <point x="-26" y="1883"/>
      <point x="-73" y="1849" type="curve"/>
      <point x="-68" y="1786"/>
      <point x="-41" y="1727"/>
      <point x="-9" y="1688" type="curve"/>
      <point x="71" y="1689"/>
      <point x="151" y="1721"/>
    </contour>
    <contour>
      <point x="570" y="1674" type="line"/>
      <point x="579" y="1687" type="line"/>
      <point x="581" y="1687"/>
      <point x="583" y="1688"/>
      <point x="586" y="1688" type="curve"/>
    </contour>
    <contour>
      <point x="-14" y="1688" type="line"/>
      <point x="-9" y="1688" type="line"/>
      <point x="1" y="1679" type="line"/>
    </contour>
  </outline>
</glyph>
<glyph name="Eth" format="1">
  <advance width="1063"/>
  <unicode hex="00D0"/>
  <outline>
    <contour>
      <point x="587" y="889" type="line"/>
      <point x="408" y="889" type="line"/>
      <point x="408" y="1311" type="line"/>
      <point x="459" y="1311" type="line"/>
      <point x="656" y="1311"/>
      <point x="730" y="1091"/>
      <point x="730" y="775" type="curve" smooth="yes"/>
      <point x="730" y="458"/>
      <point x="656" y="238"/>
      <point x="459" y="238" type="curve"/>
      <point x="408" y="238" type="line"/>
      <point x="408" y="665" type="line"/>
      <point x="587" y="665" type="line"/>
    </contour>
    <contour>
      <point x="13" y="665" type="line"/>
      <point x="109" y="665" type="line"/>
      <point x="109" y="0" type="line"/>
      <point x="433" y="0" type="line"/>
      <point x="869" y="0"/>
      <point x="1046" y="321"/>
      <point x="1046" y="775" type="curve" smooth="yes"/>
      <point x="1046" y="1227"/>
      <point x="869" y="1548"/>
      <point x="433" y="1548" type="curve"/>
      <point x="109" y="1548" type="line"/>
      <point x="109" y="889" type="line"/>
      <point x="13" y="889" type="line"/>
    </contour>
  </outline>
</glyph>
<glyph name="Ntilde" format="1">
  <advance width="1041"/>
  <unicode hex="00D1"/>
  <outline>
    <contour>
      <point x="97" y="0" type="line"/>
      <point x="368" y="0" type="line"/>
      <point x="368" y="860" type="line"/>
      <point x="406" y="860" type="line"/>
      <point x="695" y="0" type="line"/>
      <point x="977" y="0" type="line"/>
      <point x="977" y="1522" type="line"/>
      <point x="707" y="1522" type="line"/>
      <point x="707" y="720" type="line"/>
      <point x="669" y="720" type="line"/>
      <point x="381" y="1522" type="line"/>
      <point x="97" y="1522" type="line"/>
    </contour>
    <contour>
      <point x="795" y="1911" type="line"/>
      <point x="784" y="1870"/>
      <point x="755" y="1820"/>
      <point x="706" y="1820" type="curve" smooth="yes"/>
      <point x="659" y="1820"/>
      <point x="618" y="1840"/>
      <point x="573" y="1862" type="curve" smooth="yes"/>
      <point x="527" y="1885"/>
      <point x="478" y="1907"/>
      <point x="412" y="1907" type="curve" smooth="yes"/>
      <point x="295" y="1907"/>
      <point x="224" y="1793"/>
      <point x="203" y="1690" type="curve"/>
      <point x="307" y="1690" type="line"/>
      <point x="317" y="1744"/>
      <point x="353" y="1782"/>
      <point x="408" y="1782" type="curve" smooth="yes"/>
      <point x="452" y="1782"/>
      <point x="495" y="1763"/>
      <point x="537" y="1745" type="curve" smooth="yes"/>
      <point x="580" y="1727"/>
      <point x="626" y="1705"/>
      <point x="688" y="1705" type="curve" smooth="yes"/>
      <point x="814" y="1705"/>
      <point x="883" y="1802"/>
      <point x="900" y="1911" type="curve"/>
    </contour>
  </outline>
</glyph>
<glyph name="Oacute" format="1">
  <advance width="1021"/>
  <unicode hex="00D3"/>
  <outline>
    <contour>
      <point x="528" y="1289" type="curve" smooth="yes"/>
      <point x="658" y="1289"/>
      <point x="674" y="1082"/>
      <point x="674" y="789" type="curve" smooth="yes"/>
      <point x="674" y="488"/>
      <point x="666" y="234"/>
      <point x="528" y="234" type="curve" smooth="yes"/>
      <point x="395" y="234"/>
      <point x="380" y="440"/>
      <point x="380" y="732" type="curve" smooth="yes"/>
      <point x="380" y="992"/>
      <point x="415" y="1117"/>
      <point x="453" y="1194" type="curve"/>
      <point x="456" y="1260"/>
      <point x="485" y="1289"/>
    </contour>
    <contour>
      <point x="997" y="761" type="curve" smooth="yes"/>
      <point x="997" y="1353"/>
      <point x="845" y="1545"/>
      <point x="528" y="1545" type="curve" smooth="yes"/>
      <point x="211" y="1545"/>
      <point x="61" y="1353"/>
      <point x="61" y="761" type="curve" smooth="yes"/>
      <point x="61" y="170"/>
      <point x="210" y="-25"/>
      <point x="528" y="-25" type="curve" smooth="yes"/>
      <point x="845" y="-25"/>
      <point x="997" y="170"/>
    </contour>
    <contour>
      <point x="394" y="1679" type="line"/>
      <point x="585" y="1679" type="line"/>
      <point x="833" y="1937" type="line"/>
      <point x="540" y="1937" type="line"/>
    </contour>
  </outline>
</glyph>
<glyph name="Otilde" format="1">
  <advance width="1021"/>
  <unicode hex="00D5"/>
  <outline>
    <contour>
      <point x="528" y="1289" type="curve" smooth="yes"/>
      <point x="658" y="1289"/>
      <point x="674" y="1082"/>
      <point x="674" y="789" type="curve" smooth="yes"/>
      <point x="674" y="488"/>
      <point x="666" y="234"/>
      <point x="528" y="234" type="curve" smooth="yes"/>
      <point x="395" y="234"/>
      <point x="380" y="440"/>
      <point x="380" y="732" type="curve" smooth="yes"/>
      <point x="380" y="992"/>
      <point x="415" y="1117"/>
      <point x="453" y="1194" type="curve"/>
      <point x="456" y="1260"/>
      <point x="485" y="1289"/>
    </contour>
    <contour>
      <point x="997" y="761" type="curve" smooth="yes"/>
      <point x="997" y="1353"/>
      <point x="845" y="1545"/>
      <point x="528" y="1545" type="curve" smooth="yes"/>
      <point x="211" y="1545"/>
      <point x="61" y="1353"/>
      <point x="61" y="761" type="curve" smooth="yes"/>
      <point x="61" y="170"/>
      <point x="210" y="-25"/>
      <point x="528" y="-25" type="curve" smooth="yes"/>
      <point x="845" y="-25"/>
      <point x="997" y="170"/>
    </contour>
    <contour>
      <point x="770" y="1911" type="line"/>
      <point x="761" y="1866"/>
      <point x="734" y="1820"/>
      <point x="682" y="1820" type="curve" smooth="yes"/>
      <point x="636" y="1820"/>
      <point x="594" y="1840"/>
      <point x="549" y="1862" type="curve" smooth="yes"/>
      <point x="504" y="1885"/>
      <point x="455" y="1907"/>
      <point x="389" y="1907" type="curve" smooth="yes"/>
      <point x="281" y="1907"/>
      <point x="205" y="1787"/>
      <point x="180" y="1690" type="curve"/>
      <point x="284" y="1690" type="line"/>
      <point x="296" y="1740"/>
      <point x="331" y="1782"/>
      <point x="386" y="1782" type="curve" smooth="yes"/>
      <point x="428" y="1782"/>
      <point x="473" y="1764"/>
      <point x="513" y="1745" type="curve"/>
      <point x="556" y="1727"/>
      <point x="603" y="1705"/>
      <point x="664" y="1705" type="curve" smooth="yes"/>
      <point x="790" y="1705"/>
      <point x="859" y="1802"/>
      <point x="876" y="1911" type="curve"/>
    </contour>
  </outline>
</glyph>
<glyph name="Odieresis" format="1">
  <advance width="1021"/>
  <unicode hex="00D6"/>
  <outline>
    <contour>
      <point x="528" y="1289" type="curve" smooth="yes"/>
      <point x="658" y="1289"/>
      <point x="674" y="1082"/>
      <point x="674" y="789" type="curve" smooth="yes"/>
      <point x="674" y="488"/>
      <point x="666" y="234"/>
      <point x="528" y="234" type="curve" smooth="yes"/>
      <point x="395" y="234"/>
      <point x="380" y="440"/>
      <point x="380" y="732" type="curve" smooth="yes"/>
      <point x="380" y="992"/>
      <point x="415" y="1117"/>
      <point x="453" y="1194" type="curve"/>
      <point x="456" y="1260"/>
      <point x="485" y="1289"/>
    </contour>
    <contour>
      <point x="997" y="761" type="curve" smooth="yes"/>
      <point x="997" y="1353"/>
      <point x="845" y="1545"/>
      <point x="528" y="1545" type="curve" smooth="yes"/>
      <point x="211" y="1545"/>
      <point x="61" y="1353"/>
      <point x="61" y="761" type="curve" smooth="yes"/>
      <point x="61" y="170"/>
      <point x="210" y="-25"/>
      <point x="528" y="-25" type="curve" smooth="yes"/>
      <point x="845" y="-25"/>
      <point x="997" y="170"/>
    </contour>
    <contour>
      <point x="386" y="1688" type="curve"/>
      <point x="420" y="1727"/>
      <point x="447" y="1785"/>
      <point x="451" y="1849" type="curve"/>
      <point x="404" y="1886"/>
      <point x="328" y="1913"/>
      <point x="244" y="1915" type="curve"/>
      <point x="211" y="1877"/>
      <point x="185" y="1817"/>
      <point x="180" y="1753" type="curve"/>
      <point x="225" y="1717"/>
      <point x="302" y="1690"/>
    </contour>
    <contour>
      <point x="173" y="1761" type="line"/>
      <point x="180" y="1753" type="line"/>
      <point x="180" y="1737" type="line"/>
    </contour>
    <contour>
      <point x="651" y="1687" type="curve"/>
      <point x="744" y="1683"/>
      <point x="826" y="1705"/>
      <point x="877" y="1737" type="curve"/>
      <point x="877" y="1748" type="line"/>
      <point x="877" y="1814"/>
      <point x="859" y="1875"/>
      <point x="831" y="1917" type="curve"/>
      <point x="822" y="1918"/>
      <point x="816" y="1917"/>
      <point x="809" y="1917" type="curve" smooth="yes"/>
      <point x="724" y="1917"/>
      <point x="654" y="1895"/>
      <point x="605" y="1867" type="curve"/>
      <point x="605" y="1855" type="line"/>
      <point x="605" y="1787"/>
      <point x="623" y="1729"/>
    </contour>
    <contour>
      <point x="606" y="1886" type="line"/>
      <point x="605" y="1879"/>
      <point x="605" y="1873"/>
      <point x="605" y="1867" type="curve"/>
      <point x="596" y="1862" type="line"/>
    </contour>
  </outline>
</glyph>
<glyph name="multiply" format="1">
  <advance width="1229"/>
  <unicode hex="00D7"/>
  <outline>
    <contour>
      <point x="165" y="125" type="line"/>
      <point x="281" y="5" type="line"/>
      <point x="635" y="360" type="line"/>
      <point x="989" y="5" type="line"/>
      <point x="1105" y="125" type="line"/>
      <point x="753" y="477" type="line"/>
      <point x="1105" y="829" type="line"/>
      <point x="989" y="949" type="line"/>
      <point x="635" y="595" type="line"/>
      <point x="281" y="949" type="line"/>
      <point x="165" y="829" type="line"/>
      <point x="517" y="477" type="line"/>
    </contour>
  </outline>
</glyph>
<glyph name="Oslash" format="1">
  <advance width="1021"/>
  <unicode hex="00D8"/>
  <outline>
    <contour>
      <point x="436" y="261" type="curve"/>
      <point x="506" y="398"/>
      <point x="564" y="546"/>
      <point x="610" y="695" type="curve"/>
      <point x="614" y="720"/>
      <point x="659" y="829"/>
      <point x="678" y="847" type="curve"/>
      <point x="685" y="690" type="line"/>
      <point x="685" y="682"/>
      <point x="686" y="674"/>
      <point x="686" y="666" type="curve" smooth="yes"/>
      <point x="688" y="622"/>
      <point x="688" y="574"/>
      <point x="688" y="537" type="curve" smooth="yes"/>
      <point x="688" y="306"/>
      <point x="656" y="190"/>
      <point x="547" y="202" type="curve"/>
      <point x="513" y="201"/>
      <point x="478" y="212"/>
    </contour>
    <contour>
      <point x="102" y="-235" type="line"/>
      <point x="147" y="-240"/>
      <point x="186" y="-247"/>
      <point x="234" y="-252" type="curve"/>
      <point x="332" y="16" type="line"/>
      <point x="398" y="-11"/>
      <point x="463" y="-25"/>
      <point x="528" y="-25" type="curve" smooth="yes"/>
      <point x="845" y="-25"/>
      <point x="997" y="169"/>
      <point x="997" y="761" type="curve" smooth="yes"/>
      <point x="997" y="1167"/>
      <point x="952" y="1286"/>
      <point x="849" y="1414" type="curve"/>
      <point x="955" y="1698" type="line"/>
      <point x="826" y="1717" type="line"/>
      <point x="744" y="1494" type="line"/>
      <point x="673" y="1528"/>
      <point x="600" y="1545"/>
      <point x="528" y="1545" type="curve" smooth="yes"/>
      <point x="211" y="1545"/>
      <point x="61" y="1353"/>
      <point x="61" y="761" type="curve" smooth="yes"/>
      <point x="61" y="348"/>
      <point x="103" y="213"/>
      <point x="224" y="89" type="curve"/>
    </contour>
    <contour>
      <point x="635" y="1235" type="curve"/>
      <point x="562" y="1093"/>
      <point x="509" y="943"/>
      <point x="457" y="791" type="curve"/>
      <point x="452" y="766"/>
      <point x="402" y="634"/>
      <point x="384" y="614" type="curve"/>
      <point x="376" y="680"/>
      <point x="368" y="749"/>
      <point x="365" y="808" type="curve"/>
      <point x="364" y="856"/>
      <point x="363" y="902"/>
      <point x="363" y="943" type="curve" smooth="yes"/>
      <point x="363" y="1182"/>
      <point x="394" y="1330"/>
      <point x="509" y="1320" type="curve"/>
      <point x="554" y="1321"/>
      <point x="596" y="1299"/>
    </contour>
  </outline>
</glyph>
<glyph name="Ugrave" format="1">
  <advance width="1002"/>
  <unicode hex="00D9"/>
  <outline>
    <contour>
      <point x="938" y="1522" type="line"/>
      <point x="628" y="1522" type="line"/>
      <point x="628" y="392" type="line"/>
      <point x="628" y="286"/>
      <point x="584" y="236"/>
      <point x="514" y="236" type="curve" smooth="yes"/>
      <point x="438" y="236"/>
      <point x="400" y="289"/>
      <point x="400" y="396" type="curve"/>
      <point x="400" y="1522" type="line"/>
      <point x="97" y="1522" type="line"/>
      <point x="97" y="361" type="line"/>
      <point x="97" y="124"/>
      <point x="240" y="-25"/>
      <point x="519" y="-25" type="curve" smooth="yes"/>
      <point x="796" y="-25"/>
      <point x="938" y="124"/>
      <point x="938" y="360" type="curve"/>
    </contour>
    <contour>
      <point x="461" y="1679" type="line"/>
      <point x="651" y="1679" type="line"/>
      <point x="602" y="1765"/>
      <point x="557" y="1847"/>
      <point x="506" y="1937" type="curve"/>
      <point x="213" y="1937" type="line"/>
    </contour>
  </outline>
</glyph>
<glyph name="Uacute" format="1">
  <advance width="1002"/>
  <unicode hex="00DA"/>
  <outline>
    <contour>
      <point x="938" y="1522" type="line"/>
      <point x="628" y="1522" type="line"/>
      <point x="628" y="392" type="line"/>
      <point x="628" y="286"/>
      <point x="584" y="236"/>
      <point x="514" y="236" type="curve" smooth="yes"/>
      <point x="438" y="236"/>
      <point x="400" y="289"/>
      <point x="400" y="396" type="curve"/>
      <point x="400" y="1522" type="line"/>
      <point x="97" y="1522" type="line"/>
      <point x="97" y="361" type="line"/>
      <point x="97" y="124"/>
      <point x="240" y="-25"/>
      <point x="519" y="-25" type="curve" smooth="yes"/>
      <point x="796" y="-25"/>
      <point x="938" y="124"/>
      <point x="938" y="360" type="curve"/>
    </contour>
    <contour>
      <point x="384" y="1679" type="line"/>
      <point x="577" y="1679" type="line"/>
      <point x="674" y="1780"/>
      <point x="723" y="1833"/>
      <point x="822" y="1937" type="curve"/>
      <point x="530" y="1937" type="line"/>
    </contour>
  </outline>
</glyph>
<glyph name="Ucircumflex" format="1">
  <advance width="1002"/>
  <unicode hex="00DB"/>
  <outline>
    <contour>
      <point x="938" y="1522" type="line"/>
      <point x="628" y="1522" type="line"/>
      <point x="628" y="392" type="line"/>
      <point x="628" y="286"/>
      <point x="584" y="236"/>
      <point x="514" y="236" type="curve" smooth="yes"/>
      <point x="438" y="236"/>
      <point x="400" y="289"/>
      <point x="400" y="396" type="curve"/>
      <point x="400" y="1522" type="line"/>
      <point x="97" y="1522" type="line"/>
      <point x="97" y="361" type="line"/>
      <point x="97" y="124"/>
      <point x="240" y="-25"/>
      <point x="519" y="-25" type="curve" smooth="yes"/>
      <point x="796" y="-25"/>
      <point x="938" y="124"/>
      <point x="938" y="360" type="curve"/>
    </contour>
    <contour>
      <point x="198" y="1679" type="line"/>
      <point x="400" y="1679" type="line"/>
      <point x="436" y="1737"/>
      <point x="485" y="1815"/>
      <point x="517" y="1870" type="curve"/>
      <point x="634" y="1679" type="line"/>
      <point x="838" y="1679" type="line"/>
      <point x="663" y="1937" type="line"/>
      <point x="373" y="1937" type="line"/>
    </contour>
  </outline>
</glyph>
<glyph name="Udieresis" format="1">
  <advance width="1002"/>
  <unicode hex="00DC"/>
  <outline>
    <contour>
      <point x="938" y="1522" type="line"/>
      <point x="628" y="1522" type="line"/>
      <point x="628" y="598" type="line"/>
      <point x="628" y="570"/>
      <point x="628" y="544"/>
      <point x="629" y="518" type="curve" smooth="yes"/>
      <point x="630" y="495"/>
      <point x="630" y="466"/>
      <point x="630" y="446" type="curve" smooth="yes"/>
      <point x="630" y="322"/>
      <point x="614" y="236"/>
      <point x="514" y="236" type="curve" smooth="yes"/>
      <point x="438" y="236"/>
      <point x="400" y="289"/>
      <point x="400" y="396" type="curve"/>
      <point x="400" y="1522" type="line"/>
      <point x="97" y="1522" type="line"/>
      <point x="97" y="573" type="line"/>
      <point x="97" y="223"/>
      <point x="124" y="-25"/>
      <point x="519" y="-25" type="curve" smooth="yes"/>
      <point x="796" y="-25"/>
      <point x="938" y="124"/>
      <point x="938" y="360" type="curve"/>
    </contour>
    <contour>
      <point x="376" y="1688" type="curve"/>
      <point x="410" y="1727"/>
      <point x="437" y="1785"/>
      <point x="441" y="1849" type="curve"/>
      <point x="394" y="1886"/>
      <point x="319" y="1913"/>
      <point x="234" y="1915" type="curve"/>
      <point x="201" y="1877"/>
      <point x="173" y="1818"/>
      <point x="169" y="1754" type="curve"/>
      <point x="216" y="1717"/>
      <point x="291" y="1689"/>
    </contour>
    <contour>
      <point x="161" y="1762" type="line"/>
      <point x="169" y="1754" type="line"/>
      <point x="169" y="1737" type="line"/>
    </contour>
    <contour>
      <point x="641" y="1688" type="curve"/>
      <point x="737" y="1683"/>
      <point x="814" y="1704"/>
      <point x="867" y="1737" type="curve"/>
      <point x="867" y="1750" type="line"/>
      <point x="867" y="1817"/>
      <point x="848" y="1876"/>
      <point x="821" y="1917" type="curve"/>
      <point x="812" y="1918"/>
      <point x="808" y="1917"/>
      <point x="800" y="1917" type="curve" smooth="yes"/>
      <point x="715" y="1917"/>
      <point x="641" y="1895"/>
      <point x="594" y="1867" type="curve"/>
      <point x="593" y="1797"/>
      <point x="613" y="1732"/>
    </contour>
    <contour>
      <point x="595" y="1887" type="line"/>
      <point x="594" y="1880"/>
      <point x="594" y="1874"/>
      <point x="594" y="1867" type="curve"/>
      <point x="585" y="1862" type="line"/>
    </contour>
  </outline>
</glyph>
<glyph name="Yacute" format="1">
  <advance width="834"/>
  <unicode hex="00DD"/>
  <outline>
    <contour>
      <point x="618" y="1548" type="line"/>
      <point x="562" y="1367"/>
      <point x="501" y="1162"/>
      <point x="446" y="983" type="curve"/>
      <point x="414" y="983" type="line"/>
      <point x="241" y="1548" type="line"/>
      <point x="-73" y="1548" type="line"/>
      <point x="268" y="583" type="line"/>
      <point x="268" y="0" type="line"/>
      <point x="566" y="0" type="line"/>
      <point x="566" y="584" type="line"/>
      <point x="930" y="1548" type="line"/>
    </contour>
    <contour>
      <point x="701" y="1955" type="line"/>
      <point x="439" y="1955" type="line"/>
      <point x="387" y="1863"/>
      <point x="352" y="1798"/>
      <point x="297" y="1700" type="curve"/>
      <point x="463" y="1700" type="line"/>
    </contour>
  </outline>
</glyph>
<glyph name="Thorn" format="1">
  <advance width="1024"/>
  <unicode hex="00DE"/>
  <outline>
    <contour>
      <point x="108" y="0" type="line"/>
      <point x="407" y="0" type="line"/>
      <point x="407" y="280" type="line"/>
      <point x="480" y="280" type="line"/>
      <point x="799" y="280"/>
      <point x="1003" y="452"/>
      <point x="1003" y="805" type="curve" smooth="yes"/>
      <point x="1003" y="1134"/>
      <point x="850" y="1331"/>
      <point x="493" y="1331" type="curve"/>
      <point x="407" y="1331" type="line"/>
      <point x="407" y="1548" type="line"/>
      <point x="108" y="1548" type="line"/>
    </contour>
    <contour>
      <point x="407" y="1093" type="line"/>
      <point x="465" y="1093" type="line"/>
      <point x="613" y="1093"/>
      <point x="696" y="989"/>
      <point x="696" y="805" type="curve" smooth="yes"/>
      <point x="696" y="621"/>
      <point x="613" y="518"/>
      <point x="465" y="518" type="curve"/>
      <point x="407" y="518" type="line"/>
    </contour>
  </outline>
</glyph>
<glyph name="germandbls" format="1">
  <advance width="844"/>
  <unicode hex="00DF"/>
  <outline>
    <contour>
      <point x="342" y="0" type="line"/>
      <point x="342" y="1173" type="line"/>
      <point x="342" y="1273"/>
      <point x="342" y="1356"/>
      <point x="435" y="1356" type="curve" smooth="yes"/>
      <point x="500" y="1356"/>
      <point x="530" y="1322"/>
      <point x="530" y="1139" type="curve" smooth="yes"/>
      <point x="530" y="974"/>
      <point x="514" y="939"/>
      <point x="464" y="932" type="curve"/>
      <point x="464" y="860" type="line"/>
      <point x="461" y="798" type="line"/>
      <point x="460" y="778"/>
      <point x="459" y="790"/>
      <point x="459" y="769" type="curve"/>
      <point x="531" y="760"/>
      <point x="552" y="699"/>
      <point x="552" y="446" type="curve" smooth="yes"/>
      <point x="552" y="222"/>
      <point x="536" y="189"/>
      <point x="470" y="179" type="curve"/>
      <point x="466" y="113"/>
      <point x="464" y="47"/>
      <point x="461" y="-19" type="curve"/>
      <point x="469" y="-20"/>
      <point x="478" y="-20"/>
      <point x="489" y="-20" type="curve" smooth="yes"/>
      <point x="506" y="-20"/>
      <point x="528" y="-18"/>
      <point x="552" y="-14" type="curve"/>
      <point x="582" y="-13"/>
      <point x="605" y="-7"/>
      <point x="624" y="0" type="curve"/>
      <point x="739" y="38"/>
      <point x="806" y="171"/>
      <point x="806" y="433" type="curve" smooth="yes"/>
      <point x="806" y="705"/>
      <point x="743" y="813"/>
      <point x="595" y="843" type="curve"/>
      <point x="593" y="897" type="line"/>
      <point x="696" y="927"/>
      <point x="752" y="1004"/>
      <point x="752" y="1179" type="curve" smooth="yes"/>
      <point x="752" y="1416"/>
      <point x="656" y="1545"/>
      <point x="413" y="1545" type="curve" smooth="yes"/>
      <point x="171" y="1545"/>
      <point x="89" y="1443"/>
      <point x="89" y="1099" type="curve"/>
      <point x="89" y="0" type="line"/>
    </contour>
    <contour>
      <point x="460" y="-35" type="curve"/>
      <point x="460" y="-47" type="line"/>
      <point x="443" y="-16" type="line"/>
      <point x="461" y="-19" type="line"/>
      <point x="461" y="-25"/>
      <point x="460" y="-30"/>
    </contour>
  </outline>
</glyph>
<glyph name="agrave" format="1">
  <advance width="853"/>
  <unicode hex="00E0"/>
  <outline>
    <contour>
      <point x="250" y="767" type="line"/>
      <point x="277" y="796"/>
      <point x="319" y="821"/>
      <point x="368" y="821" type="curve" smooth="yes"/>
      <point x="442" y="821"/>
      <point x="492" y="784"/>
      <point x="518" y="727" type="curve"/>
      <point x="518" y="728" type="line"/>
      <point x="527" y="707"/>
      <point x="529" y="683"/>
      <point x="529" y="655" type="curve"/>
      <point x="529" y="550" type="line"/>
      <point x="467" y="585"/>
      <point x="416" y="600"/>
      <point x="366" y="600" type="curve" smooth="yes"/>
      <point x="352" y="600"/>
      <point x="340" y="599"/>
      <point x="326" y="598" type="curve"/>
      <point x="153" y="575"/>
      <point x="51" y="431"/>
      <point x="51" y="254" type="curve" smooth="yes"/>
      <point x="51" y="95"/>
      <point x="137" y="-22"/>
      <point x="280" y="-22" type="curve" smooth="yes"/>
      <point x="391" y="-22"/>
      <point x="446" y="33"/>
      <point x="502" y="120" type="curve"/>
      <point x="534" y="110"/>
      <point x="540" y="51"/>
      <point x="541" y="6" type="curve" smooth="yes"/>
      <point x="542" y="-10"/>
      <point x="541" y="7"/>
      <point x="542" y="0" type="curve"/>
      <point x="792" y="0" type="line"/>
      <point x="792" y="15"/>
      <point x="791" y="31"/>
      <point x="791" y="46" type="curve" smooth="yes"/>
      <point x="790" y="97"/>
      <point x="789" y="164"/>
      <point x="789" y="217" type="curve"/>
      <point x="789" y="544" type="line"/>
      <point x="789" y="573"/>
      <point x="789" y="600"/>
      <point x="787" y="625" type="curve"/>
      <point x="776" y="868"/>
      <point x="669" y="993"/>
      <point x="446" y="1004" type="curve" smooth="yes"/>
      <point x="429" y="1005"/>
      <point x="412" y="1006"/>
      <point x="394" y="1006" type="curve" smooth="yes"/>
      <point x="379" y="1006"/>
      <point x="364" y="1005"/>
      <point x="349" y="1004" type="curve"/>
      <point x="350" y="1004" type="line"/>
      <point x="241" y="990"/>
      <point x="161" y="945"/>
      <point x="108" y="853" type="curve"/>
    </contour>
    <contour>
      <point x="531" y="292" type="line"/>
      <point x="517" y="224"/>
      <point x="471" y="163"/>
      <point x="405" y="163" type="curve" smooth="yes"/>
      <point x="348" y="163"/>
      <point x="319" y="210"/>
      <point x="310" y="273" type="curve" smooth="yes"/>
      <point x="306" y="289"/>
      <point x="304" y="309"/>
      <point x="308" y="330" type="curve"/>
      <point x="308" y="329" type="line"/>
      <point x="315" y="402"/>
      <point x="352" y="459"/>
      <point x="410" y="471" type="curve" smooth="yes"/>
      <point x="426" y="474"/>
      <point x="438" y="475"/>
      <point x="447" y="475" type="curve" smooth="yes"/>
      <point x="467" y="475"/>
      <point x="490" y="470"/>
      <point x="515" y="459" type="curve"/>
      <point x="525" y="404"/>
      <point x="531" y="350"/>
      <point x="531" y="299" type="curve"/>
    </contour>
    <contour>
      <point x="384" y="1186" type="line"/>
      <point x="575" y="1186" type="line"/>
      <point x="430" y="1443" type="line"/>
      <point x="136" y="1443" type="line"/>
    </contour>
  </outline>
</glyph>
<glyph name="atilde" format="1">
  <advance width="853"/>
  <unicode hex="00E3"/>
  <outline>
    <contour>
      <point x="250" y="767" type="line"/>
      <point x="277" y="796"/>
      <point x="319" y="821"/>
      <point x="368" y="821" type="curve" smooth="yes"/>
      <point x="442" y="821"/>
      <point x="492" y="784"/>
      <point x="518" y="727" type="curve"/>
      <point x="518" y="728" type="line"/>
      <point x="527" y="707"/>
      <point x="529" y="683"/>
      <point x="529" y="655" type="curve"/>
      <point x="529" y="550" type="line"/>
      <point x="467" y="585"/>
      <point x="416" y="600"/>
      <point x="366" y="600" type="curve" smooth="yes"/>
      <point x="352" y="600"/>
      <point x="340" y="599"/>
      <point x="326" y="598" type="curve"/>
      <point x="153" y="575"/>
      <point x="51" y="431"/>
      <point x="51" y="254" type="curve" smooth="yes"/>
      <point x="51" y="95"/>
      <point x="137" y="-22"/>
      <point x="280" y="-22" type="curve" smooth="yes"/>
      <point x="391" y="-22"/>
      <point x="446" y="33"/>
      <point x="502" y="120" type="curve"/>
      <point x="534" y="110"/>
      <point x="540" y="51"/>
      <point x="541" y="6" type="curve" smooth="yes"/>
      <point x="542" y="-10"/>
      <point x="541" y="7"/>
      <point x="542" y="0" type="curve"/>
      <point x="792" y="0" type="line"/>
      <point x="792" y="15"/>
      <point x="791" y="31"/>
      <point x="791" y="46" type="curve" smooth="yes"/>
      <point x="790" y="97"/>
      <point x="789" y="164"/>
      <point x="789" y="217" type="curve"/>
      <point x="789" y="544" type="line"/>
      <point x="789" y="573"/>
      <point x="789" y="600"/>
      <point x="787" y="625" type="curve"/>
      <point x="776" y="868"/>
      <point x="669" y="993"/>
      <point x="446" y="1004" type="curve" smooth="yes"/>
      <point x="429" y="1005"/>
      <point x="412" y="1006"/>
      <point x="394" y="1006" type="curve" smooth="yes"/>
      <point x="379" y="1006"/>
      <point x="364" y="1005"/>
      <point x="349" y="1004" type="curve"/>
      <point x="350" y="1004" type="line"/>
      <point x="241" y="990"/>
      <point x="161" y="945"/>
      <point x="108" y="853" type="curve"/>
    </contour>
    <contour>
      <point x="531" y="292" type="line"/>
      <point x="517" y="224"/>
      <point x="471" y="163"/>
      <point x="405" y="163" type="curve" smooth="yes"/>
      <point x="348" y="163"/>
      <point x="319" y="210"/>
      <point x="310" y="273" type="curve" smooth="yes"/>
      <point x="306" y="289"/>
      <point x="304" y="309"/>
      <point x="308" y="330" type="curve"/>
      <point x="308" y="329" type="line"/>
      <point x="315" y="402"/>
      <point x="352" y="459"/>
      <point x="410" y="471" type="curve" smooth="yes"/>
      <point x="426" y="474"/>
      <point x="438" y="475"/>
      <point x="447" y="475" type="curve" smooth="yes"/>
      <point x="467" y="475"/>
      <point x="490" y="470"/>
      <point x="515" y="459" type="curve"/>
      <point x="525" y="404"/>
      <point x="531" y="350"/>
      <point x="531" y="299" type="curve"/>
    </contour>
    <contour>
      <point x="684" y="1418" type="line"/>
      <point x="676" y="1373"/>
      <point x="648" y="1327"/>
      <point x="595" y="1327" type="curve" smooth="yes"/>
      <point x="550" y="1327"/>
      <point x="508" y="1347"/>
      <point x="463" y="1368" type="curve" smooth="yes"/>
      <point x="417" y="1390"/>
      <point x="367" y="1413"/>
      <point x="302" y="1413" type="curve" smooth="yes"/>
      <point x="186" y="1413"/>
      <point x="114" y="1299"/>
      <point x="94" y="1197" type="curve"/>
      <point x="197" y="1197" type="line"/>
      <point x="207" y="1249"/>
      <point x="242" y="1289"/>
      <point x="299" y="1289" type="curve" smooth="yes"/>
      <point x="342" y="1289"/>
      <point x="384" y="1270"/>
      <point x="427" y="1252" type="curve" smooth="yes"/>
      <point x="470" y="1234"/>
      <point x="517" y="1212"/>
      <point x="577" y="1212" type="curve" smooth="yes"/>
      <point x="702" y="1212"/>
      <point x="773" y="1309"/>
      <point x="790" y="1418" type="curve"/>
    </contour>
  </outline>
</glyph>
<glyph name="adieresis" format="1">
  <advance width="853"/>
  <unicode hex="00E4"/>
  <outline>
    <contour>
      <point x="250" y="767" type="line"/>
      <point x="277" y="796"/>
      <point x="319" y="821"/>
      <point x="368" y="821" type="curve" smooth="yes"/>
      <point x="442" y="821"/>
      <point x="492" y="784"/>
      <point x="518" y="727" type="curve"/>
      <point x="518" y="728" type="line"/>
      <point x="527" y="707"/>
      <point x="529" y="683"/>
      <point x="529" y="655" type="curve"/>
      <point x="529" y="550" type="line"/>
      <point x="467" y="585"/>
      <point x="416" y="600"/>
      <point x="366" y="600" type="curve" smooth="yes"/>
      <point x="352" y="600"/>
      <point x="340" y="599"/>
      <point x="326" y="598" type="curve"/>
      <point x="153" y="575"/>
      <point x="51" y="431"/>
      <point x="51" y="254" type="curve" smooth="yes"/>
      <point x="51" y="95"/>
      <point x="137" y="-22"/>
      <point x="280" y="-22" type="curve" smooth="yes"/>
      <point x="391" y="-22"/>
      <point x="446" y="33"/>
      <point x="502" y="120" type="curve"/>
      <point x="534" y="110"/>
      <point x="540" y="51"/>
      <point x="541" y="6" type="curve" smooth="yes"/>
      <point x="542" y="-10"/>
      <point x="541" y="7"/>
      <point x="542" y="0" type="curve"/>
      <point x="792" y="0" type="line"/>
      <point x="792" y="15"/>
      <point x="791" y="31"/>
      <point x="791" y="46" type="curve" smooth="yes"/>
      <point x="790" y="97"/>
      <point x="789" y="164"/>
      <point x="789" y="217" type="curve"/>
      <point x="789" y="479" type="line"/>
      <point x="789" y="529"/>
      <point x="789" y="581"/>
      <point x="787" y="626" type="curve" smooth="yes"/>
      <point x="776" y="868"/>
      <point x="669" y="993"/>
      <point x="446" y="1004" type="curve" smooth="yes"/>
      <point x="430" y="1005"/>
      <point x="416" y="1006"/>
      <point x="401" y="1006" type="curve" smooth="yes"/>
      <point x="267" y="1006"/>
      <point x="167" y="965"/>
      <point x="107" y="854" type="curve"/>
      <point x="187" y="806" type="line"/>
    </contour>
    <contour>
      <point x="531" y="292" type="line"/>
      <point x="517" y="224"/>
      <point x="471" y="163"/>
      <point x="405" y="163" type="curve" smooth="yes"/>
      <point x="347" y="163"/>
      <point x="318" y="207"/>
      <point x="310" y="273" type="curve"/>
      <point x="310" y="272" type="line"/>
      <point x="296" y="365"/>
      <point x="335" y="457"/>
      <point x="410" y="471" type="curve" smooth="yes"/>
      <point x="424" y="473"/>
      <point x="439" y="476"/>
      <point x="449" y="476" type="curve" smooth="yes"/>
      <point x="469" y="476"/>
      <point x="490" y="471"/>
      <point x="516" y="458" type="curve"/>
      <point x="525" y="407"/>
      <point x="531" y="353"/>
      <point x="531" y="299" type="curve"/>
    </contour>
    <contour>
      <point x="93" y="1250" type="line"/>
      <point x="105" y="1219"/>
      <point x="147" y="1194"/>
      <point x="200" y="1194" type="curve" smooth="yes"/>
      <point x="270" y="1194"/>
      <point x="332" y="1222"/>
      <point x="364" y="1257" type="curve"/>
      <point x="364" y="1366" type="line"/>
      <point x="352" y="1397"/>
      <point x="310" y="1422"/>
      <point x="258" y="1422" type="curve" smooth="yes"/>
      <point x="188" y="1422"/>
      <point x="125" y="1394"/>
      <point x="93" y="1358" type="curve"/>
    </contour>
    <contour>
      <point x="726" y="1194" type="curve"/>
      <point x="758" y="1233"/>
      <point x="786" y="1293"/>
      <point x="790" y="1356" type="curve"/>
      <point x="745" y="1394"/>
      <point x="669" y="1420"/>
      <point x="583" y="1422" type="curve"/>
      <point x="551" y="1384"/>
      <point x="523" y="1323"/>
      <point x="519" y="1259" type="curve"/>
      <point x="566" y="1223"/>
      <point x="642" y="1196"/>
    </contour>
    <contour>
      <point x="511" y="1267" type="line"/>
      <point x="519" y="1259" type="line"/>
      <point x="519" y="1242" type="line"/>
    </contour>
  </outline>
</glyph>
<glyph name="ae" format="1">
  <advance width="1272"/>
  <unicode hex="00E6"/>
  <outline>
    <contour>
      <point x="420" y="807" type="curve"/>
      <point x="490" y="789"/>
      <point x="524" y="733"/>
      <point x="524" y="654" type="curve"/>
      <point x="524" y="553" type="line"/>
      <point x="453" y="584"/>
      <point x="394" y="598"/>
      <point x="348" y="598" type="curve" smooth="yes"/>
      <point x="168" y="598"/>
      <point x="47" y="442"/>
      <point x="47" y="255" type="curve" smooth="yes"/>
      <point x="47" y="91"/>
      <point x="137" y="-22"/>
      <point x="273" y="-22" type="curve" smooth="yes"/>
      <point x="423" y="-22"/>
      <point x="520" y="48"/>
      <point x="587" y="155" type="curve"/>
      <point x="658" y="41"/>
      <point x="759" y="-22"/>
      <point x="901" y="-22" type="curve" smooth="yes"/>
      <point x="1090" y="-22"/>
      <point x="1241" y="67"/>
      <point x="1243" y="283" type="curve"/>
      <point x="1160" y="280"/>
      <point x="1090" y="279"/>
      <point x="1004" y="275" type="curve"/>
      <point x="996" y="197"/>
      <point x="965" y="163"/>
      <point x="903" y="163" type="curve" smooth="yes"/>
      <point x="807" y="163"/>
      <point x="793" y="232"/>
      <point x="791" y="438" type="curve"/>
      <point x="1254" y="438" type="line"/>
      <point x="1254" y="539" type="line"/>
      <point x="1254" y="793"/>
      <point x="1162" y="1008"/>
      <point x="901" y="1008" type="curve" smooth="yes"/>
      <point x="796" y="1008"/>
      <point x="718" y="976"/>
      <point x="662" y="925" type="curve"/>
      <point x="619" y="965"/>
      <point x="568" y="989"/>
      <point x="509" y="1003" type="curve"/>
      <point x="510" y="1002" type="line"/>
      <point x="477" y="1007"/>
      <point x="444" y="1012"/>
      <point x="407" y="1015" type="curve"/>
      <point x="299" y="1015"/>
      <point x="158" y="937"/>
      <point x="139" y="760" type="curve"/>
      <point x="198" y="768"/>
      <point x="262" y="780"/>
      <point x="318" y="782" type="curve"/>
      <point x="343" y="804"/>
      <point x="378" y="814"/>
    </contour>
    <contour>
      <point x="137" y="725" type="curve"/>
      <point x="111" y="756" type="line"/>
      <point x="129" y="759" type="line"/>
      <point x="133" y="759"/>
      <point x="136" y="759"/>
      <point x="139" y="760" type="curve"/>
      <point x="138" y="748"/>
      <point x="137" y="736"/>
    </contour>
    <contour>
      <point x="309" y="773" type="line"/>
      <point x="318" y="782" type="line"/>
      <point x="323" y="782" type="line"/>
    </contour>
    <contour>
      <point x="399" y="164" type="curve" smooth="yes"/>
      <point x="345" y="164"/>
      <point x="313" y="209"/>
      <point x="304" y="273" type="curve"/>
      <point x="304" y="271" type="line"/>
      <point x="300" y="291"/>
      <point x="301" y="315"/>
      <point x="304" y="335" type="curve" smooth="yes"/>
      <point x="316" y="430"/>
      <point x="375" y="475"/>
      <point x="441" y="475" type="curve" smooth="yes"/>
      <point x="460" y="475"/>
      <point x="484" y="470"/>
      <point x="510" y="460" type="curve"/>
      <point x="520" y="415"/>
      <point x="522" y="376"/>
      <point x="522" y="336" type="curve"/>
      <point x="522" y="293" type="line"/>
      <point x="511" y="223"/>
      <point x="465" y="164"/>
    </contour>
    <contour>
      <point x="787" y="576" type="line"/>
      <point x="787" y="763"/>
      <point x="814" y="824"/>
      <point x="897" y="824" type="curve" smooth="yes"/>
      <point x="991" y="824"/>
      <point x="1012" y="766"/>
      <point x="1010" y="576" type="curve"/>
    </contour>
  </outline>
</glyph>
<glyph name="ccedilla" format="1">
  <advance width="733"/>
  <unicode hex="00E7"/>
  <outline>
    <contour>
      <point x="678" y="797" type="line"/>
      <point x="654" y="886"/>
      <point x="603" y="959"/>
      <point x="514" y="991" type="curve"/>
      <point x="485" y="997"/>
      <point x="455" y="1001"/>
      <point x="422" y="1000" type="curve"/>
      <point x="394" y="998" type="line" smooth="yes"/>
      <point x="387" y="997"/>
      <point x="381" y="996"/>
      <point x="371" y="996" type="curve"/>
      <point x="152" y="957"/>
      <point x="68" y="767"/>
      <point x="68" y="492" type="curve" smooth="yes"/>
      <point x="68" y="232"/>
      <point x="142" y="35"/>
      <point x="376" y="-17" type="curve"/>
      <point x="241" y="-224" type="line"/>
      <point x="258" y="-240" type="line"/>
      <point x="273" y="-236" type="line"/>
      <point x="271" y="-237" type="line" smooth="yes"/>
      <point x="294" y="-232"/>
      <point x="318" y="-225"/>
      <point x="341" y="-225" type="curve" smooth="yes"/>
      <point x="409" y="-225"/>
      <point x="457" y="-268"/>
      <point x="457" y="-343" type="curve" smooth="yes"/>
      <point x="457" y="-429"/>
      <point x="377" y="-451"/>
      <point x="321" y="-451" type="curve" smooth="yes"/>
      <point x="270" y="-451"/>
      <point x="213" y="-433"/>
      <point x="162" y="-416" type="curve"/>
      <point x="156" y="-427"/>
      <point x="151" y="-438"/>
      <point x="144" y="-457" type="curve"/>
      <point x="213" y="-483"/>
      <point x="290" y="-500"/>
      <point x="365" y="-500" type="curve" smooth="yes"/>
      <point x="485" y="-500"/>
      <point x="614" y="-446"/>
      <point x="614" y="-319" type="curve" smooth="yes"/>
      <point x="614" y="-234"/>
      <point x="519" y="-189"/>
      <point x="433" y="-189" type="curve" smooth="yes"/>
      <point x="408" y="-189"/>
      <point x="349" y="-201"/>
      <point x="302" y="-210" type="curve"/>
      <point x="432" y="-16" type="line"/>
      <point x="454" y="-18"/>
      <point x="470" y="-16"/>
      <point x="483" y="-14" type="curve"/>
      <point x="482" y="-15" type="line"/>
      <point x="598" y="10"/>
      <point x="651" y="96"/>
      <point x="676" y="198" type="curve"/>
      <point x="559" y="311" type="line"/>
      <point x="544" y="277"/>
      <point x="528" y="253"/>
      <point x="507" y="240" type="curve"/>
      <point x="477" y="205"/>
      <point x="438" y="203"/>
      <point x="407" y="219" type="curve"/>
      <point x="350" y="245"/>
      <point x="328" y="305"/>
      <point x="328" y="492" type="curve" smooth="yes"/>
      <point x="328" y="689"/>
      <point x="353" y="747"/>
      <point x="417" y="769" type="curve" smooth="yes"/>
      <point x="439" y="776"/>
      <point x="457" y="779"/>
      <point x="476" y="773" type="curve"/>
      <point x="489" y="766"/>
      <point x="499" y="759"/>
      <point x="514" y="742" type="curve"/>
      <point x="532" y="731"/>
      <point x="548" y="707"/>
      <point x="564" y="681" type="curve"/>
    </contour>
  </outline>
</glyph>
<glyph name="egrave" format="1">
  <advance width="824"/>
  <unicode hex="00E8"/>
  <outline>
    <contour>
      <point x="779" y="438" type="line"/>
      <point x="779" y="541" type="line"/>
      <point x="779" y="790"/>
      <point x="690" y="1008"/>
      <point x="426" y="1008" type="curve" smooth="yes"/>
      <point x="158" y="1008"/>
      <point x="57" y="766"/>
      <point x="57" y="492" type="curve" smooth="yes"/>
      <point x="57" y="221"/>
      <point x="135" y="-22"/>
      <point x="426" y="-22" type="curve" smooth="yes"/>
      <point x="612" y="-22"/>
      <point x="761" y="78"/>
      <point x="768" y="283" type="curve"/>
      <point x="692" y="281"/>
      <point x="610" y="276"/>
      <point x="530" y="274" type="curve"/>
      <point x="521" y="196"/>
      <point x="490" y="163"/>
      <point x="428" y="163" type="curve" smooth="yes"/>
      <point x="331" y="163"/>
      <point x="319" y="233"/>
      <point x="317" y="438" type="curve"/>
    </contour>
    <contour>
      <point x="314" y="576" type="line"/>
      <point x="312" y="763"/>
      <point x="331" y="824"/>
      <point x="423" y="824" type="curve" smooth="yes"/>
      <point x="518" y="824"/>
      <point x="536" y="763"/>
      <point x="536" y="576" type="curve"/>
    </contour>
    <contour>
      <point x="368" y="1186" type="line"/>
      <point x="561" y="1186" type="line"/>
      <point x="513" y="1270"/>
      <point x="463" y="1354"/>
      <point x="414" y="1443" type="curve"/>
      <point x="123" y="1443" type="line"/>
    </contour>
  </outline>
</glyph>
<glyph name="eacute" format="1">
  <advance width="824"/>
  <unicode hex="00E9"/>
  <outline>
    <contour>
      <point x="779" y="438" type="line"/>
      <point x="779" y="541" type="line"/>
      <point x="779" y="790"/>
      <point x="690" y="1008"/>
      <point x="426" y="1008" type="curve" smooth="yes"/>
      <point x="158" y="1008"/>
      <point x="57" y="766"/>
      <point x="57" y="492" type="curve" smooth="yes"/>
      <point x="57" y="221"/>
      <point x="135" y="-22"/>
      <point x="426" y="-22" type="curve" smooth="yes"/>
      <point x="612" y="-22"/>
      <point x="761" y="78"/>
      <point x="768" y="283" type="curve"/>
      <point x="692" y="281"/>
      <point x="610" y="276"/>
      <point x="530" y="274" type="curve"/>
      <point x="521" y="196"/>
      <point x="490" y="163"/>
      <point x="428" y="163" type="curve" smooth="yes"/>
      <point x="331" y="163"/>
      <point x="319" y="233"/>
      <point x="317" y="438" type="curve"/>
    </contour>
    <contour>
      <point x="314" y="576" type="line"/>
      <point x="312" y="763"/>
      <point x="331" y="824"/>
      <point x="423" y="824" type="curve" smooth="yes"/>
      <point x="518" y="824"/>
      <point x="536" y="763"/>
      <point x="536" y="576" type="curve"/>
    </contour>
    <contour>
      <point x="293" y="1186" type="line"/>
      <point x="483" y="1186" type="line"/>
      <point x="580" y="1287"/>
      <point x="632" y="1339"/>
      <point x="731" y="1443" type="curve"/>
      <point x="438" y="1443" type="line"/>
    </contour>
  </outline>
</glyph>
<glyph name="ecircumflex" format="1">
  <advance width="824"/>
  <unicode hex="00EA"/>
  <outline>
    <contour>
      <point x="779" y="438" type="line"/>
      <point x="779" y="541" type="line"/>
      <point x="779" y="790"/>
      <point x="690" y="1008"/>
      <point x="426" y="1008" type="curve" smooth="yes"/>
      <point x="158" y="1008"/>
      <point x="57" y="766"/>
      <point x="57" y="492" type="curve" smooth="yes"/>
      <point x="57" y="221"/>
      <point x="135" y="-22"/>
      <point x="426" y="-22" type="curve" smooth="yes"/>
      <point x="612" y="-22"/>
      <point x="761" y="78"/>
      <point x="768" y="283" type="curve"/>
      <point x="692" y="281"/>
      <point x="610" y="276"/>
      <point x="530" y="274" type="curve"/>
      <point x="521" y="196"/>
      <point x="490" y="163"/>
      <point x="428" y="163" type="curve" smooth="yes"/>
      <point x="331" y="163"/>
      <point x="319" y="233"/>
      <point x="317" y="438" type="curve"/>
    </contour>
    <contour>
      <point x="314" y="576" type="line"/>
      <point x="312" y="763"/>
      <point x="331" y="824"/>
      <point x="423" y="824" type="curve" smooth="yes"/>
      <point x="518" y="824"/>
      <point x="536" y="763"/>
      <point x="536" y="576" type="curve"/>
    </contour>
    <contour>
      <point x="106" y="1186" type="line"/>
      <point x="310" y="1186" type="line"/>
      <point x="345" y="1244"/>
      <point x="393" y="1322"/>
      <point x="425" y="1377" type="curve"/>
      <point x="542" y="1186" type="line"/>
      <point x="746" y="1186" type="line"/>
      <point x="570" y="1443" type="line"/>
      <point x="282" y="1443" type="line"/>
    </contour>
  </outline>
</glyph>
<glyph name="edieresis" format="1">
  <advance width="824"/>
  <unicode hex="00EB"/>
  <outline>
    <contour>
      <point x="779" y="438" type="line"/>
      <point x="779" y="541" type="line"/>
      <point x="779" y="790"/>
      <point x="690" y="1008"/>
      <point x="426" y="1008" type="curve" smooth="yes"/>
      <point x="158" y="1008"/>
      <point x="57" y="766"/>
      <point x="57" y="492" type="curve" smooth="yes"/>
      <point x="57" y="221"/>
      <point x="135" y="-22"/>
      <point x="426" y="-22" type="curve" smooth="yes"/>
      <point x="612" y="-22"/>
      <point x="761" y="78"/>
      <point x="768" y="283" type="curve"/>
      <point x="692" y="281"/>
      <point x="610" y="276"/>
      <point x="530" y="274" type="curve"/>
      <point x="521" y="196"/>
      <point x="490" y="163"/>
      <point x="428" y="163" type="curve" smooth="yes"/>
      <point x="331" y="163"/>
      <point x="319" y="233"/>
      <point x="317" y="438" type="curve"/>
    </contour>
    <contour>
      <point x="314" y="576" type="line"/>
      <point x="312" y="763"/>
      <point x="331" y="824"/>
      <point x="423" y="824" type="curve" smooth="yes"/>
      <point x="518" y="824"/>
      <point x="536" y="763"/>
      <point x="536" y="576" type="curve"/>
    </contour>
    <contour>
      <point x="78" y="1250" type="line"/>
      <point x="92" y="1219"/>
      <point x="134" y="1194"/>
      <point x="186" y="1194" type="curve" smooth="yes"/>
      <point x="255" y="1194"/>
      <point x="317" y="1222"/>
      <point x="349" y="1257" type="curve"/>
      <point x="349" y="1366" type="line"/>
      <point x="338" y="1397"/>
      <point x="295" y="1422"/>
      <point x="243" y="1422" type="curve" smooth="yes"/>
      <point x="171" y="1422"/>
      <point x="110" y="1395"/>
      <point x="78" y="1358" type="curve"/>
    </contour>
    <contour>
      <point x="775" y="1361" type="curve" smooth="yes"/>
      <point x="775" y="1372"/>
      <point x="776" y="1363"/>
      <point x="775" y="1374" type="curve"/>
      <point x="726" y="1402"/>
      <point x="654" y="1424"/>
      <point x="571" y="1424" type="curve"/>
      <point x="549" y="1424" type="line"/>
      <point x="525" y="1382"/>
      <point x="504" y="1320"/>
      <point x="504" y="1257" type="curve" smooth="yes"/>
      <point x="504" y="1246"/>
      <point x="503" y="1256"/>
      <point x="504" y="1244" type="curve"/>
      <point x="556" y="1214"/>
      <point x="640" y="1189"/>
      <point x="730" y="1193" type="curve"/>
      <point x="757" y="1235"/>
      <point x="775" y="1294"/>
    </contour>
    <contour>
      <point x="722" y="1181" type="line"/>
      <point x="725" y="1184"/>
      <point x="727" y="1189"/>
      <point x="730" y="1193" type="curve"/>
      <point x="732" y="1193"/>
      <point x="734" y="1194"/>
      <point x="738" y="1194" type="curve"/>
    </contour>
  </outline>
</glyph>
